<?xml version="1.0" encoding="UTF-8"?>
<!DOCTYPE svg PUBLIC "-//W3C//DTD SVG 1.1//EN" "http://www.w3.org/Graphics/SVG/1.1/DTD/svg11.dtd">
<svg xmlns="http://www.w3.org/2000/svg" version="1.1" width="435px" height="540px" style="shape-rendering:geometricPrecision; text-rendering:geometricPrecision; image-rendering:optimizeQuality; fill-rule:evenodd; clip-rule:evenodd" xmlns:xlink="http://www.w3.org/1999/xlink">
<g><path style="opacity:0.988" fill="#fefefe" d="M 196.5,-0.5 C 210.167,-0.5 223.833,-0.5 237.5,-0.5C 318.546,9.74029 377.712,51.0736 415,123.5C 425.104,145.96 431.604,169.293 434.5,193.5C 434.5,207.167 434.5,220.833 434.5,234.5C 429.346,277.801 413.179,316.468 386,350.5C 330.833,412.833 275.667,475.167 220.5,537.5C 219.667,537.833 218.833,538.167 218,538.5C 214.07,535.576 210.404,532.242 207,528.5C 154.371,468.869 101.371,409.536 48,350.5C 20.5427,316.582 4.37603,277.915 -0.5,234.5C -0.5,220.833 -0.5,207.167 -0.5,193.5C 10.387,113.206 52.0537,55.0395 124.5,19C 147.603,8.72673 171.603,2.22673 196.5,-0.5 Z"/></g>
<g><path style="opacity:1" fill="#010101" d="M 196.5,36.5 C 272.652,33.6489 330.152,64.6489 369,129.5C 397.628,186.435 397.628,243.435 369,300.5C 330.469,365.192 273.302,396.025 197.5,393C 127.672,383.857 78.1724,347.357 49,283.5C 25.2873,220.835 32.6207,162.168 71,107.5C 103.052,66.6296 144.885,42.9629 196.5,36.5 Z"/></g>
<g><path style="opacity:1" fill="#fafafa" d="M 266.5,142.5 C 275.18,140.856 278.847,144.189 277.5,152.5C 276.5,153.333 275.5,154.167 274.5,155C 269.282,156.718 264.282,158.884 259.5,161.5C 264.943,174.053 270.11,186.72 275,199.5C 301.755,196.709 319.422,208.042 328,233.5C 331.183,259.655 320.349,276.821 295.5,285C 268.286,288.15 250.786,276.65 243,250.5C 241.245,240.227 242.911,230.56 248,221.5C 252.16,215.344 256.993,209.844 262.5,205C 259.992,199.465 257.492,193.965 255,188.5C 239.889,207.89 225.389,227.723 211.5,248C 202.274,249.445 192.94,249.945 183.5,249.5C 178.717,272.228 164.717,284.228 141.5,285.5C 120.909,284.946 107.076,274.946 100,255.5C 94.8723,228.657 105.039,210.49 130.5,201C 141.76,198.929 152.593,200.429 163,205.5C 167.798,201.032 172.298,196.199 176.5,191C 173.796,184.426 170.962,177.926 168,171.5C 165.595,170.726 163.095,170.226 160.5,170C 159.069,169.535 157.903,168.701 157,167.5C 155.773,163.409 156.606,159.909 159.5,157C 171.904,156.061 184.238,156.394 196.5,158C 198.993,161.308 199.159,164.808 197,168.5C 192.679,170.007 188.179,171.007 183.5,171.5C 185,175.167 186.5,178.833 188,182.5C 188.893,183.081 189.893,183.415 191,183.5C 209.183,178.664 227.35,173.831 245.5,169C 246.088,165.613 245.255,162.447 243,159.5C 241.11,154.004 242.943,150.504 248.5,149C 254.713,147.099 260.713,144.932 266.5,142.5 Z"/></g>
<g><path style="opacity:1" fill="#060606" d="M 237.5,185.5 C 238.525,185.897 238.692,186.563 238,187.5C 227.756,200.989 217.756,214.656 208,228.5C 203.411,218.242 198.911,207.909 194.5,197.5C 208.824,193.153 223.158,189.153 237.5,185.5 Z"/></g>
<g><path style="opacity:1" fill="#040404" d="M 195.5,235.5 C 182.656,235.829 169.989,235.495 157.5,234.5C 165.811,225.187 174.144,215.853 182.5,206.5C 187.1,216.035 191.434,225.702 195.5,235.5 Z"/></g>
<g><path style="opacity:1" fill="#030303" d="M 139.5,249.5 C 149.167,250.167 158.833,250.833 168.5,251.5C 162.305,267.275 150.638,273.775 133.5,271C 117.023,264.833 110.19,253 113,235.5C 120.176,216.829 133.343,210.329 152.5,216C 152.957,216.414 153.291,216.914 153.5,217.5C 147.145,224.687 140.979,232.02 135,239.5C 133.558,244.277 135.058,247.61 139.5,249.5 Z"/></g>
<g><path style="opacity:1" fill="#030303" d="M 284.5,213.5 C 305.9,216.064 315.733,228.064 314,249.5C 308.424,266.062 296.924,273.228 279.5,271C 260.195,264.468 253.362,251.302 259,231.5C 260.877,227.072 263.71,223.405 267.5,220.5C 272.504,228.965 276.671,237.965 280,247.5C 288.622,251.53 292.622,248.863 292,239.5C 288.691,231.234 285.191,223.068 281.5,215C 282.737,214.768 283.737,214.268 284.5,213.5 Z"/></g>
<g><path style="opacity:1" fill="#818181" d="M 157.5,234.5 C 169.989,235.495 182.656,235.829 195.5,235.5C 182.661,236.825 169.661,236.825 156.5,235.5C 156.624,234.893 156.957,234.56 157.5,234.5 Z"/></g>
<g><path style="opacity:1" fill="#5e5e5e" d="M 139.5,249.5 C 149.522,249.168 159.522,249.501 169.5,250.5C 169.376,251.107 169.043,251.44 168.5,251.5C 158.833,250.833 149.167,250.167 139.5,249.5 Z"/></g>
</svg>
