<?xml version="1.0" encoding="UTF-8"?>
<!DOCTYPE svg PUBLIC "-//W3C//DTD SVG 1.1//EN" "http://www.w3.org/Graphics/SVG/1.1/DTD/svg11.dtd">
<svg xmlns="http://www.w3.org/2000/svg" version="1.1" width="443px" height="548px" style="shape-rendering:geometricPrecision; text-rendering:geometricPrecision; image-rendering:optimizeQuality; fill-rule:evenodd; clip-rule:evenodd" xmlns:xlink="http://www.w3.org/1999/xlink">
<g><path style="opacity:0.998" fill="#feba01" d="M 200.5,-0.5 C 214.167,-0.5 227.833,-0.5 241.5,-0.5C 288.796,4.70181 330.463,22.7018 366.5,53.5C 367.167,54.8333 368.167,55.8333 369.5,56.5C 378.7,64.5357 386.7,72.869 393.5,81.5C 393.833,82.1667 394.167,82.8333 394.5,83.5C 394.833,84.5 395.5,85.1667 396.5,85.5C 396.427,87.0269 397.094,88.0269 398.5,88.5C 399.167,88.5 399.5,88.8333 399.5,89.5C 399.427,91.0269 400.094,92.0269 401.5,92.5C 402.167,93.5 402.833,94.5 403.5,95.5C 403.5,96.8333 404.167,97.5 405.5,97.5C 406.13,99.7071 407.464,101.374 409.5,102.5C 408.761,102.369 408.094,102.536 407.5,103C 408.697,105.015 410.03,106.849 411.5,108.5C 412.167,108.5 412.5,108.833 412.5,109.5C 412.062,109.435 411.728,109.601 411.5,110C 413.052,112.943 414.719,115.777 416.5,118.5C 439.001,165.174 444.501,213.841 433,264.5C 424.323,297.189 409.323,326.522 388,352.5C 332.432,414.645 277.098,476.979 222,539.5C 164.992,476.824 108.325,413.824 52,350.5C -2.14428,279.047 -11.3109,202.047 24.5,119.5C 24.6596,117.847 25.3263,116.514 26.5,115.5C 28.653,113.206 30.3197,110.54 31.5,107.5C 31.5,107.167 31.5,106.833 31.5,106.5C 33.1054,105.994 33.4387,105.327 32.5,104.5C 32.7376,102.596 33.7376,101.262 35.5,100.5C 36.3382,100.158 36.6716,99.4916 36.5,98.5C 37.9063,98.0269 38.573,97.0269 38.5,95.5C 39.9063,95.0269 40.573,94.0269 40.5,92.5C 43.6256,87.8688 46.9589,83.5355 50.5,79.5C 51.5,79.1667 52.1667,78.5 52.5,77.5C 57.7967,70.5356 63.7967,64.2023 70.5,58.5C 71.5,58.1667 72.1667,57.5 72.5,56.5C 108.968,23.9394 151.635,4.93942 200.5,-0.5 Z"/></g>
<g><path style="opacity:0.004" fill="#767676" d="M 366.5,53.5 C 368.5,53.5 369.5,54.5 369.5,56.5C 368.167,55.8333 367.167,54.8333 366.5,53.5 Z"/></g>
<g><path style="opacity:0.004" fill="#3b3b3b" d="M 72.5,56.5 C 72.1667,57.5 71.5,58.1667 70.5,58.5C 70.5,57.1667 71.1667,56.5 72.5,56.5 Z"/></g>
<g><path style="opacity:1" fill="#fffefe" d="M 204.5,59.5 C 271.065,55.6942 321.565,82.0275 356,138.5C 385.596,198.126 381.262,255.126 343,309.5C 298.613,361.405 243.113,379.239 176.5,363C 120.415,344.008 84.9152,305.842 70,248.5C 58.6369,187.588 75.8036,136.422 121.5,95C 145.82,75.2842 173.486,63.4509 204.5,59.5 Z"/></g>
<g><path style="opacity:0.008" fill="#3b3b3b" d="M 52.5,77.5 C 52.1667,78.5 51.5,79.1667 50.5,79.5C 50.5,78.1667 51.1667,77.5 52.5,77.5 Z"/></g>
<g><path style="opacity:0.004" fill="#000000" d="M 393.5,80.5 C 394.833,81.1667 394.833,81.1667 393.5,80.5 Z"/></g>
<g><path style="opacity:0.004" fill="#767676" d="M 394.5,83.5 C 395.833,83.5 396.5,84.1667 396.5,85.5C 395.5,85.1667 394.833,84.5 394.5,83.5 Z"/></g>
<g><path style="opacity:0.006" fill="#303030" d="M 396.5,85.5 C 397.906,85.9731 398.573,86.9731 398.5,88.5C 397.094,88.0269 396.427,87.0269 396.5,85.5 Z"/></g>
<g><path style="opacity:0.006" fill="#303030" d="M 399.5,89.5 C 400.906,89.9731 401.573,90.9731 401.5,92.5C 400.094,92.0269 399.427,91.0269 399.5,89.5 Z"/></g>
<g><path style="opacity:0.005" fill="#000000" d="M 40.5,92.5 C 40.573,94.0269 39.9063,95.0269 38.5,95.5C 38.2852,93.8212 38.9519,92.8212 40.5,92.5 Z"/></g>
<g><path style="opacity:0.008" fill="#000000" d="M 403.5,95.5 C 404.5,95.8333 405.167,96.5 405.5,97.5C 404.167,97.5 403.5,96.8333 403.5,95.5 Z"/></g>
<g><path style="opacity:0.012" fill="#828282" d="M 38.5,95.5 C 38.573,97.0269 37.9063,98.0269 36.5,98.5C 36.427,96.9731 37.0937,95.9731 38.5,95.5 Z"/></g>
<g><path style="opacity:0.004" fill="#505050" d="M 36.5,98.5 C 36.6716,99.4916 36.3382,100.158 35.5,100.5C 33.9689,99.0755 34.3023,98.4088 36.5,98.5 Z"/></g>
<g><path style="opacity:0.008" fill="#000000" d="M 32.5,104.5 C 33.4387,105.327 33.1054,105.994 31.5,106.5C 31.3284,105.508 31.6618,104.842 32.5,104.5 Z"/></g>
<g><path style="opacity:0.007" fill="#131313" d="M 409.5,102.5 C 410.63,104.315 411.296,106.315 411.5,108.5C 410.03,106.849 408.697,105.015 407.5,103C 408.094,102.536 408.761,102.369 409.5,102.5 Z"/></g>
<g><path style="opacity:0.02" fill="#292929" d="M 31.5,107.5 C 30.3197,110.54 28.653,113.206 26.5,115.5C 27.1954,112.085 28.8621,109.418 31.5,107.5 Z"/></g>
<g><path style="opacity:0.008" fill="#6c6c6c" d="M 412.5,109.5 C 414.924,112.008 416.59,115.008 417.5,118.5C 417.167,118.5 416.833,118.5 416.5,118.5C 414.719,115.777 413.052,112.943 411.5,110C 411.728,109.601 412.062,109.435 412.5,109.5 Z"/></g>
<g><path style="opacity:0.1" fill="#151412" d="M 416.5,118.5 C 416.833,118.5 417.167,118.5 417.5,118.5C 432.937,147.406 441.27,178.072 442.5,210.5C 442.5,210.833 442.5,211.167 442.5,211.5C 441.167,211.833 441.167,212.167 442.5,212.5C 442.5,216.833 442.5,221.167 442.5,225.5C 441.245,249.738 436.579,273.071 428.5,295.5C 426.576,295.711 426.243,296.377 427.5,297.5C 426.645,300.282 425.312,303.282 423.5,306.5C 412.52,330.637 397.853,352.303 379.5,371.5C 379.565,371.062 379.399,370.728 379,370.5C 378.167,371.333 377.333,372.167 376.5,373C 376.728,373.399 377.062,373.565 377.5,373.5C 363.228,389.98 348.395,406.647 333,423.5C 332.517,424.448 332.351,425.448 332.5,426.5C 331.209,426.263 330.209,426.596 329.5,427.5C 328.732,428.263 328.232,429.263 328,430.5C 327.329,431.252 326.496,431.586 325.5,431.5C 323.952,431.821 323.285,432.821 323.5,434.5C 290.764,472.148 258.43,508.814 226.5,544.5C 223.526,546.566 220.526,546.732 217.5,545C 210.985,537.652 204.652,530.152 198.5,522.5C 198.027,521.094 197.027,520.427 195.5,520.5C 191.531,516.023 187.698,511.356 184,506.5C 178.437,501.698 173.937,496.698 170.5,491.5C 169.994,489.895 169.327,489.561 168.5,490.5C 159.96,481.141 151.627,471.474 143.5,461.5C 142.729,458.668 142.062,458.335 141.5,460.5C 112.863,428.358 84.3626,396.025 56,363.5C 55.6667,363.833 55.3333,364.167 55,364.5C 47.6695,354.502 40.3362,344.502 33,334.5C 29.1983,327.055 25.0317,319.889 20.5,313C 20.8333,312.667 21.1667,312.333 21.5,312C 19.7964,309.763 18.7964,307.263 18.5,304.5C 18.573,302.973 17.9063,301.973 16.5,301.5C 8.91214,283.979 4.24548,265.813 2.5,247C 1.22016,240.105 0.220159,233.272 -0.5,226.5C -0.5,225.5 -0.5,224.5 -0.5,223.5C 0.833333,223.167 0.833333,222.833 -0.5,222.5C -0.5,219.5 -0.5,216.5 -0.5,213.5C 0.833333,212.5 0.833333,211.5 -0.5,210.5C -0.5,210.167 -0.5,209.833 -0.5,209.5C 0.999755,193.492 3.49976,177.492 7,161.5C 10.224,151.474 13.5573,141.808 17,132.5C 19.2271,127.956 21.7271,123.623 24.5,119.5C -11.3109,202.047 -2.14428,279.047 52,350.5C 108.325,413.824 164.992,476.824 222,539.5C 277.098,476.979 332.432,414.645 388,352.5C 409.323,326.522 424.323,297.189 433,264.5C 444.501,213.841 439.001,165.174 416.5,118.5 Z"/></g>
<g><path style="opacity:1" fill="#ffbc09" d="M 200.5,220.5 C 205.881,225.566 211.047,230.899 216,236.5C 203.093,253.095 188.927,268.928 173.5,284C 167.339,288.167 161.006,288.501 154.5,285C 149.102,277.438 149.269,269.938 155,262.5C 169.736,247.926 184.903,233.926 200.5,220.5 Z"/></g>
<g><path style="opacity:1" fill="#ffbb06" d="M 162.5,142.5 C 187.676,143.171 204.176,155.504 212,179.5C 212.333,184.5 212.667,189.5 213,194.5C 213.471,196.246 214.138,197.913 215,199.5C 238.968,221.133 262.634,243.133 286,265.5C 289.876,272.323 289.043,278.49 283.5,284C 278.686,286.893 273.686,287.226 268.5,285C 245.139,261.573 222.473,237.573 200.5,213C 191.096,211.403 181.763,209.403 172.5,207C 153.107,197.044 143.941,181.21 145,159.5C 148.118,150.88 153.951,145.213 162.5,142.5 Z"/></g>
<g><path style="opacity:1" fill="#ffbc0b" d="M 258.5,140.5 C 266.885,139.716 270.051,143.383 268,151.5C 261,158.5 254,165.5 247,172.5C 246.364,175.522 247.53,177.022 250.5,177C 257.864,169.302 265.53,161.969 273.5,155C 280.667,154.167 283.833,157.333 283,164.5C 279.297,167.867 275.964,171.534 273,175.5C 267.978,179.022 263.811,183.355 260.5,188.5C 261.427,190.946 263.094,191.779 265.5,191C 272.5,184 279.5,177 286.5,170C 294.169,167.668 297.669,170.502 297,178.5C 286.53,189.971 275.697,201.137 264.5,212C 256.133,215.912 247.466,216.578 238.5,214C 233.017,209.351 227.684,204.518 222.5,199.5C 222.703,192.894 222.87,186.227 223,179.5C 224,177.5 225,175.5 226,173.5C 237.035,162.632 247.869,151.632 258.5,140.5 Z"/></g>
<g><path style="opacity:0.004" fill="#acacac" d="M 428.5,295.5 C 428.672,296.492 428.338,297.158 427.5,297.5C 426.243,296.377 426.576,295.711 428.5,295.5 Z"/></g>
<g><path style="opacity:0.008" fill="#a8a8a8" d="M 16.5,301.5 C 17.9063,301.973 18.573,302.973 18.5,304.5C 17.0937,304.027 16.427,303.027 16.5,301.5 Z"/></g>
<g><path style="opacity:0.004" fill="#000000" d="M 423.5,306.5 C 424.833,307.167 424.833,307.167 423.5,306.5 Z"/></g>
<g><path style="opacity:0.004" fill="#cacaca" d="M 379.5,371.5 C 379.167,372.5 378.5,373.167 377.5,373.5C 377.062,373.565 376.728,373.399 376.5,373C 377.333,372.167 378.167,371.333 379,370.5C 379.399,370.728 379.565,371.062 379.5,371.5 Z"/></g>
<g><path style="opacity:0.004" fill="#000000" d="M 329.5,427.5 C 330.833,428.167 330.833,428.167 329.5,427.5 Z"/></g>
<g><path style="opacity:0.012" fill="#989898" d="M 325.5,431.5 C 325.573,433.027 324.906,434.027 323.5,434.5C 323.285,432.821 323.952,431.821 325.5,431.5 Z"/></g>
<g><path style="opacity:0.004" fill="#e4e4e4" d="M 143.5,461.5 C 142.508,461.672 141.842,461.338 141.5,460.5C 142.062,458.335 142.729,458.668 143.5,461.5 Z"/></g>
<g><path style="opacity:0.004" fill="#fefffe" d="M 170.5,491.5 C 169.508,491.672 168.842,491.338 168.5,490.5C 169.327,489.561 169.994,489.895 170.5,491.5 Z"/></g>
<g><path style="opacity:0.004" fill="#fefffe" d="M 195.5,520.5 C 197.027,520.427 198.027,521.094 198.5,522.5C 196.973,522.573 195.973,521.906 195.5,520.5 Z"/></g>
</svg>
