<?xml version="1.0" encoding="UTF-8"?>
<!DOCTYPE svg PUBLIC "-//W3C//DTD SVG 1.1//EN" "http://www.w3.org/Graphics/SVG/1.1/DTD/svg11.dtd">
<svg xmlns="http://www.w3.org/2000/svg" version="1.1" width="444px" height="548px" style="shape-rendering:geometricPrecision; text-rendering:geometricPrecision; image-rendering:optimizeQuality; fill-rule:evenodd; clip-rule:evenodd" xmlns:xlink="http://www.w3.org/1999/xlink">
<g><path style="opacity:0.999" fill="#8a4513" d="M 201.5,-0.5 C 215.167,-0.5 228.833,-0.5 242.5,-0.5C 306.729,7.24814 358.396,36.0815 397.5,86C 398.973,86.7096 399.64,87.8762 399.5,89.5C 400.167,90.8333 401.167,91.8333 402.5,92.5C 404.218,94.2228 405.551,96.2228 406.5,98.5C 408.332,102.836 410.665,106.836 413.5,110.5C 415.186,115.89 417.853,120.557 421.5,124.5C 421.389,125.117 421.056,125.617 420.5,126C 439.744,168.864 444.577,213.364 435,259.5C 426.729,294.708 411.063,326.041 388,353.5C 334.295,413.536 280.962,473.87 228,534.5C 226.148,538.077 223.482,539.077 220,537.5C 164.333,475.167 108.667,412.833 53,350.5C 3.82412,287.102 -8.34255,217.102 16.5,140.5C 18.8742,135.723 20.8742,130.723 22.5,125.5C 20.9689,124.075 21.3023,123.409 23.5,123.5C 25.2663,120.812 26.933,117.979 28.5,115C 28.2716,114.601 27.9382,114.435 27.5,114.5C 27.9321,113.29 28.5987,112.29 29.5,111.5C 30.9063,111.027 31.573,110.027 31.5,108.5C 32.3971,105.787 33.7304,103.454 35.5,101.5C 36.9063,101.027 37.573,100.027 37.5,98.5C 40.0583,94.2369 42.7249,89.9035 45.5,85.5C 45.9569,84.7025 46.6236,84.3691 47.5,84.5C 49.0627,83.0552 50.396,81.3885 51.5,79.5C 90.0645,33.1934 140.065,6.52678 201.5,-0.5 Z"/></g>
<g><path style="opacity:1" fill="#fefefe" d="M 212.5,58.5 C 282.876,58.2509 333.376,89.5842 364,152.5C 385.878,210.484 378.212,264.151 341,313.5C 297.5,361.441 244,378.275 180.5,364C 126.402,346.902 90.569,311.402 73,257.5C 57.2664,192.713 74.0997,138.213 123.5,94C 149.542,73.0424 179.209,61.209 212.5,58.5 Z"/></g>
<g><path style="opacity:0.006" fill="#141414" d="M 51.5,79.5 C 50.396,81.3885 49.0627,83.0552 47.5,84.5C 47.6696,81.796 49.0029,80.1293 51.5,79.5 Z"/></g>
<g><path style="opacity:0.004" fill="#0c0c0c" d="M 399.5,89.5 C 401.5,89.5 402.5,90.5 402.5,92.5C 401.167,91.8333 400.167,90.8333 399.5,89.5 Z"/></g>
<g><path style="opacity:0.01" fill="#303030" d="M 37.5,98.5 C 37.573,100.027 36.9063,101.027 35.5,101.5C 35.427,99.9731 36.0937,98.9731 37.5,98.5 Z"/></g>
<g><path style="opacity:0.004" fill="#3b3b3b" d="M 406.5,98.5 C 409.858,101.879 412.191,105.879 413.5,110.5C 410.665,106.836 408.332,102.836 406.5,98.5 Z"/></g>
<g><path style="opacity:0.01" fill="#000000" d="M 31.5,108.5 C 31.573,110.027 30.9063,111.027 29.5,111.5C 29.427,109.973 30.0937,108.973 31.5,108.5 Z"/></g>
<g><path style="opacity:0.013" fill="#2d2d2d" d="M 413.5,110.5 C 416.669,114.833 419.336,119.5 421.5,124.5C 417.853,120.557 415.186,115.89 413.5,110.5 Z"/></g>
<g><path style="opacity:0.006" fill="#262626" d="M 27.5,114.5 C 27.9382,114.435 28.2716,114.601 28.5,115C 26.933,117.979 25.2663,120.812 23.5,123.5C 24.0421,120.088 25.3754,117.088 27.5,114.5 Z"/></g>
<g><path style="opacity:1" fill="#8d4717" d="M 194.5,121.5 C 202.709,120.872 206.209,124.539 205,132.5C 195.817,141.865 196.484,150.532 207,158.5C 212.281,164.892 214.281,172.225 213,180.5C 208.625,185.381 203.958,185.715 199,181.5C 197.873,178.623 197.206,175.623 197,172.5C 193.333,168.167 189.667,163.833 186,159.5C 178.744,144.528 181.577,131.862 194.5,121.5 Z"/></g>
<g><path style="opacity:1" fill="#8c4716" d="M 231.5,121.5 C 239.709,120.872 243.209,124.539 242,132.5C 238.459,136.25 235.959,140.583 234.5,145.5C 236.28,150.789 239.446,155.123 244,158.5C 249.511,164.86 251.511,172.194 250,180.5C 245.7,185.446 241.033,185.779 236,181.5C 234.61,173.405 230.61,166.739 224,161.5C 222.139,159.112 220.806,156.446 220,153.5C 216.85,140.166 220.683,129.499 231.5,121.5 Z"/></g>
<g><path style="opacity:0.013" fill="#393939" d="M 22.5,125.5 C 20.8742,130.723 18.8742,135.723 16.5,140.5C 16.5,139.5 16.5,138.5 16.5,137.5C 17.2886,133.253 19.2886,129.253 22.5,125.5 Z"/></g>
<g><path style="opacity:0.008" fill="#c4c4c4" d="M 16.5,137.5 C 16.5,138.5 16.5,139.5 16.5,140.5C 15.8333,140.5 15.1667,140.5 14.5,140.5C 14.9321,139.29 15.5987,138.29 16.5,137.5 Z"/></g>
<g><path style="opacity:0.008" fill="#7f7f7f" d="M 431.5,287.5 C 431.938,287.435 432.272,287.601 432.5,288C 431.695,289.113 431.028,290.279 430.5,291.5C 429.529,290.038 429.862,288.705 431.5,287.5 Z"/></g>
<g><path style="opacity:0.004" fill="#e4e4e4" d="M 425.5,302.5 C 426.815,303.895 426.481,304.895 424.5,305.5C 424.263,304.209 424.596,303.209 425.5,302.5 Z"/></g>
<g><path style="opacity:0.102" fill="#141312" d="M 421.5,124.5 C 430.271,141.417 435.937,158.917 438.5,177C 439.191,178.067 439.691,179.234 440,180.5C 441.604,192.278 442.771,203.945 443.5,215.5C 443.5,217.167 443.5,218.833 443.5,220.5C 443.237,233.08 441.571,245.58 438.5,258C 437.908,268.099 435.575,277.932 431.5,287.5C 429.862,288.705 429.529,290.038 430.5,291.5C 429.972,292.721 429.305,293.887 428.5,295C 429.271,296.998 428.605,298.665 426.5,300C 427.566,301.159 427.233,301.992 425.5,302.5C 424.596,303.209 424.263,304.209 424.5,305.5C 420.411,316.282 415.077,326.282 408.5,335.5C 407.094,335.973 406.427,336.973 406.5,338.5C 397.745,352.235 387.411,364.735 375.5,376C 367.262,387.044 357.929,397.711 347.5,408C 348.712,409.107 348.379,409.607 346.5,409.5C 346.12,408.867 345.787,408.2 345.5,407.5C 344.438,409.022 343.771,410.688 343.5,412.5C 320.903,439.433 297.57,465.767 273.5,491.5C 272.74,493.36 271.74,495.027 270.5,496.5C 268.591,495.321 268.258,495.654 269.5,497.5C 255.382,512.483 241.382,528.15 227.5,544.5C 224.811,546.459 222.144,546.625 219.5,545C 212.792,538.337 206.459,531.503 200.5,524.5C 200.5,522.5 199.5,521.5 197.5,521.5C 197.573,519.973 196.906,518.973 195.5,518.5C 167.656,487.893 140.656,457.726 114.5,428C 94.2229,406.041 74.2229,383.874 54.5,361.5C 52.9263,360.016 51.593,358.349 50.5,356.5C 50.7148,354.821 50.0481,353.821 48.5,353.5C 5.11761,298.346 -8.71572,235.679 7,165.5C 9.35129,157.089 11.8513,148.755 14.5,140.5C 15.1667,140.5 15.8333,140.5 16.5,140.5C -8.34255,217.102 3.82412,287.102 53,350.5C 108.667,412.833 164.333,475.167 220,537.5C 223.482,539.077 226.148,538.077 228,534.5C 280.962,473.87 334.295,413.536 388,353.5C 411.063,326.041 426.729,294.708 435,259.5C 444.577,213.364 439.744,168.864 420.5,126C 421.056,125.617 421.389,125.117 421.5,124.5 Z"/></g>
<g><path style="opacity:1" fill="#8b4513" d="M 160.5,200.5 C 201.835,200.333 243.168,200.5 284.5,201C 305.555,207.438 312.722,221.272 306,242.5C 298.301,254.766 287.135,260.266 272.5,259C 268.738,266.244 264.072,272.744 258.5,278.5C 265.247,279.075 271.914,279.909 278.5,281C 283.986,286.081 283.653,290.748 277.5,295C 236.5,295.667 195.5,295.667 154.5,295C 149.554,290.7 149.221,286.033 153.5,281C 160.394,279.74 167.394,279.074 174.5,279C 164.152,268.66 157.986,256.16 156,241.5C 155.333,229.5 155.333,217.5 156,205.5C 157.025,203.313 158.525,201.646 160.5,200.5 Z"/></g>
<g><path style="opacity:1" fill="#fcfaf9" d="M 277.5,216.5 C 288.675,216.838 293.509,222.505 292,233.5C 289.073,240.218 283.906,243.218 276.5,242.5C 277.411,233.874 277.745,225.208 277.5,216.5 Z"/></g>
<g><path style="opacity:0.004" fill="#e4e4e4" d="M 408.5,335.5 C 408.573,337.027 407.906,338.027 406.5,338.5C 406.427,336.973 407.094,335.973 408.5,335.5 Z"/></g>
<g><path style="opacity:0.02" fill="#8e8e8e" d="M 48.5,353.5 C 50.0481,353.821 50.7148,354.821 50.5,356.5C 49.5987,355.71 48.9321,354.71 48.5,353.5 Z"/></g>
<g><path style="opacity:0.004" fill="#fefffe" d="M 54.5,361.5 C 53.8333,362.167 53.8333,362.167 54.5,361.5 Z"/></g>
<g><path style="opacity:0.024" fill="#5f5f5f" d="M 346.5,409.5 C 345.833,410.833 344.833,411.833 343.5,412.5C 343.771,410.688 344.438,409.022 345.5,407.5C 345.787,408.2 346.12,408.867 346.5,409.5 Z"/></g>
<g><path style="opacity:0.004" fill="#dddddd" d="M 270.5,496.5 C 270.5,497.167 270.167,497.5 269.5,497.5C 268.258,495.654 268.591,495.321 270.5,496.5 Z"/></g>
<g><path style="opacity:0.004" fill="#fefffe" d="M 195.5,518.5 C 196.906,518.973 197.573,519.973 197.5,521.5C 196.094,521.027 195.427,520.027 195.5,518.5 Z"/></g>
<g><path style="opacity:0.012" fill="#a5a5a5" d="M 197.5,521.5 C 199.5,521.5 200.5,522.5 200.5,524.5C 199.167,523.833 198.167,522.833 197.5,521.5 Z"/></g>
</svg>
