<?xml version="1.0" encoding="UTF-8"?>
<!DOCTYPE svg PUBLIC "-//W3C//DTD SVG 1.1//EN" "http://www.w3.org/Graphics/SVG/1.1/DTD/svg11.dtd">
<svg xmlns="http://www.w3.org/2000/svg" version="1.1" width="443px" height="548px" style="shape-rendering:geometricPrecision; text-rendering:geometricPrecision; image-rendering:optimizeQuality; fill-rule:evenodd; clip-rule:evenodd" xmlns:xlink="http://www.w3.org/1999/xlink">
<g><path style="opacity:0.997" fill="#4f4f4f" d="M 200.5,-0.5 C 214.167,-0.5 227.833,-0.5 241.5,-0.5C 303.757,7.26429 354.423,34.5976 393.5,81.5C 406.78,96.9135 417.113,114.247 424.5,133.5C 423.957,133.56 423.624,133.893 423.5,134.5C 426.397,142.255 429.064,150.088 431.5,158C 432.371,159.364 433.371,160.53 434.5,161.5C 435.434,162.568 435.768,163.901 435.5,165.5C 434.105,163.946 433.439,164.279 433.5,166.5C 447.748,235.881 432.581,297.881 388,352.5C 334.295,412.536 280.962,472.87 228,533.5C 226.281,535.557 224.281,537.224 222,538.5C 218.38,535.883 215.047,532.883 212,529.5C 159.037,469.535 105.704,409.869 52,350.5C 6.33553,292.017 -7.16447,226.684 11.5,154.5C 11.4573,153.584 11.1239,152.917 10.5,152.5C 31.035,89.0702 72.7016,43.5702 135.5,16C 156.533,7.49207 178.2,1.99207 200.5,-0.5 Z"/></g>
<g><path style="opacity:1" fill="#fefefe" d="M 209.5,58.5 C 281.688,57.6569 333.188,89.6569 364,154.5C 384.797,211.923 376.797,264.923 340,313.5C 296.484,361.447 242.984,378.28 179.5,364C 126.19,347.357 90.6895,312.523 73,259.5C 55.9678,194.097 72.4678,138.93 122.5,94C 148.111,73.8522 177.111,62.0189 209.5,58.5 Z"/></g>
<g><path style="opacity:0.004" fill="#000000" d="M 393.5,80.5 C 394.833,81.1667 394.833,81.1667 393.5,80.5 Z"/></g>
<g><path style="opacity:0.014" fill="#161616" d="M 424.5,133.5 C 426.811,138.369 428.978,143.369 431,148.5C 432.327,152.809 433.494,157.142 434.5,161.5C 433.371,160.53 432.371,159.364 431.5,158C 429.064,150.088 426.397,142.255 423.5,134.5C 423.624,133.893 423.957,133.56 424.5,133.5 Z"/></g>
<g><path style="opacity:0.1" fill="#121212" d="M 10.5,152.5 C 11.1239,152.917 11.4573,153.584 11.5,154.5C -7.16447,226.684 6.33553,292.017 52,350.5C 105.704,409.869 159.037,469.535 212,529.5C 215.047,532.883 218.38,535.883 222,538.5C 224.281,537.224 226.281,535.557 228,533.5C 280.962,472.87 334.295,412.536 388,352.5C 432.581,297.881 447.748,235.881 433.5,166.5C 433.439,164.279 434.105,163.946 435.5,165.5C 439.281,180.665 441.614,195.665 442.5,210.5C 442.5,210.833 442.5,211.167 442.5,211.5C 441.167,211.833 441.167,212.167 442.5,212.5C 442.5,216.833 442.5,221.167 442.5,225.5C 441.245,249.738 436.579,273.071 428.5,295.5C 426.576,295.711 426.243,296.377 427.5,297.5C 426.645,300.282 425.312,303.282 423.5,306.5C 412.52,330.637 397.853,352.303 379.5,371.5C 379.565,371.062 379.399,370.728 379,370.5C 378.167,371.333 377.333,372.167 376.5,373C 376.728,373.399 377.062,373.565 377.5,373.5C 363.228,389.98 348.395,406.647 333,423.5C 332.517,424.448 332.351,425.448 332.5,426.5C 331.209,426.263 330.209,426.596 329.5,427.5C 328.662,427.842 328.328,428.508 328.5,429.5C 326.883,430.038 325.216,430.371 323.5,430.5C 323.5,431.833 323.5,433.167 323.5,434.5C 294.419,468.493 265.419,501.16 236.5,532.5C 235.922,531.453 235.256,531.62 234.5,533C 235.056,533.383 235.389,533.883 235.5,534.5C 232.708,538.46 229.375,541.96 225.5,545C 221.939,547.303 218.939,546.803 216.5,543.5C 217.016,542.242 216.35,541.242 214.5,540.5C 213.504,540.586 212.671,540.252 212,539.5C 207.612,533.728 203.112,528.062 198.5,522.5C 198.027,521.094 197.027,520.427 195.5,520.5C 187.511,510.513 179.178,500.847 170.5,491.5C 169.994,489.895 169.327,489.561 168.5,490.5C 159.96,481.141 151.627,471.474 143.5,461.5C 142.729,458.668 142.062,458.335 141.5,460.5C 112.863,428.358 84.3626,396.025 56,363.5C 55.6667,363.833 55.3333,364.167 55,364.5C 50.7014,358.033 46.2014,351.7 41.5,345.5C 41.631,344.761 41.4643,344.094 41,343.5C 40.31,342.262 39.81,342.262 39.5,343.5C 37.8989,340.876 36.2322,338.21 34.5,335.5C 34.9382,335.565 35.2716,335.399 35.5,335C 34.8971,332.929 33.5638,331.762 31.5,331.5C 28.482,324.944 24.8154,318.777 20.5,313C 20.8333,312.667 21.1667,312.333 21.5,312C 19.7964,309.763 18.7964,307.263 18.5,304.5C 18.573,302.973 17.9063,301.973 16.5,301.5C 6.93314,277.316 1.26647,252.316 -0.5,226.5C -0.5,225.5 -0.5,224.5 -0.5,223.5C 0.833333,223.167 0.833333,222.833 -0.5,222.5C -0.5,219.5 -0.5,216.5 -0.5,213.5C 0.833333,212.5 0.833333,211.5 -0.5,210.5C -0.5,210.167 -0.5,209.833 -0.5,209.5C 0.654537,198.272 2.15454,186.939 4,175.5C 5.11385,167.356 7.28052,159.689 10.5,152.5 Z"/></g>
<g><path style="opacity:0.004" fill="#acacac" d="M 428.5,295.5 C 428.672,296.492 428.338,297.158 427.5,297.5C 426.243,296.377 426.576,295.711 428.5,295.5 Z"/></g>
<g><path style="opacity:0.008" fill="#a8a8a8" d="M 16.5,301.5 C 17.9063,301.973 18.573,302.973 18.5,304.5C 17.0937,304.027 16.427,303.027 16.5,301.5 Z"/></g>
<g><path style="opacity:0.004" fill="#000000" d="M 423.5,306.5 C 424.833,307.167 424.833,307.167 423.5,306.5 Z"/></g>
<g><path style="opacity:0.008" fill="#5c5c5c" d="M 31.5,331.5 C 33.5638,331.762 34.8971,332.929 35.5,335C 35.2716,335.399 34.9382,335.565 34.5,335.5C 33.0256,334.564 32.0256,333.23 31.5,331.5 Z"/></g>
<g><path style="opacity:0.004" fill="#cacaca" d="M 41.5,345.5 C 40.5,345.167 39.8333,344.5 39.5,343.5C 39.81,342.262 40.31,342.262 41,343.5C 41.4643,344.094 41.631,344.761 41.5,345.5 Z"/></g>
<g><path style="opacity:0.004" fill="#cacaca" d="M 379.5,371.5 C 379.167,372.5 378.5,373.167 377.5,373.5C 377.062,373.565 376.728,373.399 376.5,373C 377.333,372.167 378.167,371.333 379,370.5C 379.399,370.728 379.565,371.062 379.5,371.5 Z"/></g>
<g><path style="opacity:0.004" fill="#000000" d="M 329.5,427.5 C 330.833,428.167 330.833,428.167 329.5,427.5 Z"/></g>
<g><path style="opacity:0.02" fill="#7b7b7b" d="M 328.5,429.5 C 326.833,431.167 325.167,432.833 323.5,434.5C 323.5,433.167 323.5,431.833 323.5,430.5C 325.216,430.371 326.883,430.038 328.5,429.5 Z"/></g>
<g><path style="opacity:0.004" fill="#e4e4e4" d="M 143.5,461.5 C 142.508,461.672 141.842,461.338 141.5,460.5C 142.062,458.335 142.729,458.668 143.5,461.5 Z"/></g>
<g><path style="opacity:0.004" fill="#fefffe" d="M 170.5,491.5 C 169.508,491.672 168.842,491.338 168.5,490.5C 169.327,489.561 169.994,489.895 170.5,491.5 Z"/></g>
<g><path style="opacity:0.004" fill="#fefffe" d="M 195.5,520.5 C 197.027,520.427 198.027,521.094 198.5,522.5C 196.973,522.573 195.973,521.906 195.5,520.5 Z"/></g>
<g><path style="opacity:0.008" fill="#818181" d="M 236.5,532.5 C 236.672,533.492 236.338,534.158 235.5,534.5C 235.389,533.883 235.056,533.383 234.5,533C 235.256,531.62 235.922,531.453 236.5,532.5 Z"/></g>
<g><path style="opacity:0.008" fill="#909090" d="M 214.5,540.5 C 216.35,541.242 217.016,542.242 216.5,543.5C 215.094,543.027 214.427,542.027 214.5,540.5 Z"/></g>
</svg>
