<?xml version="1.0" encoding="UTF-8"?>
<!DOCTYPE svg PUBLIC "-//W3C//DTD SVG 1.1//EN" "http://www.w3.org/Graphics/SVG/1.1/DTD/svg11.dtd">
<svg xmlns="http://www.w3.org/2000/svg" version="1.1" width="443px" height="548px" style="shape-rendering:geometricPrecision; text-rendering:geometricPrecision; image-rendering:optimizeQuality; fill-rule:evenodd; clip-rule:evenodd" xmlns:xlink="http://www.w3.org/1999/xlink">
<g><path style="opacity:0.999" fill="#0144cb" d="M 200.5,-0.5 C 214.167,-0.5 227.833,-0.5 241.5,-0.5C 289.007,4.92716 331.007,22.9272 367.5,53.5C 367.427,55.0269 368.094,56.0269 369.5,56.5C 377.572,63.5536 384.572,70.887 390.5,78.5C 390.833,79.5 391.5,80.1667 392.5,80.5C 392.5,81.1667 392.833,81.5 393.5,81.5C 394.789,82.6366 395.789,83.9699 396.5,85.5C 396.427,87.0269 397.094,88.0269 398.5,88.5C 399.167,88.5 399.5,88.8333 399.5,89.5C 399.427,91.0269 400.094,92.0269 401.5,92.5C 402.167,93.5 402.833,94.5 403.5,95.5C 404.11,97.4341 405.11,99.1007 406.5,100.5C 407.167,100.5 407.5,100.833 407.5,101.5C 408.079,104.331 409.412,106.664 411.5,108.5C 412.642,112.117 414.308,115.45 416.5,118.5C 439.637,166.572 444.804,216.572 432,268.5C 423.081,299.677 408.415,327.677 388,352.5C 332.432,414.645 277.098,476.979 222,539.5C 164.992,476.824 108.325,413.824 52,350.5C -2.14398,279.05 -11.3107,202.05 24.5,119.5C 24.6596,117.847 25.3263,116.514 26.5,115.5C 28.653,113.206 30.3197,110.54 31.5,107.5C 31.5,107.167 31.5,106.833 31.5,106.5C 33.3264,104.853 34.6597,102.853 35.5,100.5C 36.3382,100.158 36.6716,99.4916 36.5,98.5C 37.9063,98.0269 38.573,97.0269 38.5,95.5C 39.9063,95.0269 40.573,94.0269 40.5,92.5C 43.1667,88.8333 45.8333,85.1667 48.5,81.5C 49.5,81.1667 50.1667,80.5 50.5,79.5C 51.5,79.1667 52.1667,78.5 52.5,77.5C 53.1237,75.246 54.457,73.5794 56.5,72.5C 57.5,72.1667 58.1667,71.5 58.5,70.5C 61.8333,65.8333 65.8333,61.8333 70.5,58.5C 71.5,58.1667 72.1667,57.5 72.5,56.5C 108.968,23.9394 151.635,4.93942 200.5,-0.5 Z"/></g>
<g><path style="opacity:0.004" fill="#5e5e5e" d="M 367.5,53.5 C 368.906,53.9731 369.573,54.9731 369.5,56.5C 368.094,56.0269 367.427,55.0269 367.5,53.5 Z"/></g>
<g><path style="opacity:0.004" fill="#3b3b3b" d="M 72.5,56.5 C 72.1667,57.5 71.5,58.1667 70.5,58.5C 70.5,57.1667 71.1667,56.5 72.5,56.5 Z"/></g>
<g><path style="opacity:1" fill="#fdfefe" d="M 200.5,59.5 C 267.648,54.491 319.148,80.1577 355,136.5C 380.843,185.122 382.176,234.455 359,284.5C 325.618,343.455 274.784,371.622 206.5,369C 139.749,359.578 95.2485,323.078 73,259.5C 55.9598,194.135 72.4598,138.969 122.5,94C 145.528,75.6502 171.528,64.1502 200.5,59.5 Z"/></g>
<g><path style="opacity:0.004" fill="#3b3b3b" d="M 58.5,70.5 C 58.1667,71.5 57.5,72.1667 56.5,72.5C 56.5,71.1667 57.1667,70.5 58.5,70.5 Z"/></g>
<g><path style="opacity:0.008" fill="#3b3b3b" d="M 52.5,77.5 C 52.1667,78.5 51.5,79.1667 50.5,79.5C 50.5,78.1667 51.1667,77.5 52.5,77.5 Z"/></g>
<g><path style="opacity:0.004" fill="#3b3b3b" d="M 390.5,78.5 C 391.833,78.5 392.5,79.1667 392.5,80.5C 391.5,80.1667 390.833,79.5 390.5,78.5 Z"/></g>
<g><path style="opacity:0.004" fill="#3b3b3b" d="M 50.5,79.5 C 50.1667,80.5 49.5,81.1667 48.5,81.5C 48.5,80.1667 49.1667,79.5 50.5,79.5 Z"/></g>
<g><path style="opacity:0.004" fill="#000000" d="M 393.5,80.5 C 394.833,81.1667 394.833,81.1667 393.5,80.5 Z"/></g>
<g><path style="opacity:0.006" fill="#303030" d="M 396.5,85.5 C 397.906,85.9731 398.573,86.9731 398.5,88.5C 397.094,88.0269 396.427,87.0269 396.5,85.5 Z"/></g>
<g><path style="opacity:0.006" fill="#303030" d="M 399.5,89.5 C 400.906,89.9731 401.573,90.9731 401.5,92.5C 400.094,92.0269 399.427,91.0269 399.5,89.5 Z"/></g>
<g><path style="opacity:0.005" fill="#000000" d="M 40.5,92.5 C 40.573,94.0269 39.9063,95.0269 38.5,95.5C 38.2852,93.8212 38.9519,92.8212 40.5,92.5 Z"/></g>
<g><path style="opacity:0.008" fill="#2d2d2d" d="M 403.5,95.5 C 405.727,96.4006 406.727,98.0672 406.5,100.5C 405.11,99.1007 404.11,97.4341 403.5,95.5 Z"/></g>
<g><path style="opacity:0.012" fill="#828282" d="M 38.5,95.5 C 38.573,97.0269 37.9063,98.0269 36.5,98.5C 36.427,96.9731 37.0937,95.9731 38.5,95.5 Z"/></g>
<g><path style="opacity:0.004" fill="#505050" d="M 36.5,98.5 C 36.6716,99.4916 36.3382,100.158 35.5,100.5C 33.9689,99.0755 34.3023,98.4088 36.5,98.5 Z"/></g>
<g><path style="opacity:0.008" fill="#363543" d="M 35.5,100.5 C 34.6597,102.853 33.3264,104.853 31.5,106.5C 31.8449,103.802 33.1782,101.802 35.5,100.5 Z"/></g>
<g><path style="opacity:0.007" fill="#313131" d="M 407.5,101.5 C 409.093,102.348 410.26,103.681 411,105.5C 411.483,106.448 411.649,107.448 411.5,108.5C 409.412,106.664 408.079,104.331 407.5,101.5 Z"/></g>
<g><path style="opacity:0.02" fill="#292929" d="M 31.5,107.5 C 30.3197,110.54 28.653,113.206 26.5,115.5C 27.1954,112.085 28.8621,109.418 31.5,107.5 Z"/></g>
<g><path style="opacity:0.008" fill="#696969" d="M 411.5,108.5 C 414.502,111.161 416.502,114.495 417.5,118.5C 417.167,118.5 416.833,118.5 416.5,118.5C 414.308,115.45 412.642,112.117 411.5,108.5 Z"/></g>
<g><path style="opacity:0.1" fill="#131314" d="M 416.5,118.5 C 416.833,118.5 417.167,118.5 417.5,118.5C 432.937,147.406 441.27,178.072 442.5,210.5C 442.5,210.833 442.5,211.167 442.5,211.5C 441.167,211.833 441.167,212.167 442.5,212.5C 442.5,216.833 442.5,221.167 442.5,225.5C 441.245,249.738 436.579,273.071 428.5,295.5C 426.576,295.711 426.243,296.377 427.5,297.5C 426.645,300.282 425.312,303.282 423.5,306.5C 412.52,330.637 397.853,352.303 379.5,371.5C 379.565,371.062 379.399,370.728 379,370.5C 378.167,371.333 377.333,372.167 376.5,373C 376.728,373.399 377.062,373.565 377.5,373.5C 363.228,389.98 348.395,406.647 333,423.5C 332.517,424.448 332.351,425.448 332.5,426.5C 331.209,426.263 330.209,426.596 329.5,427.5C 328.732,428.263 328.232,429.263 328,430.5C 327.329,431.252 326.496,431.586 325.5,431.5C 323.952,431.821 323.285,432.821 323.5,434.5C 290.764,472.148 258.43,508.814 226.5,544.5C 223.526,546.566 220.526,546.732 217.5,545C 210.985,537.652 204.652,530.152 198.5,522.5C 198.027,521.094 197.027,520.427 195.5,520.5C 191.531,516.023 187.698,511.356 184,506.5C 178.437,501.698 173.937,496.698 170.5,491.5C 169.994,489.895 169.327,489.561 168.5,490.5C 159.96,481.141 151.627,471.474 143.5,461.5C 142.729,458.668 142.062,458.335 141.5,460.5C 112.863,428.358 84.3626,396.025 56,363.5C 55.6667,363.833 55.3333,364.167 55,364.5C 50.7014,358.033 46.2014,351.7 41.5,345.5C 41.631,344.761 41.4643,344.094 41,343.5C 40.31,342.262 39.81,342.262 39.5,343.5C 30.527,331.2 23.527,318.2 18.5,304.5C 18.573,302.973 17.9063,301.973 16.5,301.5C 8.91214,283.979 4.24548,265.813 2.5,247C 1.22016,240.105 0.220159,233.272 -0.5,226.5C -0.5,225.5 -0.5,224.5 -0.5,223.5C 0.833333,223.167 0.833333,222.833 -0.5,222.5C -0.5,219.5 -0.5,216.5 -0.5,213.5C 0.833333,212.5 0.833333,211.5 -0.5,210.5C -0.5,210.167 -0.5,209.833 -0.5,209.5C 0.999755,193.492 3.49976,177.492 7,161.5C 10.224,151.474 13.5573,141.808 17,132.5C 19.2271,127.956 21.7271,123.623 24.5,119.5C -11.3107,202.05 -2.14398,279.05 52,350.5C 108.325,413.824 164.992,476.824 222,539.5C 277.098,476.979 332.432,414.645 388,352.5C 408.415,327.677 423.081,299.677 432,268.5C 444.804,216.572 439.637,166.572 416.5,118.5 Z"/></g>
<g><path style="opacity:1" fill="#81a1e5" d="M 271.5,203.5 C 271.56,202.957 271.893,202.624 272.5,202.5C 273.825,215.661 273.825,228.661 272.5,241.5C 272.829,228.656 272.495,215.989 271.5,203.5 Z"/></g>
<g><path style="opacity:1" fill="#0344cc" d="M 271.5,203.5 C 272.495,215.989 272.829,228.656 272.5,241.5C 271.797,243.716 270.464,245.549 268.5,247C 246.107,265.262 220.774,270.929 192.5,264C 178.965,259.988 167.465,252.822 158,242.5C 157.5,229.504 157.333,216.504 157.5,203.5C 176.82,209.497 196.154,215.497 215.5,221.5C 234.107,215.298 252.773,209.298 271.5,203.5 Z"/></g>
<g><path style="opacity:1" fill="#0b46cc" d="M 292.5,195.5 C 293.833,195.5 295.167,195.5 296.5,195.5C 296.333,214.503 296.5,233.503 297,252.5C 301.333,254.833 304.667,258.167 307,262.5C 307.833,275.513 307.666,288.513 306.5,301.5C 305.692,301.808 305.025,302.308 304.5,303C 295.167,303.667 285.833,303.667 276.5,303C 276,302.5 275.5,302 275,301.5C 273.872,295.103 273.372,288.603 273.5,282C 273.667,276.167 273.833,270.333 274,264.5C 275.938,258.897 279.604,254.897 285,252.5C 285.333,234.5 285.667,216.5 286,198.5C 288.294,197.578 290.461,196.578 292.5,195.5 Z"/></g>
<g><path style="opacity:1" fill="#0545cc" d="M 212.5,141.5 C 214.199,141.34 215.866,141.506 217.5,142C 247.543,151.792 277.376,161.958 307,172.5C 308.12,175.999 307.287,178.833 304.5,181C 274.749,191.028 244.915,200.862 215,210.5C 185.836,201.001 156.669,191.501 127.5,182C 121.799,179.168 121.133,175.502 125.5,171C 154.597,161.101 183.597,151.267 212.5,141.5 Z"/></g>
<g><path style="opacity:0.004" fill="#acacac" d="M 428.5,295.5 C 428.672,296.492 428.338,297.158 427.5,297.5C 426.243,296.377 426.576,295.711 428.5,295.5 Z"/></g>
<g><path style="opacity:0.008" fill="#a8a8a8" d="M 16.5,301.5 C 17.9063,301.973 18.573,302.973 18.5,304.5C 17.0937,304.027 16.427,303.027 16.5,301.5 Z"/></g>
<g><path style="opacity:0.004" fill="#000000" d="M 423.5,306.5 C 424.833,307.167 424.833,307.167 423.5,306.5 Z"/></g>
<g><path style="opacity:0.004" fill="#cacaca" d="M 41.5,345.5 C 40.5,345.167 39.8333,344.5 39.5,343.5C 39.81,342.262 40.31,342.262 41,343.5C 41.4643,344.094 41.631,344.761 41.5,345.5 Z"/></g>
<g><path style="opacity:0.004" fill="#cacaca" d="M 379.5,371.5 C 379.167,372.5 378.5,373.167 377.5,373.5C 377.062,373.565 376.728,373.399 376.5,373C 377.333,372.167 378.167,371.333 379,370.5C 379.399,370.728 379.565,371.062 379.5,371.5 Z"/></g>
<g><path style="opacity:0.004" fill="#000000" d="M 329.5,427.5 C 330.833,428.167 330.833,428.167 329.5,427.5 Z"/></g>
<g><path style="opacity:0.012" fill="#989898" d="M 325.5,431.5 C 325.573,433.027 324.906,434.027 323.5,434.5C 323.285,432.821 323.952,431.821 325.5,431.5 Z"/></g>
<g><path style="opacity:0.004" fill="#e4e4e4" d="M 143.5,461.5 C 142.508,461.672 141.842,461.338 141.5,460.5C 142.062,458.335 142.729,458.668 143.5,461.5 Z"/></g>
<g><path style="opacity:0.004" fill="#fefffe" d="M 170.5,491.5 C 169.508,491.672 168.842,491.338 168.5,490.5C 169.327,489.561 169.994,489.895 170.5,491.5 Z"/></g>
<g><path style="opacity:0.004" fill="#fefffe" d="M 195.5,520.5 C 197.027,520.427 198.027,521.094 198.5,522.5C 196.973,522.573 195.973,521.906 195.5,520.5 Z"/></g>
</svg>
