<?xml version="1.0" encoding="UTF-8"?>
<!DOCTYPE svg PUBLIC "-//W3C//DTD SVG 1.1//EN" "http://www.w3.org/Graphics/SVG/1.1/DTD/svg11.dtd">
<svg xmlns="http://www.w3.org/2000/svg" version="1.1" width="444px" height="548px" style="shape-rendering:geometricPrecision; text-rendering:geometricPrecision; image-rendering:optimizeQuality; fill-rule:evenodd; clip-rule:evenodd" xmlns:xlink="http://www.w3.org/1999/xlink">
<g><path style="opacity:0.999" fill="#ea2d97" d="M 203.5,-0.5 C 215.833,-0.5 228.167,-0.5 240.5,-0.5C 303.548,6.66677 354.882,34.0001 394.5,81.5C 394.66,83.153 395.326,84.4863 396.5,85.5C 398.262,86.2623 399.262,87.5956 399.5,89.5C 399.833,90.5 400.5,91.1667 401.5,91.5C 401.427,93.0269 402.094,94.0269 403.5,94.5C 403.5,96.5 404.5,97.5 406.5,97.5C 406.5,97.8333 406.5,98.1667 406.5,98.5C 406.062,98.4346 405.728,98.6012 405.5,99C 408.03,103.013 410.696,106.846 413.5,110.5C 413.66,112.153 414.326,113.486 415.5,114.5C 416.326,117.485 417.659,120.151 419.5,122.5C 449.255,191.599 445.755,258.932 409,324.5C 402.824,334.185 396.157,343.519 389,352.5C 333.49,414.874 277.99,477.208 222.5,539.5C 167.547,478.043 112.38,416.71 57,355.5C 4.52983,291.367 -8.97017,219.7 16.5,140.5C 18.8742,135.723 20.8742,130.723 22.5,125.5C 23.3382,125.158 23.6716,124.492 23.5,123.5C 25.6744,120.485 27.3411,117.151 28.5,113.5C 28.3284,112.508 28.6618,111.842 29.5,111.5C 30.9063,111.027 31.573,110.027 31.5,108.5C 32.9063,108.027 33.573,107.027 33.5,105.5C 33.5,104.833 33.5,104.167 33.5,103.5C 35.6977,103.591 36.0311,102.925 34.5,101.5C 34.8333,101.5 35.1667,101.5 35.5,101.5C 36.9063,101.027 37.573,100.027 37.5,98.5C 37.5,98.1667 37.5,97.8333 37.5,97.5C 39.1898,97.1436 40.1898,96.1436 40.5,94.5C 41.9063,94.0269 42.573,93.0269 42.5,91.5C 42.427,89.9731 43.0937,88.9731 44.5,88.5C 45.9744,87.5637 46.9744,86.2303 47.5,84.5C 48.9063,84.0269 49.573,83.0269 49.5,81.5C 50.8333,81.1667 50.8333,80.8333 49.5,80.5C 90.0224,33.5658 141.356,6.56582 203.5,-0.5 Z"/></g>
<g><path style="opacity:1" fill="#fefefe" d="M 204.5,59.5 C 269.642,55.8199 319.809,81.1532 355,135.5C 383.267,187.271 383.6,239.271 356,291.5C 321.694,345.907 272.194,371.741 207.5,369C 141.153,359.648 96.6535,323.482 74,260.5C 56.8922,195.408 73.0588,140.241 122.5,95C 146.529,75.4547 173.863,63.6213 204.5,59.5 Z"/></g>
<g><path style="opacity:0.006" fill="#292929" d="M 49.5,80.5 C 49.5,80.8333 49.5,81.1667 49.5,81.5C 49.573,83.0269 48.9063,84.0269 47.5,84.5C 47.6596,82.847 48.3263,81.5137 49.5,80.5 Z"/></g>
<g><path style="opacity:0.004" fill="#6a6a6a" d="M 394.5,81.5 C 396.762,82.3449 397.429,83.6783 396.5,85.5C 395.326,84.4863 394.66,83.153 394.5,81.5 Z"/></g>
<g><path style="opacity:0.006" fill="#181818" d="M 47.5,84.5 C 46.9744,86.2303 45.9744,87.5637 44.5,88.5C 44.5544,86.368 45.5544,85.0347 47.5,84.5 Z"/></g>
<g><path style="opacity:0.006" fill="#222222" d="M 399.5,89.5 C 400.833,89.5 401.5,90.1667 401.5,91.5C 400.5,91.1667 399.833,90.5 399.5,89.5 Z"/></g>
<g><path style="opacity:0.006" fill="#303030" d="M 401.5,91.5 C 402.906,91.9731 403.573,92.9731 403.5,94.5C 402.094,94.0269 401.427,93.0269 401.5,91.5 Z"/></g>
<g><path style="opacity:0.137" fill="#591c3c" d="M 42.5,91.5 C 42.573,93.0269 41.9063,94.0269 40.5,94.5C 40.427,92.9731 41.0937,91.9731 42.5,91.5 Z"/></g>
<g><path style="opacity:0.137" fill="#d795b2" d="M 40.5,94.5 C 40.1898,96.1436 39.1898,97.1436 37.5,97.5C 37.8102,95.8564 38.8102,94.8564 40.5,94.5 Z"/></g>
<g><path style="opacity:0.006" fill="#1a1a1a" d="M 403.5,94.5 C 404.833,95.1667 405.833,96.1667 406.5,97.5C 404.5,97.5 403.5,96.5 403.5,94.5 Z"/></g>
<g><path style="opacity:0.008" fill="#303030" d="M 37.5,98.5 C 37.573,100.027 36.9063,101.027 35.5,101.5C 35.427,99.9731 36.0937,98.9731 37.5,98.5 Z"/></g>
<g><path style="opacity:0.004" fill="#3b3b3b" d="M 406.5,98.5 C 409.623,101.976 411.957,105.976 413.5,110.5C 410.696,106.846 408.03,103.013 405.5,99C 405.728,98.6012 406.062,98.4346 406.5,98.5 Z"/></g>
<g><path style="opacity:0.007" fill="#000000" d="M 34.5,101.5 C 36.0311,102.925 35.6977,103.591 33.5,103.5C 33.3284,102.508 33.6618,101.842 34.5,101.5 Z"/></g>
<g><path style="opacity:0.145" fill="#581d39" d="M 33.5,105.5 C 33.573,107.027 32.9063,108.027 31.5,108.5C 31.427,106.973 32.0937,105.973 33.5,105.5 Z"/></g>
<g><path style="opacity:0.01" fill="#000000" d="M 31.5,108.5 C 31.573,110.027 30.9063,111.027 29.5,111.5C 29.427,109.973 30.0937,108.973 31.5,108.5 Z"/></g>
<g><path style="opacity:0.006" fill="#222222" d="M 413.5,110.5 C 415.104,111.287 415.771,112.62 415.5,114.5C 414.326,113.486 413.66,112.153 413.5,110.5 Z"/></g>
<g><path style="opacity:0.01" fill="#333333" d="M 28.5,113.5 C 27.3411,117.151 25.6744,120.485 23.5,123.5C 24.1266,119.58 25.7933,116.247 28.5,113.5 Z"/></g>
<g><path style="opacity:0.02" fill="#393939" d="M 415.5,114.5 C 417.268,116.508 418.934,118.674 420.5,121C 419.944,121.383 419.611,121.883 419.5,122.5C 417.659,120.151 416.326,117.485 415.5,114.5 Z"/></g>
<g><path style="opacity:0.006" fill="#191919" d="M 23.5,123.5 C 23.6716,124.492 23.3382,125.158 22.5,125.5C 20.9689,124.075 21.3023,123.409 23.5,123.5 Z"/></g>
<g><path style="opacity:0.012" fill="#353535" d="M 22.5,125.5 C 20.8742,130.723 18.8742,135.723 16.5,140.5C 16.5,139.5 16.5,138.5 16.5,137.5C 17.4756,132.882 19.4756,128.882 22.5,125.5 Z"/></g>
<g><path style="opacity:1" fill="#eb2e98" d="M 219.5,131.5 C 221.199,131.34 222.866,131.506 224.5,132C 249.198,144.349 273.864,156.682 298.5,169C 299.591,171.064 299.758,173.231 299,175.5C 248.237,176.664 197.404,176.83 146.5,176C 143.461,172.195 144.128,169.195 148.5,167C 172.413,155.71 196.08,143.877 219.5,131.5 Z"/></g>
<g><path style="opacity:0.008" fill="#c4c4c4" d="M 16.5,137.5 C 16.5,138.5 16.5,139.5 16.5,140.5C 15.8333,140.5 15.1667,140.5 14.5,140.5C 14.9321,139.29 15.5987,138.29 16.5,137.5 Z"/></g>
<g><path style="opacity:0.004" fill="#e4e4e4" d="M 425.5,302.5 C 426.815,303.895 426.481,304.895 424.5,305.5C 424.263,304.209 424.596,303.209 425.5,302.5 Z"/></g>
<g><path style="opacity:0.101" fill="#161415" d="M 419.5,122.5 C 421.254,124.573 422.92,126.739 424.5,129C 425.607,133.321 427.607,138.154 430.5,143.5C 430.291,144.086 429.957,144.586 429.5,145C 431.656,148.425 433.322,152.092 434.5,156C 434.167,156.333 433.833,156.667 433.5,157C 435.698,163.261 437.698,169.595 439.5,176C 439.167,176.333 438.833,176.667 438.5,177C 445.274,213.466 443.441,249.3 433,284.5C 432.026,288.232 430.526,291.732 428.5,295C 428.833,295.333 429.167,295.667 429.5,296C 427.764,298.439 426.43,300.606 425.5,302.5C 424.596,303.209 424.263,304.209 424.5,305.5C 420.411,316.282 415.077,326.282 408.5,335.5C 407.094,335.973 406.427,336.973 406.5,338.5C 404.771,340.95 403.271,343.617 402,346.5C 358.973,395.481 315.14,445.481 270.5,496.5C 268.591,495.321 268.258,495.654 269.5,497.5C 265.297,502.293 260.797,506.96 256,511.5C 255.333,512.833 254.667,514.167 254,515.5C 250.303,517.559 247.303,520.893 245,525.5C 238.706,531.964 232.539,538.631 226.5,545.5C 223.833,546.833 221.167,546.833 218.5,545.5C 174.715,496.468 131.715,448.135 89.5,400.5C 90.7383,400.19 90.7383,399.69 89.5,399C 88.5632,398.308 87.8966,398.475 87.5,399.5C 76.5,386.833 65.5,374.167 54.5,361.5C 5.82184,303.464 -9.84483,236.964 7.5,162C 9.9921,154.858 12.3254,147.691 14.5,140.5C 15.1667,140.5 15.8333,140.5 16.5,140.5C -8.97017,219.7 4.52983,291.367 57,355.5C 112.38,416.71 167.547,478.043 222.5,539.5C 277.99,477.208 333.49,414.874 389,352.5C 396.157,343.519 402.824,334.185 409,324.5C 445.755,258.932 449.255,191.599 419.5,122.5 Z"/></g>
<g><path style="opacity:1" fill="#eb2d98" d="M 146.5,268.5 C 196.834,268.333 247.168,268.5 297.5,269C 298,269.5 298.5,270 299,270.5C 299.667,275.167 299.667,279.833 299,284.5C 298.5,285 298,285.5 297.5,286C 247.167,286.667 196.833,286.667 146.5,286C 146,285.5 145.5,285 145,284.5C 143.946,278.886 144.446,273.552 146.5,268.5 Z"/></g>
<g><path style="opacity:1" fill="#f066b3" d="M 251.5,252.5 C 251.5,254.5 251.5,256.5 251.5,258.5C 264.167,258.5 276.833,258.5 289.5,258.5C 289.5,256.5 289.5,254.5 289.5,252.5C 290.468,254.607 290.802,256.941 290.5,259.5C 277.167,259.5 263.833,259.5 250.5,259.5C 250.198,256.941 250.532,254.607 251.5,252.5 Z"/></g>
<g><path style="opacity:1" fill="#f066b3" d="M 154.5,252.5 C 154.5,254.5 154.5,256.5 154.5,258.5C 167.167,258.5 179.833,258.5 192.5,258.5C 192.5,256.5 192.5,254.5 192.5,252.5C 193.468,254.607 193.802,256.941 193.5,259.5C 180.167,259.5 166.833,259.5 153.5,259.5C 153.198,256.941 153.532,254.607 154.5,252.5 Z"/></g>
<g><path style="opacity:1" fill="#eb2d98" d="M 289.5,252.5 C 289.5,254.5 289.5,256.5 289.5,258.5C 276.833,258.5 264.167,258.5 251.5,258.5C 251.5,256.5 251.5,254.5 251.5,252.5C 251.611,251.883 251.944,251.383 252.5,251C 264.5,250.333 276.5,250.333 288.5,251C 289.056,251.383 289.389,251.883 289.5,252.5 Z"/></g>
<g><path style="opacity:1" fill="#eb359a" d="M 203.5,250.5 C 215.838,250.333 228.171,250.5 240.5,251C 241.444,253.719 241.777,256.552 241.5,259.5C 228.5,259.5 215.5,259.5 202.5,259.5C 202.264,256.391 202.597,253.391 203.5,250.5 Z"/></g>
<g><path style="opacity:1" fill="#eb2d98" d="M 192.5,252.5 C 192.5,254.5 192.5,256.5 192.5,258.5C 179.833,258.5 167.167,258.5 154.5,258.5C 154.5,256.5 154.5,254.5 154.5,252.5C 154.611,251.883 154.944,251.383 155.5,251C 167.5,250.333 179.5,250.333 191.5,251C 192.056,251.383 192.389,251.883 192.5,252.5 Z"/></g>
<g><path style="opacity:1" fill="#f59ecf" d="M 259.5,204.5 C 266.648,203.508 273.981,203.175 281.5,203.5C 281.829,216.344 281.495,229.011 280.5,241.5C 280.5,241.167 280.5,240.833 280.5,240.5C 280.5,228.5 280.5,216.5 280.5,204.5C 273.833,204.5 267.167,204.5 260.5,204.5C 260.167,204.5 259.833,204.5 259.5,204.5 Z"/></g>
<g><path style="opacity:1" fill="#ea2d97" d="M 260.5,204.5 C 267.167,204.5 273.833,204.5 280.5,204.5C 280.5,216.5 280.5,228.5 280.5,240.5C 273.833,240.5 267.167,240.5 260.5,240.5C 260.5,228.5 260.5,216.5 260.5,204.5 Z"/></g>
<g><path style="opacity:1" fill="#f27dbe" d="M 259.5,204.5 C 259.833,204.5 260.167,204.5 260.5,204.5C 260.5,216.5 260.5,228.5 260.5,240.5C 267.167,240.5 273.833,240.5 280.5,240.5C 280.5,240.833 280.5,241.167 280.5,241.5C 273.5,241.5 266.5,241.5 259.5,241.5C 259.5,229.167 259.5,216.833 259.5,204.5 Z"/></g>
<g><path style="opacity:1" fill="#eb3098" d="M 211.5,204.5 C 218.5,204.5 225.5,204.5 232.5,204.5C 232.5,216.833 232.5,229.167 232.5,241.5C 225.5,241.5 218.5,241.5 211.5,241.5C 211.5,229.167 211.5,216.833 211.5,204.5 Z"/></g>
<g><path style="opacity:1" fill="#f37dbe" d="M 183.5,204.5 C 183.833,204.5 184.167,204.5 184.5,204.5C 184.5,216.833 184.5,229.167 184.5,241.5C 177.5,241.5 170.5,241.5 163.5,241.5C 163.5,241.167 163.5,240.833 163.5,240.5C 170.167,240.5 176.833,240.5 183.5,240.5C 183.5,228.5 183.5,216.5 183.5,204.5 Z"/></g>
<g><path style="opacity:1" fill="#ea2d97" d="M 183.5,204.5 C 183.5,216.5 183.5,228.5 183.5,240.5C 176.833,240.5 170.167,240.5 163.5,240.5C 163.5,228.5 163.5,216.5 163.5,204.5C 170.167,204.5 176.833,204.5 183.5,204.5 Z"/></g>
<g><path style="opacity:1" fill="#f59ecf" d="M 184.5,204.5 C 184.167,204.5 183.833,204.5 183.5,204.5C 176.833,204.5 170.167,204.5 163.5,204.5C 163.5,216.5 163.5,228.5 163.5,240.5C 163.5,240.833 163.5,241.167 163.5,241.5C 162.505,229.011 162.171,216.344 162.5,203.5C 170.019,203.175 177.352,203.508 184.5,204.5 Z"/></g>
<g><path style="opacity:1" fill="#ec399c" d="M 250.5,186.5 C 263.5,186.5 276.5,186.5 289.5,186.5C 289.5,188.5 289.5,190.5 289.5,192.5C 289.423,193.75 288.756,194.583 287.5,195C 276.167,195.667 264.833,195.667 253.5,195C 250.876,192.847 249.876,190.013 250.5,186.5 Z"/></g>
<g><path style="opacity:1" fill="#ed44a0" d="M 202.5,185.5 C 215.5,185.5 228.5,185.5 241.5,185.5C 242.006,189.007 241.34,192.174 239.5,195C 227.833,195.667 216.167,195.667 204.5,195C 202.66,192.174 201.994,189.007 202.5,185.5 Z"/></g>
<g><path style="opacity:1" fill="#ec399c" d="M 193.5,186.5 C 194.124,190.013 193.124,192.847 190.5,195C 179.167,195.667 167.833,195.667 156.5,195C 155.619,194.292 154.953,193.458 154.5,192.5C 154.5,190.5 154.5,188.5 154.5,186.5C 167.5,186.5 180.5,186.5 193.5,186.5 Z"/></g>
<g><path style="opacity:1" fill="#f594ca" d="M 250.5,186.5 C 263.656,185.504 276.99,185.171 290.5,185.5C 290.802,188.059 290.468,190.393 289.5,192.5C 289.5,190.5 289.5,188.5 289.5,186.5C 276.5,186.5 263.5,186.5 250.5,186.5 Z"/></g>
<g><path style="opacity:1" fill="#f494ca" d="M 193.5,186.5 C 180.5,186.5 167.5,186.5 154.5,186.5C 154.5,188.5 154.5,190.5 154.5,192.5C 153.532,190.393 153.198,188.059 153.5,185.5C 167.01,185.171 180.344,185.504 193.5,186.5 Z"/></g>
<g><path style="opacity:1" fill="#fef4f9" d="M 220.5,151.5 C 226.02,152.044 227.354,154.544 224.5,159C 219.502,160.33 217.336,158.496 218,153.5C 218.995,152.934 219.828,152.267 220.5,151.5 Z"/></g>
<g><path style="opacity:0.004" fill="#e4e4e4" d="M 408.5,335.5 C 408.573,337.027 407.906,338.027 406.5,338.5C 406.427,336.973 407.094,335.973 408.5,335.5 Z"/></g>
<g><path style="opacity:0.004" fill="#fefffe" d="M 54.5,361.5 C 53.8333,362.167 53.8333,362.167 54.5,361.5 Z"/></g>
<g><path style="opacity:0.008" fill="#b0b0b0" d="M 87.5,399.5 C 87.8966,398.475 88.5632,398.308 89.5,399C 90.7383,399.69 90.7383,400.19 89.5,400.5C 88.8333,400.167 88.1667,399.833 87.5,399.5 Z"/></g>
<g><path style="opacity:0.004" fill="#dddddd" d="M 270.5,496.5 C 270.5,497.167 270.167,497.5 269.5,497.5C 268.258,495.654 268.591,495.321 270.5,496.5 Z"/></g>
</svg>
