<?xml version="1.0" encoding="UTF-8"?>
<!DOCTYPE svg PUBLIC "-//W3C//DTD SVG 1.1//EN" "http://www.w3.org/Graphics/SVG/1.1/DTD/svg11.dtd">
<svg xmlns="http://www.w3.org/2000/svg" version="1.1" width="444px" height="548px" style="shape-rendering:geometricPrecision; text-rendering:geometricPrecision; image-rendering:optimizeQuality; fill-rule:evenodd; clip-rule:evenodd" xmlns:xlink="http://www.w3.org/1999/xlink">
<g><path style="opacity:0.998" fill="#fe6f35" d="M 213.5,-0.5 C 218.833,-0.5 224.167,-0.5 229.5,-0.5C 281.812,2.33399 327.812,20.6673 367.5,54.5C 367.833,55.5 368.5,56.1667 369.5,56.5C 378.792,64.8655 386.959,72.8655 394,80.5C 394.483,81.448 394.649,82.448 394.5,83.5C 394.833,84.5 395.5,85.1667 396.5,85.5C 397.5,85.8333 398.167,86.5 398.5,87.5C 397.561,88.3274 397.895,88.9941 399.5,89.5C 399.738,91.4044 400.738,92.7377 402.5,93.5C 403.167,94.5 403.833,95.5 404.5,96.5C 404.427,98.0269 405.094,99.0269 406.5,99.5C 406.833,100.167 407.167,100.833 407.5,101.5C 408.584,104.004 409.917,106.337 411.5,108.5C 411.427,110.027 412.094,111.027 413.5,111.5C 416.93,119.358 420.597,127.024 424.5,134.5C 453.423,215.972 440.589,289.972 386,356.5C 332.295,416.536 278.962,476.87 226,537.5C 224.267,539.602 222.267,539.935 220,538.5C 164.333,476.167 108.667,413.833 53,351.5C 2.28238,285.854 -9.05096,213.854 19,135.5C 23.5882,125.325 28.4215,115.325 33.5,105.5C 33.9321,104.29 34.5987,103.29 35.5,102.5C 37.2676,100.492 38.9343,98.3256 40.5,96C 40.2716,95.6012 39.9382,95.4346 39.5,95.5C 39.5,94.8333 39.8333,94.5 40.5,94.5C 41.9063,94.0269 42.573,93.0269 42.5,91.5C 43.4839,89.5201 44.8173,87.8534 46.5,86.5C 47.9063,86.0269 48.573,85.0269 48.5,83.5C 49.5,83.1667 50.1667,82.5 50.5,81.5C 92.9156,31.1247 147.249,3.79133 213.5,-0.5 Z"/></g>
<g><path style="opacity:0.004" fill="#767676" d="M 367.5,54.5 C 368.833,54.5 369.5,55.1667 369.5,56.5C 368.5,56.1667 367.833,55.5 367.5,54.5 Z"/></g>
<g><path style="opacity:1" fill="#fffefe" d="M 208.5,59.5 C 280.448,58.0386 332.281,89.372 364,153.5C 386.248,212.644 377.914,266.977 339,316.5C 294.478,363.671 240.644,379.505 177.5,364C 129.559,348.393 96.0586,317.226 77,270.5C 55.1781,203.956 69.3448,146.456 119.5,98C 145.208,75.9335 174.875,63.1001 208.5,59.5 Z"/></g>
<g><path style="opacity:0.004" fill="#000000" d="M 50.5,81.5 C 50.1667,82.5 49.5,83.1667 48.5,83.5C 48.5,82.1667 49.1667,81.5 50.5,81.5 Z"/></g>
<g><path style="opacity:0.004" fill="#767676" d="M 394.5,83.5 C 395.833,83.5 396.5,84.1667 396.5,85.5C 395.5,85.1667 394.833,84.5 394.5,83.5 Z"/></g>
<g><path style="opacity:0.071" fill="#8c5842" d="M 48.5,83.5 C 48.573,85.0269 47.9063,86.0269 46.5,86.5C 46.427,84.9731 47.0937,83.9731 48.5,83.5 Z"/></g>
<g><path style="opacity:0.007" fill="#000000" d="M 398.5,87.5 C 399.338,87.8417 399.672,88.5084 399.5,89.5C 397.895,88.9941 397.561,88.3274 398.5,87.5 Z"/></g>
<g><path style="opacity:0.006" fill="#000000" d="M 42.5,91.5 C 42.573,93.0269 41.9063,94.0269 40.5,94.5C 40.427,92.9731 41.0937,91.9731 42.5,91.5 Z"/></g>
<g><path style="opacity:0.004" fill="#181818" d="M 399.5,89.5 C 401.262,90.2623 402.262,91.5956 402.5,93.5C 400.738,92.7377 399.738,91.4044 399.5,89.5 Z"/></g>
<g><path style="opacity:0.006" fill="#2c2c2c" d="M 39.5,95.5 C 39.9382,95.4346 40.2716,95.6012 40.5,96C 38.9343,98.3256 37.2676,100.492 35.5,102.5C 35.9977,99.6737 37.3311,97.3403 39.5,95.5 Z"/></g>
<g><path style="opacity:0.012" fill="#515151" d="M 404.5,96.5 C 405.906,96.9731 406.573,97.9731 406.5,99.5C 405.094,99.0269 404.427,98.0269 404.5,96.5 Z"/></g>
<g><path style="opacity:0.011" fill="#3d3d3d" d="M 407.5,101.5 C 410.083,102.985 411.416,105.318 411.5,108.5C 409.917,106.337 408.584,104.004 407.5,101.5 Z"/></g>
<g><path style="opacity:0.078" fill="#875843" d="M 411.5,108.5 C 412.906,108.973 413.573,109.973 413.5,111.5C 412.094,111.027 411.427,110.027 411.5,108.5 Z"/></g>
<g><path style="opacity:0.012" fill="#3e3e3e" d="M 413.5,111.5 C 414.885,112.574 416.051,113.907 417,115.5C 420.574,121.942 423.408,128.276 425.5,134.5C 425.167,134.5 424.833,134.5 424.5,134.5C 420.597,127.024 416.93,119.358 413.5,111.5 Z"/></g>
<g><path style="opacity:0.102" fill="#151313" d="M 33.5,105.5 C 28.4215,115.325 23.5882,125.325 19,135.5C -9.05096,213.854 2.28238,285.854 53,351.5C 108.667,413.833 164.333,476.167 220,538.5C 222.267,539.935 224.267,539.602 226,537.5C 278.962,476.87 332.295,416.536 386,356.5C 440.589,289.972 453.423,215.972 424.5,134.5C 424.833,134.5 425.167,134.5 425.5,134.5C 439.913,167.493 445.413,202.493 442,239.5C 436.404,292.75 414.238,338.583 375.5,377C 369.025,385.024 362.025,393.19 354.5,401.5C 353.761,401.369 353.094,401.536 352.5,402C 351.262,402.69 351.262,403.19 352.5,403.5C 349.813,407.183 346.813,410.517 343.5,413.5C 304.692,457.524 266.026,501.524 227.5,545.5C 224.894,546.652 222.227,546.818 219.5,546C 218.058,545.623 217.058,544.79 216.5,543.5C 217.016,542.242 216.35,541.242 214.5,540.5C 213.504,540.586 212.671,540.252 212,539.5C 207.612,533.728 203.112,528.062 198.5,522.5C 198.027,521.094 197.027,520.427 195.5,520.5C 187.511,510.513 179.178,500.847 170.5,491.5C 169.994,489.895 169.327,489.561 168.5,490.5C 159.953,481.111 151.619,471.444 143.5,461.5C 142.729,458.668 142.062,458.335 141.5,460.5C 112.744,428.088 84.0778,395.754 55.5,363.5C 50.5129,357.834 45.8462,351.834 41.5,345.5C 41.573,343.973 40.9063,342.973 39.5,342.5C 11.4218,301.672 -1.57824,255.839 0.5,205C 3.40112,170.654 13.2344,138.82 30,109.5C 30.9487,107.907 32.1154,106.574 33.5,105.5 Z"/></g>
<g><path style="opacity:1" fill="#ff7036" d="M 135.5,160.5 C 140.833,160.5 146.167,160.5 151.5,160.5C 151.5,183.833 151.5,207.167 151.5,230.5C 172.167,230.5 192.833,230.5 213.5,230.5C 213.5,212.5 213.5,194.5 213.5,176.5C 236.502,176.333 259.502,176.5 282.5,177C 295.916,180.414 303.749,188.914 306,202.5C 306.5,227.498 306.667,252.498 306.5,277.5C 301.167,277.5 295.833,277.5 290.5,277.5C 290.5,269.833 290.5,262.167 290.5,254.5C 244.167,254.5 197.833,254.5 151.5,254.5C 151.5,262.167 151.5,269.833 151.5,277.5C 146.167,277.5 140.833,277.5 135.5,277.5C 135.5,238.5 135.5,199.5 135.5,160.5 Z"/></g>
<g><path style="opacity:1" fill="#ff7036" d="M 174.5,176.5 C 192.627,173.986 202.96,181.653 205.5,199.5C 202.501,218.678 191.501,225.845 172.5,221C 158.129,212.214 154.962,200.381 163,185.5C 166.449,181.877 170.283,178.877 174.5,176.5 Z"/></g>
<g><path style="opacity:0.004" fill="#e4e4e4" d="M 39.5,342.5 C 40.9063,342.973 41.573,343.973 41.5,345.5C 40.0937,345.027 39.427,344.027 39.5,342.5 Z"/></g>
<g><path style="opacity:0.004" fill="#fefffe" d="M 55.5,363.5 C 54.8333,364.167 54.8333,364.167 55.5,363.5 Z"/></g>
<g><path style="opacity:0.004" fill="#d2d2d2" d="M 354.5,401.5 C 354.167,402.5 353.5,403.167 352.5,403.5C 351.262,403.19 351.262,402.69 352.5,402C 353.094,401.536 353.761,401.369 354.5,401.5 Z"/></g>
<g><path style="opacity:0.004" fill="#fefffe" d="M 343.5,413.5 C 344.833,414.167 344.833,414.167 343.5,413.5 Z"/></g>
<g><path style="opacity:0.004" fill="#e4e4e4" d="M 143.5,461.5 C 142.508,461.672 141.842,461.338 141.5,460.5C 142.062,458.335 142.729,458.668 143.5,461.5 Z"/></g>
<g><path style="opacity:0.004" fill="#fefffe" d="M 170.5,491.5 C 169.508,491.672 168.842,491.338 168.5,490.5C 169.327,489.561 169.994,489.895 170.5,491.5 Z"/></g>
<g><path style="opacity:0.004" fill="#fefffe" d="M 195.5,520.5 C 197.027,520.427 198.027,521.094 198.5,522.5C 196.973,522.573 195.973,521.906 195.5,520.5 Z"/></g>
<g><path style="opacity:0.008" fill="#909090" d="M 214.5,540.5 C 216.35,541.242 217.016,542.242 216.5,543.5C 215.094,543.027 214.427,542.027 214.5,540.5 Z"/></g>
</svg>
