<?xml version="1.0" encoding="UTF-8"?>
<!DOCTYPE svg PUBLIC "-//W3C//DTD SVG 1.1//EN" "http://www.w3.org/Graphics/SVG/1.1/DTD/svg11.dtd">
<svg xmlns="http://www.w3.org/2000/svg" version="1.1" width="443px" height="548px" style="shape-rendering:geometricPrecision; text-rendering:geometricPrecision; image-rendering:optimizeQuality; fill-rule:evenodd; clip-rule:evenodd" xmlns:xlink="http://www.w3.org/1999/xlink">
<g><path style="opacity:0.999" fill="#6c63fe" d="M 213.5,-0.5 C 218.5,-0.5 223.5,-0.5 228.5,-0.5C 277.36,2.10302 321.027,18.4364 359.5,48.5C 359.833,49.5 360.5,50.1667 361.5,50.5C 366.509,54.669 371.509,58.8357 376.5,63C 381.012,67.6785 385.346,72.5119 389.5,77.5C 389.427,79.0269 390.094,80.0269 391.5,80.5C 392.222,80.9175 392.722,81.5842 393,82.5C 394.107,81.2881 394.607,81.6214 394.5,83.5C 394.328,84.4916 394.662,85.1583 395.5,85.5C 396.167,86.1667 396.833,86.8333 397.5,87.5C 397.427,89.0269 398.094,90.0269 399.5,90.5C 400.89,91.8993 401.89,93.5659 402.5,95.5C 402.833,96.5 403.5,97.1667 404.5,97.5C 405.383,100.704 407.05,103.371 409.5,105.5C 410.079,108.331 411.412,110.664 413.5,112.5C 414.338,112.842 414.672,113.508 414.5,114.5C 415.992,118.818 417.992,122.818 420.5,126.5C 452.314,205.99 442.814,279.99 392,348.5C 335.634,412.527 278.967,476.194 222,539.5C 218.714,537.218 215.714,534.551 213,531.5C 160.037,471.535 106.704,411.869 53,352.5C 2.64624,288.211 -9.52042,217.211 16.5,139.5C 20.3429,131.327 24.0096,122.993 27.5,114.5C 29.588,112.664 30.9213,110.331 31.5,107.5C 33.664,105.178 35.3307,102.511 36.5,99.5C 37.5,99.1667 38.1667,98.5 38.5,97.5C 38.5,97.1667 38.5,96.8333 38.5,96.5C 39.9063,96.0269 40.573,95.0269 40.5,93.5C 41.5,93.1667 42.1667,92.5 42.5,91.5C 43.1103,89.5659 44.1103,87.8993 45.5,86.5C 46.5,86.1667 47.1667,85.5 47.5,84.5C 47.3284,83.5084 47.6618,82.8417 48.5,82.5C 49.8333,81.8333 50.8333,80.8333 51.5,79.5C 52.1224,77.8784 53.1224,76.5451 54.5,75.5C 55.5,75.1667 56.1667,74.5 56.5,73.5C 98.1919,27.8361 150.525,3.16942 213.5,-0.5 Z"/></g>
<g><path style="opacity:0.004" fill="#767676" d="M 359.5,48.5 C 360.833,48.5 361.5,49.1667 361.5,50.5C 360.5,50.1667 359.833,49.5 359.5,48.5 Z"/></g>
<g><path style="opacity:1" fill="#fefeff" d="M 207.5,59.5 C 274.345,57.6588 324.512,85.3255 358,142.5C 382.438,193.818 381.104,244.485 354,294.5C 319.734,347.22 270.901,372.387 207.5,370C 152.175,363.283 111.008,335.783 84,287.5C 55.5428,226.949 61.2095,169.949 101,116.5C 128.953,83.4396 164.453,64.4396 207.5,59.5 Z"/></g>
<g><path style="opacity:0.004" fill="#b8b8b8" d="M 56.5,73.5 C 56.1667,74.5 55.5,75.1667 54.5,75.5C 54.5,74.1667 55.1667,73.5 56.5,73.5 Z"/></g>
<g><path style="opacity:0.005" fill="#000000" d="M 389.5,77.5 C 390.906,77.9731 391.573,78.9731 391.5,80.5C 390.094,80.0269 389.427,79.0269 389.5,77.5 Z"/></g>
<g><path style="opacity:0.005" fill="#292929" d="M 51.5,79.5 C 50.8333,80.8333 49.8333,81.8333 48.5,82.5C 48.5,80.5 49.5,79.5 51.5,79.5 Z"/></g>
<g><path style="opacity:0.006" fill="#3b3b3b" d="M 394.5,83.5 C 396.698,83.4088 397.031,84.0755 395.5,85.5C 394.662,85.1583 394.328,84.4916 394.5,83.5 Z"/></g>
<g><path style="opacity:0.008" fill="#3b3b3b" d="M 47.5,84.5 C 47.1667,85.5 46.5,86.1667 45.5,86.5C 45.5,85.1667 46.1667,84.5 47.5,84.5 Z"/></g>
<g><path style="opacity:0.005" fill="#292929" d="M 399.5,90.5 C 398.094,90.0269 397.427,89.0269 397.5,87.5C 398.707,87.3784 399.374,88.3784 399.5,90.5 Z"/></g>
<g><path style="opacity:0.012" fill="#3b3b3b" d="M 42.5,91.5 C 42.1667,92.5 41.5,93.1667 40.5,93.5C 40.5,92.1667 41.1667,91.5 42.5,91.5 Z"/></g>
<g><path style="opacity:0.012" fill="#3b3b3b" d="M 40.5,93.5 C 40.573,95.0269 39.9063,96.0269 38.5,96.5C 38.5,96.1667 38.5,95.8333 38.5,95.5C 38.8333,94.5 39.5,93.8333 40.5,93.5 Z"/></g>
<g><path style="opacity:0.004" fill="#fefffe" d="M 38.5,95.5 C 38.5,95.8333 38.5,96.1667 38.5,96.5C 38.5,96.8333 38.5,97.1667 38.5,97.5C 37.8333,97.5 37.1667,97.5 36.5,97.5C 36.8333,96.5 37.5,95.8333 38.5,95.5 Z"/></g>
<g><path style="opacity:0.007" fill="#000000" d="M 402.5,95.5 C 403.833,95.5 404.5,96.1667 404.5,97.5C 403.5,97.1667 402.833,96.5 402.5,95.5 Z"/></g>
<g><path style="opacity:0.009" fill="#000000" d="M 36.5,97.5 C 37.1667,97.5 37.8333,97.5 38.5,97.5C 38.1667,98.5 37.5,99.1667 36.5,99.5C 36.5,98.8333 36.5,98.1667 36.5,97.5 Z"/></g>
<g><path style="opacity:0.007" fill="#2c2c2c" d="M 404.5,97.5 C 406.95,99.6291 408.617,102.296 409.5,105.5C 407.05,103.371 405.383,100.704 404.5,97.5 Z"/></g>
<g><path style="opacity:0.008" fill="#303030" d="M 36.5,99.5 C 35.3307,102.511 33.664,105.178 31.5,107.5C 32.1695,104.151 33.8361,101.484 36.5,99.5 Z"/></g>
<g><path style="opacity:0.009" fill="#333333" d="M 409.5,105.5 C 411.669,107.34 413.002,109.674 413.5,112.5C 411.412,110.664 410.079,108.331 409.5,105.5 Z"/></g>
<g><path style="opacity:0.02" fill="#363636" d="M 31.5,107.5 C 30.9213,110.331 29.588,112.664 27.5,114.5C 28.0787,111.669 29.412,109.336 31.5,107.5 Z"/></g>
<g><path style="opacity:0.009" fill="#232323" d="M 414.5,114.5 C 417.54,117.914 419.54,121.914 420.5,126.5C 417.992,122.818 415.992,118.818 414.5,114.5 Z"/></g>
<g><path style="opacity:1" fill="#6d64ff" d="M 197.5,127.5 C 202.133,126.458 205.299,128.125 207,132.5C 207.888,137.618 207.555,142.618 206,147.5C 201.651,151.737 197.651,151.404 194,146.5C 183.162,153.251 172.496,160.251 162,167.5C 159.91,171.121 160.077,174.621 162.5,178C 168.952,178.186 174.952,176.519 180.5,173C 197.438,162.393 214.104,151.393 230.5,140C 238.89,138.725 242.057,142.225 240,150.5C 228.774,158.724 217.274,166.558 205.5,174C 198.426,178.978 194.593,185.812 194,194.5C 193.667,219.5 193.333,244.5 193,269.5C 190.552,272.473 187.386,273.973 183.5,274C 172.887,275.791 162.887,274.124 153.5,269C 150.131,266.635 147.964,263.468 147,259.5C 146.333,228.833 146.333,198.167 147,167.5C 148.267,163.131 150.433,159.297 153.5,156C 168.402,146.725 183.069,137.225 197.5,127.5 Z"/></g>
<g><path style="opacity:0.017" fill="#252525" d="M 27.5,114.5 C 24.0096,122.993 20.3429,131.327 16.5,139.5C 16.6716,138.508 16.3382,137.842 15.5,137.5C 18.0246,133.343 19.6913,129.176 20.5,125C 22.7327,121.349 25.066,117.849 27.5,114.5 Z"/></g>
<g><path style="opacity:0.012" fill="#afafaf" d="M 15.5,137.5 C 16.3382,137.842 16.6716,138.508 16.5,139.5C 15.8333,139.833 15.1667,140.167 14.5,140.5C 14.5569,139.391 14.8902,138.391 15.5,137.5 Z"/></g>
<g><path style="opacity:0.004" fill="#fefffe" d="M 425.5,302.5 C 425.938,302.435 426.272,302.601 426.5,303C 425.934,303.995 425.267,304.828 424.5,305.5C 424.263,304.209 424.596,303.209 425.5,302.5 Z"/></g>
<g><path style="opacity:0.102" fill="#151516" d="M 420.5,126.5 C 423.487,129.562 425.654,133.229 427,137.5C 435.908,161.531 441.074,186.531 442.5,212.5C 442.5,217.5 442.5,222.5 442.5,227.5C 441.359,253.441 435.692,278.441 425.5,302.5C 424.596,303.209 424.263,304.209 424.5,305.5C 412.472,332.558 396.139,356.058 375.5,376C 346.35,410.558 315.85,445.058 284,479.5C 274.074,492.725 263.407,504.725 252,515.5C 243.884,526.283 235.051,536.45 225.5,546C 220.994,547.338 217.327,546.171 214.5,542.5C 179.828,503.281 144.494,463.948 108.5,424.5C 110.031,423.075 109.698,422.409 107.5,422.5C 103.596,418.352 99.9292,414.019 96.5,409.5C 96.5,408.167 95.8333,407.5 94.5,407.5C 77.525,389.055 61.025,370.721 45,352.5C 36.409,340.41 28.409,327.41 21,313.5C 12.5399,294.795 6.53988,275.461 3,255.5C 1.70852,245.697 0.541849,236.031 -0.5,226.5C -0.5,225.5 -0.5,224.5 -0.5,223.5C 0.833333,223.167 0.833333,222.833 -0.5,222.5C -0.5,220.167 -0.5,217.833 -0.5,215.5C 0.833333,213.833 0.833333,212.167 -0.5,210.5C -0.5,210.167 -0.5,209.833 -0.5,209.5C 1.31939,185.73 6.31939,162.73 14.5,140.5C 15.1667,140.167 15.8333,139.833 16.5,139.5C -9.52042,217.211 2.64624,288.211 53,352.5C 106.704,411.869 160.037,471.535 213,531.5C 215.714,534.551 218.714,537.218 222,539.5C 278.967,476.194 335.634,412.527 392,348.5C 442.814,279.99 452.314,205.99 420.5,126.5 Z"/></g>
<g><path style="opacity:1" fill="#6d64ff" d="M 250.5,151.5 C 254.287,150.814 257.454,151.814 260,154.5C 260.909,160.612 260.576,166.612 259,172.5C 257.874,173.944 256.374,174.61 254.5,174.5C 251.261,174.035 248.594,172.869 246.5,171C 236.324,177.921 226.324,185.088 216.5,192.5C 214.534,195.549 214.034,198.882 215,202.5C 216.574,203.848 218.407,204.514 220.5,204.5C 225.714,203.706 230.714,202.206 235.5,200C 251.858,188.487 267.858,176.487 283.5,164C 287.505,162.902 291.005,163.735 294,166.5C 294.667,197.5 294.667,228.5 294,259.5C 278.324,272.594 262.157,285.094 245.5,297C 232.95,303.304 220.616,302.971 208.5,296C 205.238,293.408 202.738,290.241 201,286.5C 200.333,254.833 200.333,223.167 201,191.5C 202.886,187.56 205.386,184.06 208.5,181C 222.403,170.914 236.403,161.081 250.5,151.5 Z"/></g>
<g><path style="opacity:1" fill="#fbfaff" d="M 279.5,200.5 C 280.647,204.646 280.814,208.98 280,213.5C 269.152,221.592 258.485,229.925 248,238.5C 247.333,234.167 247.333,229.833 248,225.5C 258.478,217.027 268.978,208.694 279.5,200.5 Z"/></g>
<g><path style="opacity:0.008" fill="#909090" d="M 94.5,407.5 C 95.8333,407.5 96.5,408.167 96.5,409.5C 95.1667,409.5 94.5,408.833 94.5,407.5 Z"/></g>
<g><path style="opacity:0.004" fill="#dddddd" d="M 107.5,422.5 C 109.698,422.409 110.031,423.075 108.5,424.5C 107.662,424.158 107.328,423.492 107.5,422.5 Z"/></g>
</svg>
