<?xml version="1.0" encoding="UTF-8"?>
<!DOCTYPE svg PUBLIC "-//W3C//DTD SVG 1.1//EN" "http://www.w3.org/Graphics/SVG/1.1/DTD/svg11.dtd">
<svg xmlns="http://www.w3.org/2000/svg" version="1.1" width="443px" height="548px" style="shape-rendering:geometricPrecision; text-rendering:geometricPrecision; image-rendering:optimizeQuality; fill-rule:evenodd; clip-rule:evenodd" xmlns:xlink="http://www.w3.org/1999/xlink">
<g><path style="opacity:1" fill="#248fd3" d="M 202.5,-0.5 C 214.833,-0.5 227.167,-0.5 239.5,-0.5C 297.002,5.75224 345.002,29.5856 383.5,71C 385.751,71.7475 387.084,73.2475 387.5,75.5C 387.833,76.5 388.5,77.1667 389.5,77.5C 391.417,78.1164 392.584,79.4497 393,81.5C 393.333,81.1667 393.667,80.8333 394,80.5C 395.45,83.2519 396.95,85.9186 398.5,88.5C 399.68,90.6929 400.68,93.0262 401.5,95.5C 402.577,96.7051 403.91,97.3718 405.5,97.5C 406.136,99.7946 407.469,101.461 409.5,102.5C 408.761,102.369 408.094,102.536 407.5,103C 408.488,105.167 409.821,107 411.5,108.5C 413.522,110.531 415.189,112.865 416.5,115.5C 415.761,115.369 415.094,115.536 414.5,116C 416.628,119.755 418.628,123.588 420.5,127.5C 420.957,128.298 421.624,128.631 422.5,128.5C 422.833,129.167 423.167,129.833 423.5,130.5C 422.903,130.735 422.57,131.235 422.5,132C 452.225,211.607 441.058,284.774 389,351.5C 335.628,411.203 282.628,471.203 230,531.5C 227.318,534.35 224.484,537.016 221.5,539.5C 167.214,478.71 112.714,418.043 58,357.5C 3.21939,291.478 -10.6139,217.812 16.5,136.5C 16.5,135.833 16.5,135.167 16.5,134.5C 17.1174,134.611 17.6174,134.944 18,135.5C 22.2549,125.992 26.7549,116.659 31.5,107.5C 32.2674,106.828 32.9341,105.995 33.5,105C 33.2716,104.601 32.9382,104.435 32.5,104.5C 32.5,103.833 32.8333,103.5 33.5,103.5C 34.9063,103.027 35.573,102.027 35.5,100.5C 35.3893,99.8826 35.056,99.3826 34.5,99C 40.3753,92.6205 45.7086,85.7872 50.5,78.5C 51.325,77.6143 52.325,77.281 53.5,77.5C 53.3505,76.448 53.5172,75.448 54,74.5C 93.839,31.1621 143.339,6.16212 202.5,-0.5 Z"/></g>
<g><path style="opacity:1" fill="#fefefe" d="M 202.5,59.5 C 276.572,55.6021 330.072,86.6021 363,152.5C 384.293,207.981 377.959,259.981 344,308.5C 299.427,361.689 243.26,379.856 175.5,363C 111.594,340.09 75.4277,294.923 67,227.5C 64.2199,161.884 90.7199,112.051 146.5,78C 164.21,68.4851 182.877,62.3184 202.5,59.5 Z"/></g>
<g><path style="opacity:0.005" fill="#000000" d="M 387.5,75.5 C 388.833,75.5 389.5,76.1667 389.5,77.5C 388.5,77.1667 387.833,76.5 387.5,75.5 Z"/></g>
<g><path style="opacity:0.878" fill="#284863" d="M 398.5,88.5 C 400.653,91.5589 402.987,94.5589 405.5,97.5C 403.91,97.3718 402.577,96.7051 401.5,95.5C 400.68,93.0262 399.68,90.6929 398.5,88.5 Z"/></g>
<g><path style="opacity:0.016" fill="#484848" d="M 35.5,100.5 C 35.573,102.027 34.9063,103.027 33.5,103.5C 33.427,101.973 34.0937,100.973 35.5,100.5 Z"/></g>
<g><path style="opacity:0.01" fill="#000000" d="M 32.5,104.5 C 32.9382,104.435 33.2716,104.601 33.5,105C 32.9341,105.995 32.2674,106.828 31.5,107.5C 31.2627,106.209 31.596,105.209 32.5,104.5 Z"/></g>
<g><path style="opacity:0.009" fill="#121212" d="M 409.5,102.5 C 410.63,104.315 411.296,106.315 411.5,108.5C 409.821,107 408.488,105.167 407.5,103C 408.094,102.536 408.761,102.369 409.5,102.5 Z"/></g>
<g><path style="opacity:0.011" fill="#262728" d="M 31.5,107.5 C 26.7549,116.659 22.2549,125.992 18,135.5C 17.6174,134.944 17.1174,134.611 16.5,134.5C 20.2392,124.771 25.2392,115.771 31.5,107.5 Z"/></g>
<g><path style="opacity:0.011" fill="#1a1a1a" d="M 416.5,115.5 C 418.788,119.74 420.788,124.073 422.5,128.5C 421.624,128.631 420.957,128.298 420.5,127.5C 418.628,123.588 416.628,119.755 414.5,116C 415.094,115.536 415.761,115.369 416.5,115.5 Z"/></g>
<g><path style="opacity:1" fill="#2690d4" d="M 255.5,219.5 C 255.5,223.5 255.5,227.5 255.5,231.5C 267.345,231.828 279.012,231.495 290.5,230.5C 290.727,226.627 289.727,223.127 287.5,220C 288.009,218.831 288.842,217.998 290,217.5C 290.829,212.467 290.662,207.467 289.5,202.5C 287.31,201.252 286.977,199.586 288.5,197.5C 283.096,191.072 282.263,184.072 286,176.5C 291.216,171.15 296.716,166.15 302.5,161.5C 308.857,166.601 314.69,172.268 320,178.5C 321.564,185.482 320.397,191.816 316.5,197.5C 318.023,199.586 317.69,201.252 315.5,202.5C 314.338,207.467 314.171,212.467 315,217.5C 318.333,219.5 318.333,221.5 315,223.5C 314.5,243.497 314.333,263.497 314.5,283.5C 306.5,283.5 298.5,283.5 290.5,283.5C 290.666,275.493 290.5,267.493 290,259.5C 282.667,247.5 275.333,247.5 268,259.5C 267.5,267.493 267.334,275.493 267.5,283.5C 257.5,283.5 247.5,283.5 237.5,283.5C 237.828,272.986 237.494,262.653 236.5,252.5C 233.883,244.549 228.549,239.216 220.5,236.5C 212.46,239.207 207.126,244.54 204.5,252.5C 203.506,262.653 203.172,272.986 203.5,283.5C 193.5,283.5 183.5,283.5 173.5,283.5C 173.666,275.826 173.5,268.159 173,260.5C 166.112,247.768 158.778,247.435 151,259.5C 150.5,267.493 150.334,275.493 150.5,283.5C 142.5,283.5 134.5,283.5 126.5,283.5C 126.833,263.489 126.5,243.489 125.5,223.5C 122.757,221.302 122.923,219.302 126,217.5C 127.218,211.205 126.385,205.372 123.5,200C 123.735,199.127 124.069,198.293 124.5,197.5C 120.677,191.744 119.51,185.411 121,178.5C 126.806,172.272 132.806,166.272 139,160.5C 142.188,165.353 146.355,169.186 151.5,172C 158.902,180.283 159.236,188.783 152.5,197.5C 154.023,199.586 153.69,201.252 151.5,202.5C 150.338,207.467 150.171,212.467 151,217.5C 152.158,217.998 152.991,218.831 153.5,220C 151.273,223.127 150.273,226.627 150.5,230.5C 161.988,231.495 173.655,231.828 185.5,231.5C 185.5,227.5 185.5,223.5 185.5,219.5C 186.833,219.5 188.167,219.5 189.5,219.5C 189.664,216.813 189.497,214.146 189,211.5C 178.53,200.742 175.53,188.075 180,173.5C 183.894,164.592 189.728,157.092 197.5,151C 204.912,146.259 211.745,140.759 218,134.5C 218.803,131.756 219.803,129.089 221,126.5C 221.241,129.289 221.908,131.956 223,134.5C 229.255,140.759 236.088,146.259 243.5,151C 251.301,157.115 257.134,164.615 261,173.5C 265.47,188.075 262.47,200.742 252,211.5C 251.503,214.146 251.336,216.813 251.5,219.5C 252.833,219.5 254.167,219.5 255.5,219.5 Z"/></g>
<g><path style="opacity:0.1" fill="#131415" d="M 423.5,130.5 C 434.708,156.246 441.041,182.913 442.5,210.5C 442.5,210.833 442.5,211.167 442.5,211.5C 441.167,211.833 441.167,212.167 442.5,212.5C 442.5,216.833 442.5,221.167 442.5,225.5C 440.88,252.062 435.546,277.229 426.5,301C 425.869,303.099 424.869,304.932 423.5,306.5C 419.548,314.404 415.548,322.404 411.5,330.5C 409.952,330.821 409.285,331.821 409.5,333.5C 400.926,347.325 390.926,359.992 379.5,371.5C 379.565,371.062 379.399,370.728 379,370.5C 378.167,371.333 377.333,372.167 376.5,373C 376.728,373.399 377.062,373.565 377.5,373.5C 372.175,380.157 366.509,386.49 360.5,392.5C 359.662,392.842 359.328,393.508 359.5,394.5C 349.411,406.314 339.078,417.981 328.5,429.5C 326.167,429.833 324.833,431.167 324.5,433.5C 291.334,470.992 258.667,508.159 226.5,545C 223.463,546.85 220.463,546.85 217.5,545C 201.837,527.764 186.17,509.93 170.5,491.5C 169.994,489.895 169.327,489.561 168.5,490.5C 159.95,481.101 151.617,471.434 143.5,461.5C 142.994,459.895 142.327,459.561 141.5,460.5C 132.5,450.167 123.5,439.833 114.5,429.5C 114.591,427.302 113.925,426.969 112.5,428.5C 93.6821,406.896 74.8487,385.229 56,363.5C 55.6667,363.833 55.3333,364.167 55,364.5C 50.6691,358.01 46.1691,351.676 41.5,345.5C 41.631,344.761 41.4643,344.094 41,343.5C 40.31,342.262 39.81,342.262 39.5,343.5C 31.8268,332.607 25.1601,321.44 19.5,310C 19.8333,309.667 20.1667,309.333 20.5,309C 18.8934,307.951 18.2267,306.451 18.5,304.5C 18.573,302.973 17.9063,301.973 16.5,301.5C 8.91214,283.979 4.24548,265.813 2.5,247C 1.22016,240.105 0.220159,233.272 -0.5,226.5C -0.5,225.5 -0.5,224.5 -0.5,223.5C 0.833333,222.833 0.833333,222.167 -0.5,221.5C -0.5,219.5 -0.5,217.5 -0.5,215.5C 0.833333,213.833 0.833333,212.167 -0.5,210.5C -0.5,210.167 -0.5,209.833 -0.5,209.5C 0.83145,195.13 2.99812,180.464 6,165.5C 8.03018,160.41 9.86351,155.243 11.5,150C 11.1667,149.667 10.8333,149.333 10.5,149C 13.17,144.692 15.17,140.526 16.5,136.5C -10.6139,217.812 3.21939,291.478 58,357.5C 112.714,418.043 167.214,478.71 221.5,539.5C 224.484,537.016 227.318,534.35 230,531.5C 282.628,471.203 335.628,411.203 389,351.5C 441.058,284.774 452.225,211.607 422.5,132C 422.57,131.235 422.903,130.735 423.5,130.5 Z"/></g>
<g><path style="opacity:1" fill="#b7daf0" d="M 236.5,252.5 C 237.494,262.653 237.828,272.986 237.5,283.5C 247.5,283.5 257.5,283.5 267.5,283.5C 257.347,284.494 247.014,284.828 236.5,284.5C 236.5,273.833 236.5,263.167 236.5,252.5 Z"/></g>
<g><path style="opacity:1" fill="#b7daf0" d="M 204.5,252.5 C 204.5,263.167 204.5,273.833 204.5,284.5C 193.986,284.828 183.653,284.494 173.5,283.5C 183.5,283.5 193.5,283.5 203.5,283.5C 203.172,272.986 203.506,262.653 204.5,252.5 Z"/></g>
<g><path style="opacity:1" fill="#abd4ed" d="M 255.5,219.5 C 256.482,222.962 256.815,226.629 256.5,230.5C 267.833,230.5 279.167,230.5 290.5,230.5C 279.012,231.495 267.345,231.828 255.5,231.5C 255.5,227.5 255.5,223.5 255.5,219.5 Z"/></g>
<g><path style="opacity:1" fill="#abd4ed" d="M 185.5,219.5 C 185.5,223.5 185.5,227.5 185.5,231.5C 173.655,231.828 161.988,231.495 150.5,230.5C 161.833,230.5 173.167,230.5 184.5,230.5C 184.185,226.629 184.518,222.962 185.5,219.5 Z"/></g>
<g><path style="opacity:0.008" fill="#9e9e9e" d="M 16.5,301.5 C 17.9063,301.973 18.573,302.973 18.5,304.5C 17.0937,304.027 16.427,303.027 16.5,301.5 Z"/></g>
<g><path style="opacity:0.004" fill="#000000" d="M 423.5,306.5 C 424.833,307.167 424.833,307.167 423.5,306.5 Z"/></g>
<g><path style="opacity:0.004" fill="#f0f0f0" d="M 411.5,330.5 C 411.068,331.71 410.401,332.71 409.5,333.5C 409.285,331.821 409.952,330.821 411.5,330.5 Z"/></g>
<g><path style="opacity:0.004" fill="#cacaca" d="M 41.5,345.5 C 40.5,345.167 39.8333,344.5 39.5,343.5C 39.81,342.262 40.31,342.262 41,343.5C 41.4643,344.094 41.631,344.761 41.5,345.5 Z"/></g>
<g><path style="opacity:0.004" fill="#cacaca" d="M 379.5,371.5 C 379.167,372.5 378.5,373.167 377.5,373.5C 377.062,373.565 376.728,373.399 376.5,373C 377.333,372.167 378.167,371.333 379,370.5C 379.399,370.728 379.565,371.062 379.5,371.5 Z"/></g>
<g><path style="opacity:0.004" fill="#b8b8b8" d="M 360.5,392.5 C 361.439,393.327 361.105,393.994 359.5,394.5C 359.328,393.508 359.662,392.842 360.5,392.5 Z"/></g>
<g><path style="opacity:0.004" fill="#dddddd" d="M 114.5,429.5 C 113.508,429.672 112.842,429.338 112.5,428.5C 113.925,426.969 114.591,427.302 114.5,429.5 Z"/></g>
<g><path style="opacity:0.004" fill="#b2b2b2" d="M 328.5,429.5 C 327.5,431.167 326.167,432.5 324.5,433.5C 324.833,431.167 326.167,429.833 328.5,429.5 Z"/></g>
<g><path style="opacity:0.004" fill="#fefffe" d="M 143.5,461.5 C 142.508,461.672 141.842,461.338 141.5,460.5C 142.327,459.561 142.994,459.895 143.5,461.5 Z"/></g>
<g><path style="opacity:0.004" fill="#fefffe" d="M 170.5,491.5 C 169.508,491.672 168.842,491.338 168.5,490.5C 169.327,489.561 169.994,489.895 170.5,491.5 Z"/></g>
</svg>
