<?xml version="1.0" encoding="UTF-8"?>
<!DOCTYPE svg PUBLIC "-//W3C//DTD SVG 1.1//EN" "http://www.w3.org/Graphics/SVG/1.1/DTD/svg11.dtd">
<svg xmlns="http://www.w3.org/2000/svg" version="1.1" width="443px" height="548px" style="shape-rendering:geometricPrecision; text-rendering:geometricPrecision; image-rendering:optimizeQuality; fill-rule:evenodd; clip-rule:evenodd" xmlns:xlink="http://www.w3.org/1999/xlink">
<g><path style="opacity:0.999" fill="#01a24f" d="M 208.5,-0.5 C 216.833,-0.5 225.167,-0.5 233.5,-0.5C 296.823,5.1614 349.49,31.4947 391.5,78.5C 390.185,79.8946 390.519,80.8946 392.5,81.5C 393.833,81.5 394.5,82.1667 394.5,83.5C 394.328,84.4916 394.662,85.1583 395.5,85.5C 396.71,85.9321 397.71,86.5987 398.5,87.5C 397.527,89.2916 398.194,90.625 400.5,91.5C 401.167,92.5 401.833,93.5 402.5,94.5C 402.5,96.5 403.5,97.5 405.5,97.5C 405.5,97.8333 405.5,98.1667 405.5,98.5C 404.561,99.3274 404.895,99.9941 406.5,100.5C 406.75,102.674 407.75,104.341 409.5,105.5C 410.079,108.331 411.412,110.664 413.5,112.5C 414.167,112.5 414.5,112.833 414.5,113.5C 413.957,113.56 413.624,113.893 413.5,114.5C 415.105,117.585 416.771,119.918 418.5,121.5C 419.338,121.842 419.672,122.508 419.5,123.5C 419.062,123.435 418.728,123.601 418.5,124C 419.066,124.995 419.733,125.828 420.5,126.5C 429.289,146.989 434.956,168.322 437.5,190.5C 443.635,253.007 426.469,308.007 386,355.5C 331.263,416.896 276.596,478.229 222,539.5C 161.625,474.123 102.292,407.79 44,340.5C 1.17689,278.211 -7.98978,211.211 16.5,139.5C 16.5,139.167 16.5,138.833 16.5,138.5C 18.685,134.787 20.3517,130.787 21.5,126.5C 24.0078,122.818 26.0078,118.818 27.5,114.5C 27.6596,112.847 28.3263,111.514 29.5,110.5C 30.7069,110.622 31.3736,109.622 31.5,107.5C 31.3284,106.508 31.6618,105.842 32.5,105.5C 34.2503,104.341 35.2503,102.674 35.5,100.5C 36.9063,100.027 37.573,99.0269 37.5,97.5C 39.4354,93.2934 42.1021,89.6267 45.5,86.5C 46.5,86.1667 47.1667,85.5 47.5,84.5C 47.3284,83.5084 47.6618,82.8417 48.5,82.5C 49.8333,81.8333 50.8333,80.8333 51.5,79.5C 92.1123,31.5305 144.446,4.86384 208.5,-0.5 Z"/></g>
<g><path style="opacity:1" fill="#fefefe" d="M 205.5,59.5 C 269.907,56.4503 319.407,81.7837 354,135.5C 381.988,186.826 382.654,238.492 356,290.5C 328.867,336.338 288.7,362.504 235.5,369C 163.019,372.188 110.853,341.354 79,276.5C 56.5314,218.901 63.8647,165.568 101,116.5C 128.462,84.0185 163.295,65.0185 205.5,59.5 Z"/></g>
<g><path style="opacity:0.005" fill="#1c1c1c" d="M 391.5,78.5 C 392.404,79.209 392.737,80.209 392.5,81.5C 390.519,80.8946 390.185,79.8946 391.5,78.5 Z"/></g>
<g><path style="opacity:0.005" fill="#292929" d="M 51.5,79.5 C 50.8333,80.8333 49.8333,81.8333 48.5,82.5C 48.5,80.5 49.5,79.5 51.5,79.5 Z"/></g>
<g><path style="opacity:0.006" fill="#3b3b3b" d="M 394.5,83.5 C 396.698,83.4088 397.031,84.0755 395.5,85.5C 394.662,85.1583 394.328,84.4916 394.5,83.5 Z"/></g>
<g><path style="opacity:0.008" fill="#3b3b3b" d="M 47.5,84.5 C 47.1667,85.5 46.5,86.1667 45.5,86.5C 45.5,85.1667 46.1667,84.5 47.5,84.5 Z"/></g>
<g><path style="opacity:0.005" fill="#000000" d="M 398.5,87.5 C 399.6,88.6049 400.267,89.9382 400.5,91.5C 398.194,90.625 397.527,89.2916 398.5,87.5 Z"/></g>
<g><path style="opacity:0.006" fill="#000000" d="M 402.5,94.5 C 403.833,95.1667 404.833,96.1667 405.5,97.5C 403.5,97.5 402.5,96.5 402.5,94.5 Z"/></g>
<g><path style="opacity:0.007" fill="#1c1c1c" d="M 37.5,97.5 C 37.573,99.0269 36.9063,100.027 35.5,100.5C 35.427,98.9731 36.0937,97.9731 37.5,97.5 Z"/></g>
<g><path style="opacity:0.008" fill="#000000" d="M 405.5,98.5 C 406.338,98.8417 406.672,99.5084 406.5,100.5C 404.895,99.9941 404.561,99.3274 405.5,98.5 Z"/></g>
<g><path style="opacity:0.008" fill="#2b2b2b" d="M 406.5,100.5 C 408.25,101.659 409.25,103.326 409.5,105.5C 407.75,104.341 406.75,102.674 406.5,100.5 Z"/></g>
<g><path style="opacity:0.012" fill="#5d5d5d" d="M 35.5,100.5 C 35.2503,102.674 34.2503,104.341 32.5,105.5C 32.7497,103.326 33.7497,101.659 35.5,100.5 Z"/></g>
<g><path style="opacity:0.008" fill="#383838" d="M 409.5,105.5 C 411.669,107.34 413.002,109.674 413.5,112.5C 411.412,110.664 410.079,108.331 409.5,105.5 Z"/></g>
<g><path style="opacity:0.01" fill="#000000" d="M 31.5,107.5 C 31.3736,109.622 30.7069,110.622 29.5,110.5C 29.427,108.973 30.0937,107.973 31.5,107.5 Z"/></g>
<g><path style="opacity:1" fill="#07a451" d="M 221.5,114.5 C 231.444,113.939 234.61,118.272 231,127.5C 225.738,135.959 221.238,144.793 217.5,154C 219.184,161.921 221.184,169.754 223.5,177.5C 231.917,182.124 240.084,187.124 248,192.5C 253.667,200.167 259.333,207.833 265,215.5C 269.298,219.937 269.465,224.437 265.5,229C 254.693,232.879 244.026,237.046 233.5,241.5C 239.846,247.346 246.012,253.346 252,259.5C 252.667,272.5 252.667,285.5 252,298.5C 247.737,305.157 242.403,306.157 236,301.5C 234.708,289.93 234.042,278.263 234,266.5C 225.686,259.687 217.519,252.687 209.5,245.5C 205.842,243.421 202.008,241.754 198,240.5C 184.297,259.568 171.297,279.235 159,299.5C 153.16,306.111 147.494,306.111 142,299.5C 141.183,296.036 141.517,292.702 143,289.5C 166.252,255.56 187.918,220.56 208,184.5C 206.858,175.052 204.858,165.718 202,156.5C 201.333,153.833 201.333,151.167 202,148.5C 207.769,136.615 214.269,125.281 221.5,114.5 Z"/></g>
<g><path style="opacity:0.011" fill="#222a24" d="M 414.5,113.5 C 416.358,115.883 417.692,118.55 418.5,121.5C 416.771,119.918 415.105,117.585 413.5,114.5C 413.624,113.893 413.957,113.56 414.5,113.5 Z"/></g>
<g><path style="opacity:0.009" fill="#191919" d="M 27.5,114.5 C 26.0078,118.818 24.0078,122.818 21.5,126.5C 21.3893,125.883 21.056,125.383 20.5,125C 22.7327,121.349 25.066,117.849 27.5,114.5 Z"/></g>
<g><path style="opacity:0.012" fill="#000000" d="M 419.5,123.5 C 420.404,124.209 420.737,125.209 420.5,126.5C 419.733,125.828 419.066,124.995 418.5,124C 418.728,123.601 419.062,123.435 419.5,123.5 Z"/></g>
<g><path style="opacity:0.016" fill="#2d2d2d" d="M 21.5,126.5 C 20.3517,130.787 18.685,134.787 16.5,138.5C 16.5,137.833 16.1667,137.5 15.5,137.5C 17.2116,134.739 18.3782,131.739 19,128.5C 19.7083,127.619 20.5416,126.953 21.5,126.5 Z"/></g>
<g><path style="opacity:0.012" fill="#212121" d="M 420.5,126.5 C 421.885,127.574 423.051,128.907 424,130.5C 431.924,148.835 437.424,168.168 440.5,188.5C 439.5,189.167 438.5,189.833 437.5,190.5C 434.956,168.322 429.289,146.989 420.5,126.5 Z"/></g>
<g><path style="opacity:0.012" fill="#afafaf" d="M 15.5,137.5 C 16.1667,137.5 16.5,137.833 16.5,138.5C 16.5,138.833 16.5,139.167 16.5,139.5C 15.8333,139.833 15.1667,140.167 14.5,140.5C 14.5569,139.391 14.8902,138.391 15.5,137.5 Z"/></g>
<g><path style="opacity:1" fill="#0ea452" d="M 236.5,149.5 C 250.845,148.679 257.678,155.346 257,169.5C 254.216,176.486 249.05,180.486 241.5,181.5C 227.427,177.686 223.26,169.019 229,155.5C 231.478,153.361 233.978,151.361 236.5,149.5 Z"/></g>
<g><path style="opacity:0.004" fill="#fefffe" d="M 425.5,302.5 C 425.938,302.435 426.272,302.601 426.5,303C 425.934,303.995 425.267,304.828 424.5,305.5C 424.263,304.209 424.596,303.209 425.5,302.5 Z"/></g>
<g><path style="opacity:0.102" fill="#131514" d="M 16.5,139.5 C -7.98978,211.211 1.17689,278.211 44,340.5C 102.292,407.79 161.625,474.123 222,539.5C 276.596,478.229 331.263,416.896 386,355.5C 426.469,308.007 443.635,253.007 437.5,190.5C 438.5,189.833 439.5,189.167 440.5,188.5C 440.796,196.014 441.462,203.347 442.5,210.5C 442.5,210.833 442.5,211.167 442.5,211.5C 441.167,211.833 441.167,212.167 442.5,212.5C 442.5,217.167 442.5,221.833 442.5,226.5C 441.311,253.032 435.644,278.365 425.5,302.5C 424.596,303.209 424.263,304.209 424.5,305.5C 420.638,314.042 416.304,322.376 411.5,330.5C 409.952,330.821 409.285,331.821 409.5,333.5C 404.263,341.626 398.763,349.626 393,357.5C 378.002,374.36 362.502,391.36 346.5,408.5C 346.44,407.957 346.107,407.624 345.5,407.5C 344.438,409.022 343.771,410.688 343.5,412.5C 304.934,455.788 266.267,499.788 227.5,544.5C 222.539,547.554 218.205,546.887 214.5,542.5C 214.938,542.565 215.272,542.399 215.5,542C 214.874,541.25 214.374,540.416 214,539.5C 213.601,539.728 213.435,540.062 213.5,540.5C 202.122,527.826 190.789,515.159 179.5,502.5C 176.369,499.871 173.369,497.038 170.5,494C 167.107,488.555 162.607,483.388 157,478.5C 152.643,472.652 148.143,466.985 143.5,461.5C 142.994,459.895 142.327,459.561 141.5,460.5C 126.435,443.442 111.435,426.442 96.5,409.5C 96.1667,408.5 95.5,407.833 94.5,407.5C 77.8753,389.404 61.7087,371.404 46,353.5C 17.4107,315.531 1.91069,273.197 -0.5,226.5C -0.5,225.5 -0.5,224.5 -0.5,223.5C 0.833333,223.167 0.833333,222.833 -0.5,222.5C -0.5,220.167 -0.5,217.833 -0.5,215.5C 0.833333,213.833 0.833333,212.167 -0.5,210.5C -0.5,210.167 -0.5,209.833 -0.5,209.5C 1.39119,185.336 6.39119,162.336 14.5,140.5C 15.1667,140.167 15.8333,139.833 16.5,139.5 Z"/></g>
<g><path style="opacity:1" fill="#f3faf6" d="M 239.5,208.5 C 242.493,211.501 245.159,214.835 247.5,218.5C 242.095,221.576 236.428,223.743 230.5,225C 233.906,219.686 236.906,214.186 239.5,208.5 Z"/></g>
<g><path style="opacity:0.004" fill="#f0f0f0" d="M 411.5,330.5 C 411.068,331.71 410.401,332.71 409.5,333.5C 409.285,331.821 409.952,330.821 411.5,330.5 Z"/></g>
<g><path style="opacity:0.004" fill="#fefffe" d="M 94.5,407.5 C 95.5,407.833 96.1667,408.5 96.5,409.5C 95.1667,409.5 94.5,408.833 94.5,407.5 Z"/></g>
<g><path style="opacity:0.02" fill="#5f5f5f" d="M 346.5,408.5 C 346.262,410.404 345.262,411.738 343.5,412.5C 343.771,410.688 344.438,409.022 345.5,407.5C 346.107,407.624 346.44,407.957 346.5,408.5 Z"/></g>
<g><path style="opacity:0.004" fill="#bdbdbd" d="M 143.5,461.5 C 142.508,461.672 141.842,461.338 141.5,460.5C 142.327,459.561 142.994,459.895 143.5,461.5 Z"/></g>
<g><path style="opacity:0.004" fill="#000000" d="M 179.5,502.5 C 178.833,503.167 178.833,503.167 179.5,502.5 Z"/></g>
<g><path style="opacity:0.004" fill="#acacac" d="M 214.5,542.5 C 213.662,542.158 213.328,541.492 213.5,540.5C 213.435,540.062 213.601,539.728 214,539.5C 214.374,540.416 214.874,541.25 215.5,542C 215.272,542.399 214.938,542.565 214.5,542.5 Z"/></g>
</svg>
