<?xml version="1.0" encoding="UTF-8"?>
<!DOCTYPE svg PUBLIC "-//W3C//DTD SVG 1.1//EN" "http://www.w3.org/Graphics/SVG/1.1/DTD/svg11.dtd">
<svg xmlns="http://www.w3.org/2000/svg" version="1.1" width="435px" height="429px" style="shape-rendering:geometricPrecision; text-rendering:geometricPrecision; image-rendering:optimizeQuality; fill-rule:evenodd; clip-rule:evenodd" xmlns:xlink="http://www.w3.org/1999/xlink">
<g><path style="opacity:0.989" fill="#fefefe" d="M 196.5,-0.5 C 210.167,-0.5 223.833,-0.5 237.5,-0.5C 318.546,9.74029 377.712,51.0736 415,123.5C 425.104,145.96 431.604,169.293 434.5,193.5C 434.5,207.167 434.5,220.833 434.5,234.5C 423.613,314.794 381.946,372.96 309.5,409C 286.397,419.273 262.397,425.773 237.5,428.5C 223.833,428.5 210.167,428.5 196.5,428.5C 115.454,418.26 56.2877,376.926 19,304.5C 8.89563,282.04 2.39563,258.707 -0.5,234.5C -0.5,220.833 -0.5,207.167 -0.5,193.5C 10.387,113.206 52.0537,55.0395 124.5,19C 147.603,8.72673 171.603,2.22673 196.5,-0.5 Z"/></g>
<g><path style="opacity:1" fill="#004dea" d="M 201.5,48.5 C 258.352,45.5245 305.518,65.1911 343,107.5C 378.708,153.03 389.375,204.03 375,260.5C 352.774,326.056 307.607,365.223 239.5,378C 164.627,384.317 108.46,355.15 71,290.5C 39.3347,220.825 48.3347,157.159 98,99.5C 126.682,70.5753 161.182,53.5753 201.5,48.5 Z"/></g>
</svg>
