<?xml version="1.0" encoding="UTF-8"?>
<!DOCTYPE svg PUBLIC "-//W3C//DTD SVG 1.1//EN" "http://www.w3.org/Graphics/SVG/1.1/DTD/svg11.dtd">
<svg xmlns="http://www.w3.org/2000/svg" version="1.1" width="435px" height="429px" style="shape-rendering:geometricPrecision; text-rendering:geometricPrecision; image-rendering:optimizeQuality; fill-rule:evenodd; clip-rule:evenodd" xmlns:xlink="http://www.w3.org/1999/xlink">
<g><path style="opacity:0.989" fill="#fefefe" d="M 196.5,-0.5 C 210.167,-0.5 223.833,-0.5 237.5,-0.5C 318.546,9.74029 377.712,51.0736 415,123.5C 425.104,145.96 431.604,169.293 434.5,193.5C 434.5,207.167 434.5,220.833 434.5,234.5C 423.613,314.794 381.946,372.96 309.5,409C 286.397,419.273 262.397,425.773 237.5,428.5C 223.833,428.5 210.167,428.5 196.5,428.5C 115.454,418.26 56.2877,376.926 19,304.5C 8.89563,282.04 2.39563,258.707 -0.5,234.5C -0.5,220.833 -0.5,207.167 -0.5,193.5C 10.387,113.206 52.0537,55.0395 124.5,19C 147.603,8.72673 171.603,2.22673 196.5,-0.5 Z"/></g>
<g><path style="opacity:1" fill="#003399" d="M 201.5,48.5 C 271.573,45.7785 324.74,74.1118 361,133.5C 386.537,183.012 388.204,233.345 366,284.5C 339.255,337.553 296.422,368.719 237.5,378C 164.385,383.696 109.218,355.196 72,292.5C 41.9204,229.961 46.5871,170.294 86,113.5C 115.572,76.1269 154.072,54.4603 201.5,48.5 Z"/></g>
</svg>
