<?xml version="1.0" encoding="UTF-8"?>
<svg xmlns="http://www.w3.org/2000/svg" version="1.1" width="512px" height="512px" style="shape-rendering:geometricPrecision; text-rendering:geometricPrecision; image-rendering:optimizeQuality; fill-rule:evenodd; clip-rule:evenodd" xmlns:xlink="http://www.w3.org/1999/xlink">
<g><path style="opacity:1" fill="#fefffe" d="M 316.5,106.5 C 330.792,107.292 338.792,114.792 340.5,129C 339.836,132.991 338.669,136.824 337,140.5C 299.347,178.986 261.514,217.319 223.5,255.5C 261.847,294.014 300.014,332.681 338,371.5C 343.67,383.323 341.503,393.489 331.5,402C 322.082,407.031 313.082,406.365 304.5,400C 261.333,356.833 218.167,313.667 175,270.5C 167.45,259.904 167.783,249.571 176,239.5C 218.167,197.333 260.333,155.167 302.5,113C 306.677,109.562 311.344,107.396 316.5,106.5 Z"/></g>
</svg>
