<?xml version="1.0" encoding="UTF-8"?>
<svg xmlns="http://www.w3.org/2000/svg" version="1.1" width="512px" height="512px" style="shape-rendering:geometricPrecision; text-rendering:geometricPrecision; image-rendering:optimizeQuality; fill-rule:evenodd; clip-rule:evenodd" xmlns:xlink="http://www.w3.org/1999/xlink">
<g><path style="opacity:1" fill="#fefffe" d="M 511.5,305.5 C 511.5,314.833 511.5,324.167 511.5,333.5C 502.658,376.843 476.658,403.676 433.5,414C 390.976,419.647 357.809,404.814 334,369.5C 318.36,341.109 316.36,311.776 328,281.5C 336.188,263.31 348.688,248.81 365.5,238C 359.671,224.517 353.837,211.017 348,197.5C 315.289,242.422 282.456,287.255 249.5,332C 247.283,333.275 244.949,334.275 242.5,335C 224.824,335.167 207.157,335.667 189.5,336.5C 179.039,381.462 151.039,407.629 105.5,415C 69.6199,417.828 40.4533,405.328 18,377.5C 8.59782,364.108 2.43115,349.442 -0.5,333.5C -0.5,324.167 -0.5,314.833 -0.5,305.5C 7.31346,267.182 29.6468,241.349 66.5,228C 93.7518,220.521 119.752,223.688 144.5,237.5C 154.185,226.632 163.518,215.466 172.5,204C 166.304,189.109 159.971,174.275 153.5,159.5C 148.533,158.671 143.533,158.171 138.5,158C 128.142,152.929 125.309,145.096 130,134.5C 132.341,131.165 135.507,128.998 139.5,128C 163.5,127.333 187.5,127.333 211.5,128C 220.85,131.663 224.35,138.497 222,148.5C 220.073,153.428 216.573,156.594 211.5,158C 203.479,158.168 195.479,158.668 187.5,159.5C 191.9,169.041 195.9,178.708 199.5,188.5C 243.367,177.95 287.034,166.617 330.5,154.5C 326.161,145.664 322.828,136.497 320.5,127C 320.418,122.239 322.085,118.239 325.5,115C 343.24,108.086 361.24,101.752 379.5,96C 394,94.5 400.5,101 399,115.5C 396.833,120.333 393.333,123.833 388.5,126C 377.759,129.469 367.092,133.136 356.5,137C 369.129,166.427 381.629,195.927 394,225.5C 440.507,218.329 476.174,234.663 501,274.5C 505.903,284.483 509.403,294.816 511.5,305.5 Z M 312.5,192.5 C 289.552,224.622 266.385,256.622 243,288.5C 232.962,264.927 222.796,241.427 212.5,218C 245.688,208.87 279.022,200.37 312.5,192.5 Z M 185.5,237.5 C 187.335,238.122 188.502,239.456 189,241.5C 197.558,262.283 206.391,282.949 215.5,303.5C 186.506,304.667 157.506,304.833 128.5,304C 148.084,282.256 167.084,260.089 185.5,237.5 Z M 91.5,254.5 C 102.772,254.485 113.439,256.985 123.5,262C 110.041,278.461 96.2079,294.628 82,310.5C 76.7155,322.081 79.8821,330.247 91.5,335C 113.508,335.167 135.508,335.667 157.5,336.5C 144.259,372.458 118.593,387.958 80.5,383C 44.4111,371.352 27.9111,346.519 31,308.5C 39.1399,276.852 59.3066,258.852 91.5,254.5 Z M 414.5,254.5 C 449.459,256.629 471.292,274.629 480,308.5C 483.362,340.617 470.862,364.117 442.5,379C 412.224,390.139 386.391,383.639 365,359.5C 346.433,331.7 347.1,304.367 367,277.5C 370.058,273.938 373.558,270.938 377.5,268.5C 386.271,288.376 394.771,308.376 403,328.5C 410.584,336.794 418.751,337.461 427.5,330.5C 431.211,325.772 432.378,320.438 431,314.5C 423.109,295.051 414.942,275.718 406.5,256.5C 409.306,255.832 411.972,255.166 414.5,254.5 Z"/></g>
</svg>
