<?xml version="1.0" encoding="UTF-8"?>
<svg xmlns="http://www.w3.org/2000/svg" version="1.1" width="512px" height="512px" style="shape-rendering:geometricPrecision; text-rendering:geometricPrecision; image-rendering:optimizeQuality; fill-rule:evenodd; clip-rule:evenodd" xmlns:xlink="http://www.w3.org/1999/xlink">
<g><path style="opacity:1" fill="#fefffe" d="M 237.5,20.5 C 333.118,17.3848 406.618,55.7181 458,135.5C 495.713,203.12 500.713,273.12 473,345.5C 441.895,415.808 389.395,461.641 315.5,483C 223.017,503.5 144.184,479.667 79,411.5C 25.3888,346.806 8.72216,273.472 29,191.5C 50.8553,119.311 96.3553,68.1445 165.5,38C 188.793,28.6757 212.793,22.8424 237.5,20.5 Z M 252.5,63.5 C 334.239,66.2574 393.406,103.924 430,176.5C 450.478,225.313 451.811,274.646 434,324.5C 407.443,387.384 360.943,426.884 294.5,443C 213.057,456.196 147.557,430.03 98,364.5C 62.7215,310.611 55.0548,252.944 75,191.5C 99.7959,127.037 145.629,86.2034 212.5,69C 225.849,66.1665 239.182,64.3332 252.5,63.5 Z"/></g>
<g><path style="opacity:1" fill="#fefffe" d="M 251.5,105.5 C 264.91,104.766 273.41,110.766 277,123.5C 277.333,164.5 277.667,205.5 278,246.5C 297,265.5 316,284.5 335,303.5C 343.783,315.326 342.95,326.492 332.5,337C 322.449,342.83 312.783,342.163 303.5,335C 282.333,313.833 261.167,292.667 240,271.5C 237.938,269.099 236.271,266.433 235,263.5C 233.353,216.879 233.02,170.212 234,123.5C 236.014,113.654 241.847,107.654 251.5,105.5 Z"/></g>
</svg>
