<?xml version="1.0" encoding="UTF-8"?>
<!DOCTYPE svg PUBLIC "-//W3C//DTD SVG 1.1//EN" "http://www.w3.org/Graphics/SVG/1.1/DTD/svg11.dtd">
<svg xmlns="http://www.w3.org/2000/svg" version="1.1" width="512px" height="512px" style="shape-rendering:geometricPrecision; text-rendering:geometricPrecision; image-rendering:optimizeQuality; fill-rule:evenodd; clip-rule:evenodd" xmlns:xlink="http://www.w3.org/1999/xlink">
<g><path style="opacity:0.992" fill="#03172b" d="M 209.5,31.5 C 215.105,30.9081 220.439,31.7415 225.5,34C 243.333,55.1667 261.167,76.3333 279,97.5C 279.333,78.8333 279.667,60.1667 280,41.5C 284.473,32.5178 291.64,29.3511 301.5,32C 306,33.8333 309.167,37 311,41.5C 311.667,77.5 311.667,113.5 311,149.5C 308.23,156.473 303.063,159.806 295.5,159.5C 291.877,159.756 288.544,158.923 285.5,157C 267.667,135.833 249.833,114.667 232,93.5C 231.667,112.167 231.333,130.833 231,149.5C 226.527,158.482 219.36,161.649 209.5,159C 205,157.167 201.833,154 200,149.5C 199.333,113.5 199.333,77.5 200,41.5C 202.022,36.98 205.189,33.6467 209.5,31.5 Z"/></g>
<g><path style="opacity:0.999" fill="#fe0400" d="M 249.5,175.5 C 259.36,173.35 266.527,176.683 271,185.5C 303,276.167 335,366.833 367,457.5C 369.933,470.653 364.766,477.987 351.5,479.5C 348.088,478.98 344.755,478.147 341.5,477C 313.232,454.89 284.566,433.39 255.5,412.5C 226.85,433.167 198.517,454.334 170.5,476C 163.995,479.963 157.329,480.296 150.5,477C 143.447,470.863 141.614,463.363 145,454.5C 177.055,363.393 209.388,272.393 242,181.5C 244.114,178.879 246.614,176.879 249.5,175.5 Z"/></g>
</svg>
