<?xml version="1.0" encoding="UTF-8"?>
<svg xmlns="http://www.w3.org/2000/svg" version="1.1" width="512px" height="512px" style="shape-rendering:geometricPrecision; text-rendering:geometricPrecision; image-rendering:optimizeQuality; fill-rule:evenodd; clip-rule:evenodd" xmlns:xlink="http://www.w3.org/1999/xlink">
<g><path style="opacity:0.973" fill="#000000" d="M 248.5,-0.5 C 253.167,-0.5 257.833,-0.5 262.5,-0.5C 269.997,2.83509 274.831,8.50176 277,16.5C 277.168,25.1858 277.668,33.8525 278.5,42.5C 359.221,54.4167 417.055,97.0834 452,170.5C 460.314,190.421 465.814,211.088 468.5,232.5C 477.148,233.332 485.814,233.832 494.5,234C 502.498,236.169 508.165,241.003 511.5,248.5C 511.5,253.167 511.5,257.833 511.5,262.5C 508.165,269.997 502.498,274.831 494.5,277C 485.814,277.168 477.148,277.668 468.5,278.5C 456.583,359.221 413.917,417.055 340.5,452C 320.579,460.314 299.912,465.814 278.5,468.5C 277.668,477.148 277.168,485.814 277,494.5C 274.831,502.498 269.997,508.165 262.5,511.5C 257.833,511.5 253.167,511.5 248.5,511.5C 241.003,508.165 236.169,502.498 234,494.5C 233.832,485.814 233.332,477.148 232.5,468.5C 151.779,456.583 93.9453,413.917 59,340.5C 50.6863,320.579 45.1863,299.912 42.5,278.5C 33.8525,277.668 25.1858,277.168 16.5,277C 8.50176,274.831 2.83509,269.997 -0.5,262.5C -0.5,257.833 -0.5,253.167 -0.5,248.5C 2.83509,241.003 8.50176,236.169 16.5,234C 25.1858,233.832 33.8525,233.332 42.5,232.5C 54.4167,151.779 97.0834,93.9453 170.5,59C 190.421,50.6863 211.088,45.1863 232.5,42.5C 233.332,33.8525 233.832,25.1858 234,16.5C 236.169,8.50176 241.003,2.83509 248.5,-0.5 Z M 276.5,86.5 C 346.992,98.4969 394.159,138.164 418,205.5C 420.571,214.948 422.738,224.448 424.5,234C 409.29,236.904 402.79,246.071 405,261.5C 408.131,270.825 414.631,275.992 424.5,277C 415.78,330.481 388.78,371.815 343.5,401C 322.872,413.209 300.706,421.042 277,424.5C 274.096,409.29 264.929,402.79 249.5,405C 240.175,408.131 235.008,414.631 234,424.5C 180.519,415.78 139.185,388.78 110,343.5C 97.791,322.872 89.9576,300.706 86.5,277C 101.71,274.096 108.21,264.929 106,249.5C 102.869,240.175 96.3689,235.008 86.5,234C 98.7283,163.777 138.395,116.777 205.5,93C 214.947,89.9438 224.614,88.1105 234.5,87.5C 238.12,103.821 248.12,109.654 264.5,105C 271.932,101.066 275.932,94.8997 276.5,86.5 Z"/></g>
<g><path style="opacity:1" fill="#004deb" d="M 243.5,148.5 C 289.525,145.761 324.692,163.761 349,202.5C 367,237.833 367,273.167 349,308.5C 318.947,354.259 277.114,370.759 223.5,358C 180.603,342.708 155.77,312.541 149,267.5C 145.773,221.452 163.606,186.286 202.5,162C 215.46,154.957 229.127,150.457 243.5,148.5 Z"/></g>
</svg>
