<?xml version="1.0" encoding="UTF-8"?>
<svg xmlns="http://www.w3.org/2000/svg" version="1.1" width="512px" height="512px" style="shape-rendering:geometricPrecision; text-rendering:geometricPrecision; image-rendering:optimizeQuality; fill-rule:evenodd; clip-rule:evenodd" xmlns:xlink="http://www.w3.org/1999/xlink">
<g><path style="opacity:1" fill="#fefffe" d="M 511.5,370.5 C 511.5,379.833 511.5,389.167 511.5,398.5C 502.013,446.154 473.346,474.654 425.5,484C 376.337,488.177 340.837,468.344 319,424.5C 303.009,380.441 311.509,341.941 344.5,309C 354.336,300.749 365.336,294.582 377.5,290.5C 375.704,280.187 374.037,269.854 372.5,259.5C 362.917,259.182 353.417,259.515 344,260.5C 317.749,303.334 291.749,346.334 266,389.5C 265.667,398.167 265.333,406.833 265,415.5C 260.652,423.915 253.819,426.748 244.5,424C 240.333,422.5 237.5,419.667 236,415.5C 235.501,410.177 235.334,404.844 235.5,399.5C 223.167,399.5 210.833,399.5 198.5,399.5C 190.186,444.315 163.853,472.149 119.5,483C 65.4173,490.051 27.2507,468.884 5,419.5C 2.70496,412.486 0.871627,405.486 -0.5,398.5C -0.5,389.167 -0.5,379.833 -0.5,370.5C 8.98726,322.846 37.6539,294.346 85.5,285C 103.3,282.742 120.467,284.909 137,291.5C 145.084,279.001 152.917,266.334 160.5,253.5C 139.691,222.485 138.191,190.485 156,157.5C 172.748,136.081 190.248,115.248 208.5,95C 222.352,85.1111 237.352,82.9444 253.5,88.5C 247.998,67.4995 253.332,49.6662 269.5,35C 285.091,25.2482 301.424,23.9148 318.5,31C 338.465,43.4464 345.965,61.2797 341,84.5C 332.438,107.21 315.938,118.043 291.5,117C 307.833,130.667 324.167,144.333 340.5,158C 362.5,158.333 384.5,158.667 406.5,159C 414.915,163.348 417.748,170.181 415,179.5C 413.5,183.667 410.667,186.5 406.5,188C 401.177,188.499 395.844,188.666 390.5,188.5C 395.986,220.265 401.986,251.932 408.5,283.5C 456.629,284.958 489.462,307.958 507,352.5C 508.71,358.581 510.21,364.581 511.5,370.5 Z M 295.5,162.5 C 297.255,163.072 298.922,163.906 300.5,165C 309.542,173.045 318.876,180.711 328.5,188C 338.494,188.5 348.494,188.666 358.5,188.5C 361.009,202.059 363.676,215.559 366.5,229C 325.163,229.833 283.829,229.667 242.5,228.5C 243.831,225.166 245.665,222.166 248,219.5C 264.421,200.919 280.255,181.919 295.5,162.5 Z M 248.5,259.5 C 268.178,259.167 287.845,259.5 307.5,260.5C 293.865,283.298 280.032,305.965 266,328.5C 265.667,320.833 265.333,313.167 265,305.5C 259.208,290.253 253.708,274.92 248.5,259.5 Z M 183.5,276.5 C 200.794,290.622 217.96,304.955 235,319.5C 235.5,336.163 235.667,352.83 235.5,369.5C 223.167,369.5 210.833,369.5 198.5,369.5C 194.972,344.435 183.638,323.769 164.5,307.5C 170.594,296.972 176.927,286.638 183.5,276.5 Z M 98.5,314.5 C 104.132,315.242 109.798,316.075 115.5,317C 117.619,317.098 119.286,317.931 120.5,319.5C 108.667,339.167 96.8333,358.833 85,378.5C 82.2517,387.819 85.0851,394.652 93.5,399C 118.167,399.333 142.833,399.667 167.5,400C 157.065,433.771 134.231,451.937 99,454.5C 66.1951,452.097 44.1951,435.431 33,404.5C 25.0675,370.953 35.2342,344.453 63.5,325C 74.5078,318.838 86.1745,315.338 98.5,314.5 Z M 414.5,315.5 C 443.348,317.842 463.848,332.175 476,358.5C 487.989,399.344 475.156,429.511 437.5,449C 405.368,459.674 378.201,452.174 356,426.5C 342.688,407.602 339.022,386.935 345,364.5C 351.613,345.052 364.113,330.719 382.5,321.5C 383.086,321.709 383.586,322.043 384,322.5C 388.159,345.963 392.826,369.297 398,392.5C 402.826,399.144 409.326,401.311 417.5,399C 426.084,394.322 428.918,387.156 426,377.5C 422.057,356.841 418.224,336.175 414.5,315.5 Z M 147.5,335.5 C 157.595,344.509 164.262,355.675 167.5,369C 154.154,369.833 140.821,369.666 127.5,368.5C 134.194,357.483 140.86,346.483 147.5,335.5 Z"/></g>
</svg>
