<?xml version="1.0" encoding="UTF-8"?>
<!DOCTYPE svg PUBLIC "-//W3C//DTD SVG 1.1//EN" "http://www.w3.org/Graphics/SVG/1.1/DTD/svg11.dtd">
<svg xmlns="http://www.w3.org/2000/svg" version="1.1" width="1288px" height="1288px" style="shape-rendering:geometricPrecision; text-rendering:geometricPrecision; image-rendering:optimizeQuality; fill-rule:evenodd; clip-rule:evenodd" xmlns:xlink="http://www.w3.org/1999/xlink">
<g><path style="opacity:1" fill="#fefffe" d="M 1287.5,263.5 C 1287.5,285.5 1287.5,307.5 1287.5,329.5C 1285.56,334.056 1284.89,339.056 1285.5,344.5C 1284.5,344.5 1283.5,344.5 1282.5,344.5C 1282.25,350.572 1281.42,356.572 1280,362.5C 1277.41,367.845 1275.91,373.512 1275.5,379.5C 1274.5,379.5 1273.5,379.5 1272.5,379.5C 1271.36,383.744 1270.69,388.077 1270.5,392.5C 1269.5,392.5 1268.5,392.5 1267.5,392.5C 1266.47,396.427 1265.81,400.427 1265.5,404.5C 1264.5,404.5 1263.5,404.5 1262.5,404.5C 1261.63,408.121 1260.96,411.788 1260.5,415.5C 1259.5,415.5 1258.5,415.5 1257.5,415.5C 1256.83,418.833 1256.17,422.167 1255.5,425.5C 1254.5,425.5 1253.5,425.5 1252.5,425.5C 1251.83,428.833 1251.17,432.167 1250.5,435.5C 1249.5,435.5 1248.5,435.5 1247.5,435.5C 1247.99,439.487 1246.32,441.82 1242.5,442.5C 1241.83,445.833 1241.17,449.167 1240.5,452.5C 1239.5,452.5 1238.5,452.5 1237.5,452.5C 1237.31,455.308 1236.64,457.975 1235.5,460.5C 1234.5,460.5 1233.5,460.5 1232.5,460.5C 1232.79,462.288 1232.45,463.955 1231.5,465.5C 1227.02,471.461 1223.18,477.794 1220,484.5C 1218.49,486.174 1216.66,487.174 1214.5,487.5C 1214.31,490.308 1213.64,492.975 1212.5,495.5C 1211.5,495.5 1210.5,495.5 1209.5,495.5C 1208.36,498.025 1207.69,500.692 1207.5,503.5C 1203.68,504.18 1202.01,506.513 1202.5,510.5C 1201.5,510.5 1200.5,510.5 1199.5,510.5C 1199.17,513.5 1197.5,515.167 1194.5,515.5C 1194.31,518.308 1193.64,520.975 1192.5,523.5C 1188.68,524.18 1187.01,526.513 1187.5,530.5C 1186.5,530.5 1185.5,530.5 1184.5,530.5C 1184.17,533.5 1182.5,535.167 1179.5,535.5C 1178.36,538.025 1177.69,540.692 1177.5,543.5C 1174.5,543.833 1172.83,545.5 1172.5,548.5C 1168.68,549.18 1167.01,551.513 1167.5,555.5C 1166.5,555.5 1165.5,555.5 1164.5,555.5C 1164.17,558.5 1162.5,560.167 1159.5,560.5C 1159.17,563.5 1157.5,565.167 1154.5,565.5C 1153.62,570.346 1151.29,574.346 1147.5,577.5C 1146.68,578.386 1145.68,578.719 1144.5,578.5C 1144.17,581.5 1142.5,583.167 1139.5,583.5C 1139.5,584.5 1139.5,585.5 1139.5,586.5C 1135.68,587.18 1134.01,589.513 1134.5,593.5C 1133.5,593.5 1132.5,593.5 1131.5,593.5C 1131.17,596.5 1129.5,598.167 1126.5,598.5C 1126.17,601.5 1124.5,603.167 1121.5,603.5C 1121.17,606.5 1119.5,608.167 1116.5,608.5C 1116.17,611.5 1114.5,613.167 1111.5,613.5C 1111.17,616.5 1109.5,618.167 1106.5,618.5C 1106.17,621.5 1104.5,623.167 1101.5,623.5C 1101.17,626.5 1099.5,628.167 1096.5,628.5C 1096.17,631.5 1094.5,633.167 1091.5,633.5C 1091.17,636.5 1089.5,638.167 1086.5,638.5C 1086.17,641.5 1084.5,643.167 1081.5,643.5C 1081.17,646.5 1079.5,648.167 1076.5,648.5C 1076.17,651.5 1074.5,653.167 1071.5,653.5C 1071.27,655.433 1070.44,657.1 1069,658.5C 1066.83,660 1065,661.833 1063.5,664C 1061.52,665.825 1059.19,666.659 1056.5,666.5C 1056.5,667.5 1056.5,668.5 1056.5,669.5C 1055.5,669.5 1054.5,669.5 1053.5,669.5C 1053.5,668.5 1053.5,667.5 1053.5,666.5C 1050.5,666.167 1048.83,664.5 1048.5,661.5C 1045.5,661.167 1043.83,659.5 1043.5,656.5C 1042.5,656.5 1041.5,656.5 1040.5,656.5C 1040.17,653.5 1038.5,651.833 1035.5,651.5C 1035.5,650.5 1035.5,649.5 1035.5,648.5C 1032.5,648.167 1030.83,646.5 1030.5,643.5C 1027.5,643.167 1025.83,641.5 1025.5,638.5C 1020.15,637.148 1016.81,633.814 1015.5,628.5C 1012.5,628.167 1010.83,626.5 1010.5,623.5C 1007.5,623.167 1005.83,621.5 1005.5,618.5C 1002.5,618.167 1000.83,616.5 1000.5,613.5C 997.5,613.167 995.833,611.5 995.5,608.5C 992.5,608.167 990.833,606.5 990.5,603.5C 987.5,603.167 985.833,601.5 985.5,598.5C 982.5,598.167 980.833,596.5 980.5,593.5C 977.5,593.167 975.833,591.5 975.5,588.5C 974.5,588.5 973.5,588.5 972.5,588.5C 972.989,584.513 971.322,582.18 967.5,581.5C 967.167,578.5 965.5,576.833 962.5,576.5C 961.833,574.5 961.167,572.5 960.5,570.5C 958.857,570.52 957.524,569.853 956.5,568.5C 955.096,565.793 953.762,563.126 952.5,560.5C 949.5,560.167 947.833,558.5 947.5,555.5C 943.678,554.82 942.011,552.487 942.5,548.5C 941.5,548.5 940.5,548.5 939.5,548.5C 939.167,545.5 937.5,543.833 934.5,543.5C 933.36,540.975 932.693,538.308 932.5,535.5C 929.5,535.167 927.833,533.5 927.5,530.5C 923.678,529.82 922.011,527.487 922.5,523.5C 921.5,523.5 920.5,523.5 919.5,523.5C 919.167,520.5 917.5,518.833 914.5,518.5C 914.307,515.692 913.64,513.025 912.5,510.5C 908.678,509.82 907.011,507.487 907.5,503.5C 906.5,503.5 905.5,503.5 904.5,503.5C 903.36,500.975 902.693,498.308 902.5,495.5C 901.5,495.5 900.5,495.5 899.5,495.5C 898.36,492.975 897.693,490.308 897.5,487.5C 891.465,484.438 888.132,479.438 887.5,472.5C 883.678,471.82 882.011,469.487 882.5,465.5C 881.5,465.5 880.5,465.5 879.5,465.5C 878.36,462.975 877.693,460.308 877.5,457.5C 876.5,457.5 875.5,457.5 874.5,457.5C 874.5,455.833 874.5,454.167 874.5,452.5C 870.678,451.82 869.011,449.487 869.5,445.5C 868.5,445.5 867.5,445.5 866.5,445.5C 865.833,442.167 865.167,438.833 864.5,435.5C 863.5,435.5 862.5,435.5 861.5,435.5C 861.06,430.392 859.06,426.059 855.5,422.5C 855.037,419.417 853.871,416.751 852,414.5C 850.851,411.221 850.018,407.887 849.5,404.5C 848.5,404.5 847.5,404.5 846.5,404.5C 845.197,398.577 843.197,392.911 840.5,387.5C 839.52,384.914 839.187,382.247 839.5,379.5C 838.5,379.5 837.5,379.5 836.5,379.5C 835.674,374.526 835.007,369.526 834.5,364.5C 833.5,364.5 832.5,364.5 831.5,364.5C 830.445,358.889 829.779,353.222 829.5,347.5C 828.5,347.5 827.5,347.5 826.5,347.5C 825.37,336.534 824.704,325.534 824.5,314.5C 823.5,314.5 822.5,314.5 821.5,314.5C 821.334,304.161 821.5,293.828 822,283.5C 822.308,282.692 822.808,282.025 823.5,281.5C 824.431,270.471 825.598,259.471 827,248.5C 829.512,241.777 831.012,234.777 831.5,227.5C 832.5,227.5 833.5,227.5 834.5,227.5C 835.01,222.793 835.843,218.127 837,213.5C 839.685,210.372 841.185,206.705 841.5,202.5C 842.5,202.5 843.5,202.5 844.5,202.5C 844.994,196.504 847.161,191.17 851,186.5C 851.49,185.207 851.657,183.873 851.5,182.5C 852.5,182.5 853.5,182.5 854.5,182.5C 856.817,176.842 859.151,171.175 861.5,165.5C 862.5,165.5 863.5,165.5 864.5,165.5C 864.833,162.5 866.5,160.833 869.5,160.5C 869.693,157.692 870.36,155.025 871.5,152.5C 872.5,152.5 873.5,152.5 874.5,152.5C 874.5,151.5 874.5,150.5 874.5,149.5C 875.675,149.719 876.675,149.386 877.5,148.5C 878.786,145.019 880.786,142.019 883.5,139.5C 884.524,138.147 885.857,137.48 887.5,137.5C 887.833,134.5 889.5,132.833 892.5,132.5C 892.833,129.5 894.5,127.833 897.5,127.5C 897.5,126.5 897.5,125.5 897.5,124.5C 901.206,124.501 903.539,122.835 904.5,119.5C 907.5,119.167 909.167,117.5 909.5,114.5C 912.025,113.36 914.692,112.693 917.5,112.5C 917.281,111.325 917.614,110.325 918.5,109.5C 923.924,105.995 929.257,102.328 934.5,98.5C 936.045,97.5481 937.712,97.2148 939.5,97.5C 939.5,96.5 939.5,95.5 939.5,94.5C 942.833,93.8333 946.167,93.1667 949.5,92.5C 949.5,91.5 949.5,90.5 949.5,89.5C 952.986,88.0475 956.653,87.3808 960.5,87.5C 960.5,86.5 960.5,85.5 960.5,84.5C 963.833,83.8333 967.167,83.1667 970.5,82.5C 970.5,81.5 970.5,80.5 970.5,79.5C 975.474,78.6737 980.474,78.0071 985.5,77.5C 985.5,76.5 985.5,75.5 985.5,74.5C 992.167,73.8333 998.833,73.1667 1005.5,72.5C 1005.5,71.5 1005.5,70.5 1005.5,69.5C 1009.55,69.8242 1013.55,69.4909 1017.5,68.5C 1017.71,67.914 1018.04,67.414 1018.5,67C 1031.19,66.4718 1043.85,65.6385 1056.5,64.5C 1073.33,65.5625 1089.99,67.2292 1106.5,69.5C 1106.5,70.5 1106.5,71.5 1106.5,72.5C 1113.17,73.1667 1119.83,73.8333 1126.5,74.5C 1126.5,75.5 1126.5,76.5 1126.5,77.5C 1130.92,77.6904 1135.26,78.3571 1139.5,79.5C 1139.5,80.5 1139.5,81.5 1139.5,82.5C 1143.92,82.6904 1148.26,83.3571 1152.5,84.5C 1152.5,85.5 1152.5,86.5 1152.5,87.5C 1155.83,88.1667 1159.17,88.8333 1162.5,89.5C 1162.5,90.5 1162.5,91.5 1162.5,92.5C 1165.83,93.1667 1169.17,93.8333 1172.5,94.5C 1172.5,95.5 1172.5,96.5 1172.5,97.5C 1176.49,97.0114 1178.82,98.678 1179.5,102.5C 1182.31,102.693 1184.98,103.36 1187.5,104.5C 1187.5,105.5 1187.5,106.5 1187.5,107.5C 1191.49,107.011 1193.82,108.678 1194.5,112.5C 1197.02,113.64 1199.69,114.307 1202.5,114.5C 1202.83,117.5 1204.5,119.167 1207.5,119.5C 1207.83,122.5 1209.5,124.167 1212.5,124.5C 1212.48,126.143 1213.15,127.476 1214.5,128.5C 1220.66,131.516 1225,136.182 1227.5,142.5C 1230.5,142.833 1232.17,144.5 1232.5,147.5C 1235.5,147.833 1237.17,149.5 1237.5,152.5C 1238.5,152.5 1239.5,152.5 1240.5,152.5C 1240.69,155.308 1241.36,157.975 1242.5,160.5C 1246.32,161.18 1247.99,163.513 1247.5,167.5C 1248.5,167.5 1249.5,167.5 1250.5,167.5C 1251.64,170.025 1252.31,172.692 1252.5,175.5C 1253.5,175.5 1254.5,175.5 1255.5,175.5C 1256.45,177.737 1257.12,180.071 1257.5,182.5C 1258.5,182.5 1259.5,182.5 1260.5,182.5C 1261.17,185.833 1261.83,189.167 1262.5,192.5C 1263.5,192.5 1264.5,192.5 1265.5,192.5C 1266.17,195.833 1266.83,199.167 1267.5,202.5C 1268.5,202.5 1269.5,202.5 1270.5,202.5C 1271.35,206.799 1272.01,211.133 1272.5,215.5C 1273.5,215.5 1274.5,215.5 1275.5,215.5C 1276.33,220.474 1276.99,225.474 1277.5,230.5C 1278.5,230.5 1279.5,230.5 1280.5,230.5C 1281.6,237.113 1282.27,243.78 1282.5,250.5C 1283.5,250.5 1284.5,250.5 1285.5,250.5C 1284.9,255.294 1285.57,259.627 1287.5,263.5 Z M 1046.5,143.5 C 1059.5,144.233 1072.5,144.9 1085.5,145.5C 1085.5,146.5 1085.5,147.5 1085.5,148.5C 1091.54,148.908 1097.54,149.574 1103.5,150.5C 1103.5,151.5 1103.5,152.5 1103.5,153.5C 1107.57,153.808 1111.57,154.475 1115.5,155.5C 1115.5,156.5 1115.5,157.5 1115.5,158.5C 1119.21,158.961 1122.88,159.627 1126.5,160.5C 1126.5,161.5 1126.5,162.5 1126.5,163.5C 1129.83,164.167 1133.17,164.833 1136.5,165.5C 1137.18,169.322 1139.51,170.989 1143.5,170.5C 1143.5,171.5 1143.5,172.5 1143.5,173.5C 1144.5,173.5 1145.5,173.5 1146.5,173.5C 1146.5,174.5 1146.5,175.5 1146.5,176.5C 1150.49,176.011 1152.82,177.678 1153.5,181.5C 1154.68,181.281 1155.68,181.614 1156.5,182.5C 1160.17,186.167 1163.83,189.833 1167.5,193.5C 1168.39,194.325 1168.72,195.325 1168.5,196.5C 1171.5,196.833 1173.17,198.5 1173.5,201.5C 1176.83,202.461 1178.5,204.794 1178.5,208.5C 1179.5,208.5 1180.5,208.5 1181.5,208.5C 1182.34,212.567 1184.34,215.901 1187.5,218.5C 1188.45,220.045 1188.79,221.712 1188.5,223.5C 1189.5,223.5 1190.5,223.5 1191.5,223.5C 1192.17,226.833 1192.83,230.167 1193.5,233.5C 1194.5,233.5 1195.5,233.5 1196.5,233.5C 1196.5,235.167 1196.5,236.833 1196.5,238.5C 1197.5,238.5 1198.5,238.5 1199.5,238.5C 1200.64,242.744 1201.31,247.077 1201.5,251.5C 1202.5,251.5 1203.5,251.5 1204.5,251.5C 1205.17,258.167 1205.83,264.833 1206.5,271.5C 1207.5,271.5 1208.5,271.5 1209.5,271.5C 1209.5,288.167 1209.5,304.833 1209.5,321.5C 1208.5,321.5 1207.5,321.5 1206.5,321.5C 1206.27,328.22 1205.6,334.887 1204.5,341.5C 1203.5,341.5 1202.5,341.5 1201.5,341.5C 1200.67,346.474 1200.01,351.474 1199.5,356.5C 1198.5,356.5 1197.5,356.5 1196.5,356.5C 1193.93,366.678 1189.77,376.011 1184,384.5C 1182.44,387.666 1181.61,391 1181.5,394.5C 1180.5,394.5 1179.5,394.5 1178.5,394.5C 1177.83,397.833 1177.17,401.167 1176.5,404.5C 1172.96,405.386 1171.3,407.719 1171.5,411.5C 1170.5,411.5 1169.5,411.5 1168.5,411.5C 1166.42,417.663 1164.08,423.663 1161.5,429.5C 1157.68,430.18 1156.01,432.513 1156.5,436.5C 1155.5,436.5 1154.5,436.5 1153.5,436.5C 1152.36,439.025 1151.69,441.692 1151.5,444.5C 1147.68,445.18 1146.01,447.513 1146.5,451.5C 1145.5,451.5 1144.5,451.5 1143.5,451.5C 1142.83,453.5 1142.17,455.5 1141.5,457.5C 1140.5,457.5 1139.5,457.5 1138.5,457.5C 1138.12,459.929 1137.45,462.263 1136.5,464.5C 1135.5,464.5 1134.5,464.5 1133.5,464.5C 1132.55,466.737 1131.88,469.071 1131.5,471.5C 1130.5,471.5 1129.5,471.5 1128.5,471.5C 1126.85,475.315 1124.85,478.982 1122.5,482.5C 1121.48,483.853 1120.14,484.52 1118.5,484.5C 1118.5,485.5 1118.5,486.5 1118.5,487.5C 1117.5,487.5 1116.5,487.5 1115.5,487.5C 1115.99,491.487 1114.32,493.82 1110.5,494.5C 1110.17,497.5 1108.5,499.167 1105.5,499.5C 1105.31,502.308 1104.64,504.975 1103.5,507.5C 1100.5,507.833 1098.83,509.5 1098.5,512.5C 1097.32,512.281 1096.32,512.614 1095.5,513.5C 1093.73,516.719 1091.73,519.719 1089.5,522.5C 1088.48,523.853 1087.14,524.52 1085.5,524.5C 1085.17,527.5 1083.5,529.167 1080.5,529.5C 1080.17,532.5 1078.5,534.167 1075.5,534.5C 1074.83,536.5 1074.17,538.5 1073.5,540.5C 1072.5,540.5 1071.5,540.5 1070.5,540.5C 1070.12,542.929 1069.45,545.263 1068.5,547.5C 1065.5,547.833 1063.83,549.5 1063.5,552.5C 1062.5,552.5 1061.5,552.5 1060.5,552.5C 1060.26,555.24 1058.76,556.907 1056,557.5C 1053.24,556.907 1051.74,555.24 1051.5,552.5C 1050.5,552.5 1049.5,552.5 1048.5,552.5C 1048.17,549.5 1046.5,547.833 1043.5,547.5C 1043.17,544.5 1041.5,542.833 1038.5,542.5C 1038.17,539.5 1036.5,537.833 1033.5,537.5C 1033.31,534.692 1032.64,532.025 1031.5,529.5C 1028.5,529.167 1026.83,527.5 1026.5,524.5C 1023.5,524.167 1021.83,522.5 1021.5,519.5C 1017.68,518.82 1016.01,516.487 1016.5,512.5C 1015.5,512.5 1014.5,512.5 1013.5,512.5C 1013.17,509.5 1011.5,507.833 1008.5,507.5C 1008.17,504.5 1006.5,502.833 1003.5,502.5C 1003.31,499.692 1002.64,497.025 1001.5,494.5C 998.5,494.167 996.833,492.5 996.5,489.5C 995.5,489.5 994.5,489.5 993.5,489.5C 993.989,485.513 992.322,483.18 988.5,482.5C 986.788,478.748 984.788,475.081 982.5,471.5C 981.476,470.147 980.143,469.48 978.5,469.5C 977.374,466.859 976.041,464.193 974.5,461.5C 973.476,460.147 972.143,459.48 970.5,459.5C 970.307,456.692 969.64,454.025 968.5,451.5C 967.5,451.5 966.5,451.5 965.5,451.5C 965.116,449.071 964.449,446.737 963.5,444.5C 962.5,444.5 961.5,444.5 960.5,444.5C 959.36,441.975 958.693,439.308 958.5,436.5C 954.678,435.82 953.011,433.487 953.5,429.5C 952.5,429.5 951.5,429.5 950.5,429.5C 950.307,426.692 949.64,424.025 948.5,421.5C 947.5,421.5 946.5,421.5 945.5,421.5C 945.989,417.513 944.322,415.18 940.5,414.5C 939.833,411.167 939.167,407.833 938.5,404.5C 937.5,404.5 936.5,404.5 935.5,404.5C 933.603,398.29 931.269,392.29 928.5,386.5C 927.5,386.5 926.5,386.5 925.5,386.5C 923.18,378.84 920.847,371.173 918.5,363.5C 917.5,363.5 916.5,363.5 915.5,363.5C 914.356,359.64 913.689,355.64 913.5,351.5C 912.5,351.5 911.5,351.5 910.5,351.5C 909.993,346.474 909.326,341.474 908.5,336.5C 907.5,336.5 906.5,336.5 905.5,336.5C 904.419,323.22 902.752,310.22 900.5,297.5C 902.437,288.318 903.771,278.985 904.5,269.5C 907.469,261.182 909.469,252.516 910.5,243.5C 911.5,243.5 912.5,243.5 913.5,243.5C 913.808,239.427 914.475,235.427 915.5,231.5C 916.5,231.5 917.5,231.5 918.5,231.5C 918.693,228.692 919.36,226.025 920.5,223.5C 921.5,223.5 922.5,223.5 923.5,223.5C 924.167,220.167 924.833,216.833 925.5,213.5C 926.675,213.719 927.675,213.386 928.5,212.5C 930.914,209.757 932.914,206.757 934.5,203.5C 935.524,202.147 936.857,201.48 938.5,201.5C 938.833,198.5 940.5,196.833 943.5,196.5C 944.64,193.975 945.307,191.308 945.5,188.5C 948.308,188.307 950.975,187.64 953.5,186.5C 953.833,183.5 955.5,181.833 958.5,181.5C 959.18,177.678 961.513,176.011 965.5,176.5C 965.5,175.5 965.5,174.5 965.5,173.5C 966.5,173.5 967.5,173.5 968.5,173.5C 969.18,169.678 971.513,168.011 975.5,168.5C 975.5,167.5 975.5,166.5 975.5,165.5C 979.827,166.197 982.494,164.53 983.5,160.5C 987.427,159.475 991.427,158.808 995.5,158.5C 995.5,157.5 995.5,156.5 995.5,155.5C 999.799,154.653 1004.13,153.987 1008.5,153.5C 1008.5,152.5 1008.5,151.5 1008.5,150.5C 1014.46,149.574 1020.46,148.908 1026.5,148.5C 1026.5,147.5 1026.5,146.5 1026.5,145.5C 1033.58,146.126 1040.25,145.459 1046.5,143.5 Z"/></g>
<g><path style="opacity:1" fill="#fefffe" d="M 1038.5,222.5 C 1050.17,222.333 1061.84,222.5 1073.5,223C 1073.96,223.414 1074.29,223.914 1074.5,224.5C 1081.41,226.376 1088.08,228.376 1094.5,230.5C 1094.5,231.5 1094.5,232.5 1094.5,233.5C 1096.93,233.884 1099.26,234.551 1101.5,235.5C 1101.5,236.5 1101.5,237.5 1101.5,238.5C 1104.5,238.833 1106.17,240.5 1106.5,243.5C 1109.5,243.833 1111.17,245.5 1111.5,248.5C 1114.5,248.833 1116.17,250.5 1116.5,253.5C 1117.5,253.5 1118.5,253.5 1119.5,253.5C 1119.01,257.487 1120.68,259.82 1124.5,260.5C 1125.64,264.744 1126.31,269.077 1126.5,273.5C 1127.5,273.5 1128.5,273.5 1129.5,273.5C 1132.17,290.5 1132.17,307.5 1129.5,324.5C 1128.5,324.5 1127.5,324.5 1126.5,324.5C 1126.01,328.867 1125.35,333.201 1124.5,337.5C 1120.68,338.18 1119.01,340.513 1119.5,344.5C 1118.5,344.5 1117.5,344.5 1116.5,344.5C 1116.17,347.5 1114.5,349.167 1111.5,349.5C 1111.17,352.5 1109.5,354.167 1106.5,354.5C 1106.17,357.5 1104.5,359.167 1101.5,359.5C 1101.5,360.5 1101.5,361.5 1101.5,362.5C 1097.51,362.011 1095.18,363.678 1094.5,367.5C 1090.26,368.643 1085.92,369.31 1081.5,369.5C 1081.5,370.5 1081.5,371.5 1081.5,372.5C 1067.23,374.57 1052.9,374.903 1038.5,373.5C 1031.6,371.313 1024.6,369.313 1017.5,367.5C 1017.5,366.5 1017.5,365.5 1017.5,364.5C 1013.51,364.989 1011.18,363.322 1010.5,359.5C 1008.26,358.551 1005.93,357.884 1003.5,357.5C 1003.5,356.5 1003.5,355.5 1003.5,354.5C 1001.86,354.52 1000.52,353.853 999.5,352.5C 998.096,349.793 996.762,347.126 995.5,344.5C 991.678,343.82 990.011,341.487 990.5,337.5C 989.5,337.5 988.5,337.5 987.5,337.5C 987.039,333.788 986.373,330.121 985.5,326.5C 984.5,326.5 983.5,326.5 982.5,326.5C 979.833,307.833 979.833,289.167 982.5,270.5C 983.5,270.5 984.5,270.5 985.5,270.5C 986.167,267.167 986.833,263.833 987.5,260.5C 988.5,260.5 989.5,260.5 990.5,260.5C 990.011,256.513 991.678,254.18 995.5,253.5C 995.797,248.227 998.464,244.893 1003.5,243.5C 1003.5,242.5 1003.5,241.5 1003.5,240.5C 1005.74,239.551 1008.07,238.884 1010.5,238.5C 1011.18,234.678 1013.51,233.011 1017.5,233.5C 1017.5,232.5 1017.5,231.5 1017.5,230.5C 1021.22,229.343 1024.89,227.843 1028.5,226C 1031.82,225.502 1035.15,225.335 1038.5,225.5C 1038.5,224.5 1038.5,223.5 1038.5,222.5 Z"/></g>
<g><path style="opacity:1" fill="#fefffe" d="M 688.5,575.5 C 760.833,575.5 833.167,575.5 905.5,575.5C 905.5,601.5 905.5,627.5 905.5,653.5C 835.167,653.5 764.833,653.5 694.5,653.5C 694.5,654.5 694.5,655.5 694.5,656.5C 690.167,656.5 685.833,656.5 681.5,656.5C 681.5,657.5 681.5,658.5 681.5,659.5C 676.526,660.326 671.526,660.993 666.5,661.5C 666.5,662.5 666.5,663.5 666.5,664.5C 660.71,667.269 654.71,669.603 648.5,671.5C 648.167,674.5 646.5,676.167 643.5,676.5C 643.167,679.5 641.5,681.167 638.5,681.5C 638.167,684.5 636.5,686.167 633.5,686.5C 633.167,689.5 631.5,691.167 628.5,691.5C 628.167,694.5 626.5,696.167 623.5,696.5C 622.833,699.833 622.167,703.167 621.5,706.5C 620.5,706.5 619.5,706.5 618.5,706.5C 617.833,709.833 617.167,713.167 616.5,716.5C 615.5,716.5 614.5,716.5 613.5,716.5C 612.993,721.526 612.326,726.526 611.5,731.5C 610.5,731.5 609.5,731.5 608.5,731.5C 608.5,745.5 608.5,759.5 608.5,773.5C 609.5,773.5 610.5,773.5 611.5,773.5C 611.65,778.912 612.317,784.246 613.5,789.5C 614.5,789.5 615.5,789.5 616.5,789.5C 616.808,793.573 617.475,797.573 618.5,801.5C 619.5,801.5 620.5,801.5 621.5,801.5C 622.64,804.025 623.307,806.692 623.5,809.5C 626.5,809.833 628.167,811.5 628.5,814.5C 629.5,814.5 630.5,814.5 631.5,814.5C 631.011,818.487 632.678,820.82 636.5,821.5C 636.833,824.5 638.5,826.167 641.5,826.5C 641.5,827.5 641.5,828.5 641.5,829.5C 645.487,829.011 647.82,830.678 648.5,834.5C 651.025,835.64 653.692,836.307 656.5,836.5C 656.5,837.5 656.5,838.5 656.5,839.5C 659.833,840.167 663.167,840.833 666.5,841.5C 666.5,842.5 666.5,843.5 666.5,844.5C 670.744,845.643 675.077,846.31 679.5,846.5C 679.5,847.5 679.5,848.5 679.5,849.5C 764.794,851.445 850.127,852.112 935.5,851.5C 935.5,852.5 935.5,853.5 935.5,854.5C 944.885,854.58 954.218,855.247 963.5,856.5C 963.5,857.5 963.5,858.5 963.5,859.5C 968.66,859.365 973.66,860.199 978.5,862C 986.801,864.859 994.468,868.692 1001.5,873.5C 1003.05,874.452 1004.71,874.785 1006.5,874.5C 1006.5,875.5 1006.5,876.5 1006.5,877.5C 1010.49,877.011 1012.82,878.678 1013.5,882.5C 1016.31,882.693 1018.98,883.36 1021.5,884.5C 1021.5,885.5 1021.5,886.5 1021.5,887.5C 1025.49,887.011 1027.82,888.678 1028.5,892.5C 1031.5,892.833 1033.17,894.5 1033.5,897.5C 1036.59,897.904 1039.25,899.237 1041.5,901.5C 1042.85,902.524 1043.52,903.857 1043.5,905.5C 1044.5,905.5 1045.5,905.5 1046.5,905.5C 1047.45,907.737 1048.12,910.071 1048.5,912.5C 1051.5,912.833 1053.17,914.5 1053.5,917.5C 1055.5,918.167 1057.5,918.833 1059.5,919.5C 1060.64,922.025 1061.31,924.692 1061.5,927.5C 1065.32,928.18 1066.99,930.513 1066.5,934.5C 1067.5,934.5 1068.5,934.5 1069.5,934.5C 1070.64,937.004 1071.31,939.67 1071.5,942.5C 1072.5,942.5 1073.5,942.5 1074.5,942.5C 1075.17,945.833 1075.83,949.167 1076.5,952.5C 1077.5,952.5 1078.5,952.5 1079.5,952.5C 1080.64,956.744 1081.31,961.077 1081.5,965.5C 1082.5,965.5 1083.5,965.5 1084.5,965.5C 1085.89,973.046 1087.89,980.379 1090.5,987.5C 1091.49,991.783 1091.83,996.116 1091.5,1000.5C 1092.5,1000.5 1093.5,1000.5 1094.5,1000.5C 1094.5,1020.17 1094.5,1039.83 1094.5,1059.5C 1093.5,1059.5 1092.5,1059.5 1091.5,1059.5C 1091.05,1066.86 1090.38,1074.19 1089.5,1081.5C 1088.5,1081.5 1087.5,1081.5 1086.5,1081.5C 1085.99,1086.53 1085.33,1091.53 1084.5,1096.5C 1083.5,1096.5 1082.5,1096.5 1081.5,1096.5C 1080.83,1099.83 1080.17,1103.17 1079.5,1106.5C 1078.5,1106.5 1077.5,1106.5 1076.5,1106.5C 1075.83,1109.83 1075.17,1113.17 1074.5,1116.5C 1073.5,1116.5 1072.5,1116.5 1071.5,1116.5C 1071.31,1119.31 1070.64,1121.98 1069.5,1124.5C 1068.5,1124.5 1067.5,1124.5 1066.5,1124.5C 1066.99,1128.49 1065.32,1130.82 1061.5,1131.5C 1061.31,1134.31 1060.64,1136.98 1059.5,1139.5C 1058.5,1139.5 1057.5,1139.5 1056.5,1139.5C 1056.5,1140.5 1056.5,1141.5 1056.5,1142.5C 1055.5,1142.5 1054.5,1142.5 1053.5,1142.5C 1053.99,1146.49 1052.32,1148.82 1048.5,1149.5C 1048.17,1152.5 1046.5,1154.17 1043.5,1154.5C 1043.17,1157.5 1041.5,1159.17 1038.5,1159.5C 1038.72,1160.68 1038.39,1161.68 1037.5,1162.5C 1034.76,1164.91 1031.76,1166.91 1028.5,1168.5C 1027.15,1169.52 1026.48,1170.86 1026.5,1172.5C 1023.98,1173.64 1021.31,1174.31 1018.5,1174.5C 1017.82,1178.32 1015.49,1179.99 1011.5,1179.5C 1011.5,1180.5 1011.5,1181.5 1011.5,1182.5C 1008.98,1183.64 1006.31,1184.31 1003.5,1184.5C 1003.5,1185.5 1003.5,1186.5 1003.5,1187.5C 1000.17,1188.17 996.833,1188.83 993.5,1189.5C 993.5,1190.5 993.5,1191.5 993.5,1192.5C 989.573,1193.53 985.573,1194.19 981.5,1194.5C 981.5,1195.5 981.5,1196.5 981.5,1197.5C 976.167,1198.17 970.833,1198.83 965.5,1199.5C 965.5,1200.5 965.5,1201.5 965.5,1202.5C 957.21,1203.6 948.876,1204.27 940.5,1204.5C 940.5,1205.5 940.5,1206.5 940.5,1207.5C 754.167,1207.5 567.833,1207.5 381.5,1207.5C 381.5,1181.17 381.5,1154.83 381.5,1128.5C 569.2,1129.14 756.866,1128.47 944.5,1126.5C 944.5,1125.5 944.5,1124.5 944.5,1123.5C 948.923,1123.31 953.256,1122.64 957.5,1121.5C 957.5,1120.5 957.5,1119.5 957.5,1118.5C 959.167,1118.5 960.833,1118.5 962.5,1118.5C 962.5,1117.5 962.5,1116.5 962.5,1115.5C 964.288,1115.79 965.955,1115.45 967.5,1114.5C 969.553,1112.94 971.72,1111.61 974,1110.5C 976.176,1109.48 977.343,1107.82 977.5,1105.5C 980.025,1104.36 982.692,1103.69 985.5,1103.5C 985.833,1100.5 987.5,1098.83 990.5,1098.5C 990.693,1095.69 991.36,1093.02 992.5,1090.5C 995.5,1090.17 997.167,1088.5 997.5,1085.5C 998.5,1085.5 999.5,1085.5 1000.5,1085.5C 1003.08,1078.99 1005.42,1072.32 1007.5,1065.5C 1008.5,1065.5 1009.5,1065.5 1010.5,1065.5C 1011.33,1060.53 1011.99,1055.53 1012.5,1050.5C 1013.5,1050.5 1014.5,1050.5 1015.5,1050.5C 1015.83,1037.48 1015.5,1024.48 1014.5,1011.5C 1012.28,1005.71 1010.94,999.714 1010.5,993.5C 1009.5,993.5 1008.5,993.5 1007.5,993.5C 1006.83,990.167 1006.17,986.833 1005.5,983.5C 1004.5,983.5 1003.5,983.5 1002.5,983.5C 1002.31,980.692 1001.64,978.025 1000.5,975.5C 999.5,975.5 998.5,975.5 997.5,975.5C 997.989,971.513 996.322,969.18 992.5,968.5C 992.167,965.5 990.5,963.833 987.5,963.5C 987.167,960.5 985.5,958.833 982.5,958.5C 982.167,955.5 980.5,953.833 977.5,953.5C 976.82,949.678 974.487,948.011 970.5,948.5C 970.5,947.5 970.5,946.5 970.5,945.5C 967.692,945.307 965.025,944.64 962.5,943.5C 962.5,942.5 962.5,941.5 962.5,940.5C 958.133,940.013 953.799,939.347 949.5,938.5C 949.5,937.5 949.5,936.5 949.5,935.5C 942.908,934.23 936.241,933.563 929.5,933.5C 929.5,932.5 929.5,931.5 929.5,930.5C 842.472,931.085 755.472,930.418 668.5,928.5C 668.5,927.5 668.5,926.5 668.5,925.5C 661.833,924.833 655.167,924.167 648.5,923.5C 648.5,922.5 648.5,921.5 648.5,920.5C 644.256,919.357 639.923,918.69 635.5,918.5C 635.5,917.5 635.5,916.5 635.5,915.5C 632.167,914.833 628.833,914.167 625.5,913.5C 625.5,912.5 625.5,911.5 625.5,910.5C 622.167,909.833 618.833,909.167 615.5,908.5C 615.5,907.5 615.5,906.5 615.5,905.5C 611.433,904.659 608.099,902.659 605.5,899.5C 603.955,898.548 602.288,898.215 600.5,898.5C 600.5,897.5 600.5,896.5 600.5,895.5C 599.5,895.5 598.5,895.5 597.5,895.5C 596.82,891.678 594.487,890.011 590.5,890.5C 590.5,889.5 590.5,888.5 590.5,887.5C 587.5,887.167 585.833,885.5 585.5,882.5C 582.5,882.167 580.833,880.5 580.5,877.5C 577.5,877.167 575.833,875.5 575.5,872.5C 572.5,872.167 570.833,870.5 570.5,867.5C 569.5,867.5 568.5,867.5 567.5,867.5C 567.989,863.513 566.322,861.18 562.5,860.5C 561.36,857.975 560.693,855.308 560.5,852.5C 556.678,851.82 555.011,849.487 555.5,845.5C 554.5,845.5 553.5,845.5 552.5,845.5C 552.5,843.833 552.5,842.167 552.5,840.5C 551.5,840.5 550.5,840.5 549.5,840.5C 549.785,838.712 549.452,837.045 548.5,835.5C 545.907,829.978 543.074,824.645 540,819.5C 538.682,814.567 537.849,809.567 537.5,804.5C 536.5,804.5 535.5,804.5 534.5,804.5C 534.664,801.813 534.497,799.146 534,796.5C 533.294,791.621 531.96,786.955 530,782.5C 529.5,762.836 529.333,743.169 529.5,723.5C 530.5,723.5 531.5,723.5 532.5,723.5C 532.601,716.09 533.435,708.756 535,701.5C 537.683,696.962 539.35,691.962 540,686.5C 542.224,682.851 544.391,679.185 546.5,675.5C 548.11,672.316 549.11,668.983 549.5,665.5C 550.5,665.5 551.5,665.5 552.5,665.5C 552.5,663.833 552.5,662.167 552.5,660.5C 556.322,659.82 557.989,657.487 557.5,653.5C 558.5,653.5 559.5,653.5 560.5,653.5C 561.64,650.975 562.307,648.308 562.5,645.5C 565.5,645.167 567.167,643.5 567.5,640.5C 571.322,639.82 572.989,637.487 572.5,633.5C 573.5,633.5 574.5,633.5 575.5,633.5C 576.167,631.5 576.833,629.5 577.5,627.5C 580.5,627.167 582.167,625.5 582.5,622.5C 586.842,620.152 591.175,617.819 595.5,615.5C 596.18,611.678 598.513,610.011 602.5,610.5C 602.5,609.5 602.5,608.5 602.5,607.5C 611.021,602.93 619.354,598.096 627.5,593C 630.876,591.101 634.543,590.268 638.5,590.5C 638.5,589.5 638.5,588.5 638.5,587.5C 642.427,586.475 646.427,585.808 650.5,585.5C 650.5,584.5 650.5,583.5 650.5,582.5C 657.167,581.833 663.833,581.167 670.5,580.5C 670.5,579.5 670.5,578.5 670.5,577.5C 676.926,578.12 682.926,577.453 688.5,575.5 Z"/></g>
<g><path style="opacity:1" fill="#fefffe" d="M -0.5,882.5 C -0.5,860.5 -0.5,838.5 -0.5,816.5C 0.958782,812.036 2.29212,807.369 3.5,802.5C 4.79881,796.193 5.79881,789.859 6.5,783.5C 7.5,783.5 8.5,783.5 9.5,783.5C 10.3263,778.526 10.9929,773.526 11.5,768.5C 12.5,768.5 13.5,768.5 14.5,768.5C 14.8079,764.427 15.4746,760.427 16.5,756.5C 17.5,756.5 18.5,756.5 19.5,756.5C 20.1667,753.167 20.8333,749.833 21.5,746.5C 22.5,746.5 23.5,746.5 24.5,746.5C 25.1667,743.167 25.8333,739.833 26.5,736.5C 27.5,736.5 28.5,736.5 29.5,736.5C 29.6933,733.692 30.36,731.025 31.5,728.5C 32.5,728.5 33.5,728.5 34.5,728.5C 34.0114,724.513 35.678,722.18 39.5,721.5C 39.6933,718.692 40.36,716.025 41.5,713.5C 42.5,713.5 43.5,713.5 44.5,713.5C 45.64,710.975 46.3067,708.308 46.5,705.5C 47.675,705.719 48.675,705.386 49.5,704.5C 53.5,700.5 57.5,696.5 61.5,692.5C 62.9856,690.698 63.9856,688.698 64.5,686.5C 66.9598,685.063 69.6265,684.063 72.5,683.5C 72.8333,680.5 74.5,678.833 77.5,678.5C 77.8333,675.5 79.5,673.833 82.5,673.5C 83.1797,669.678 85.513,668.011 89.5,668.5C 89.5,667.5 89.5,666.5 89.5,665.5C 92.5,665.167 94.1667,663.5 94.5,660.5C 97.3085,660.307 99.9752,659.64 102.5,658.5C 102.5,657.5 102.5,656.5 102.5,655.5C 106.487,655.989 108.82,654.322 109.5,650.5C 112.833,649.833 116.167,649.167 119.5,648.5C 119.5,647.5 119.5,646.5 119.5,645.5C 122.833,644.833 126.167,644.167 129.5,643.5C 129.5,642.5 129.5,641.5 129.5,640.5C 132.833,639.833 136.167,639.167 139.5,638.5C 139.5,637.5 139.5,636.5 139.5,635.5C 142.167,635.5 144.833,635.5 147.5,635.5C 147.5,634.5 147.5,633.5 147.5,632.5C 152.672,631.685 157.672,630.185 162.5,628C 168.428,626.58 174.428,625.747 180.5,625.5C 180.5,624.5 180.5,623.5 180.5,622.5C 192.817,621.475 205.151,620.475 217.5,619.5C 217.709,618.914 218.043,618.414 218.5,618C 226.827,617.5 235.16,617.334 243.5,617.5C 243.5,618.5 243.5,619.5 243.5,620.5C 256.214,620.453 268.881,621.119 281.5,622.5C 281.5,623.5 281.5,624.5 281.5,625.5C 288.167,626.167 294.833,626.833 301.5,627.5C 301.5,628.5 301.5,629.5 301.5,630.5C 308.437,631.351 315.103,633.017 321.5,635.5C 321.5,636.5 321.5,637.5 321.5,638.5C 325.465,639.369 329.465,640.202 333.5,641C 335.952,643.559 338.952,645.059 342.5,645.5C 342.5,646.5 342.5,647.5 342.5,648.5C 345.833,649.167 349.167,649.833 352.5,650.5C 352.5,651.5 352.5,652.5 352.5,653.5C 354.929,653.884 357.263,654.551 359.5,655.5C 359.5,656.5 359.5,657.5 359.5,658.5C 362.308,658.693 364.975,659.36 367.5,660.5C 368.18,664.322 370.513,665.989 374.5,665.5C 374.5,666.5 374.5,667.5 374.5,668.5C 377.5,668.833 379.167,670.5 379.5,673.5C 384.108,675.352 388.442,677.685 392.5,680.5C 392.833,683.5 394.5,685.167 397.5,685.5C 397.833,688.5 399.5,690.167 402.5,690.5C 403.167,692.5 403.833,694.5 404.5,696.5C 405.5,696.5 406.5,696.5 407.5,696.5C 407.884,698.929 408.551,701.263 409.5,703.5C 414.536,704.893 417.203,708.227 417.5,713.5C 418.5,713.5 419.5,713.5 420.5,713.5C 423.126,718.32 426.126,722.987 429.5,727.5C 431.332,730.243 432.332,733.243 432.5,736.5C 433.5,736.5 434.5,736.5 435.5,736.5C 436.64,739.025 437.307,741.692 437.5,744.5C 438.5,744.5 439.5,744.5 440.5,744.5C 441.799,748.37 442.466,752.37 442.5,756.5C 443.5,756.5 444.5,756.5 445.5,756.5C 446.167,759.833 446.833,763.167 447.5,766.5C 448.5,766.5 449.5,766.5 450.5,766.5C 451.326,771.474 451.993,776.474 452.5,781.5C 453.5,781.5 454.5,781.5 455.5,781.5C 455.924,788.462 457.424,795.129 460,801.5C 461.339,812.812 462.506,824.146 463.5,835.5C 464.086,835.709 464.586,836.043 465,836.5C 465.5,846.828 465.666,857.161 465.5,867.5C 464.5,867.5 463.5,867.5 462.5,867.5C 462.296,878.534 461.63,889.534 460.5,900.5C 459.5,900.5 458.5,900.5 457.5,900.5C 457.092,906.535 456.426,912.535 455.5,918.5C 454.5,918.5 453.5,918.5 452.5,918.5C 451.674,923.474 451.007,928.474 450.5,933.5C 449.5,933.5 448.5,933.5 447.5,933.5C 446.015,942.118 443.682,950.451 440.5,958.5C 439.5,958.5 438.5,958.5 437.5,958.5C 436.833,961.833 436.167,965.167 435.5,968.5C 434.5,968.5 433.5,968.5 432.5,968.5C 432.424,971.973 431.758,975.306 430.5,978.5C 429.5,978.5 428.5,978.5 427.5,978.5C 426.833,981.833 426.167,985.167 425.5,988.5C 424.5,988.5 423.5,988.5 422.5,988.5C 421.833,991.833 421.167,995.167 420.5,998.5C 419.5,998.5 418.5,998.5 417.5,998.5C 416.072,1003.01 414.405,1007.34 412.5,1011.5C 411.5,1011.5 410.5,1011.5 409.5,1011.5C 409.989,1015.49 408.322,1017.82 404.5,1018.5C 404.307,1021.31 403.64,1023.98 402.5,1026.5C 401.5,1026.5 400.5,1026.5 399.5,1026.5C 399.785,1028.29 399.452,1029.95 398.5,1031.5C 395.84,1034.49 393.84,1037.82 392.5,1041.5C 391.5,1041.5 390.5,1041.5 389.5,1041.5C 389.989,1045.49 388.322,1047.82 384.5,1048.5C 384.307,1051.31 383.64,1053.98 382.5,1056.5C 381.5,1056.5 380.5,1056.5 379.5,1056.5C 379.307,1059.31 378.64,1061.98 377.5,1064.5C 373.678,1065.18 372.011,1067.51 372.5,1071.5C 371.5,1071.5 370.5,1071.5 369.5,1071.5C 369.167,1074.5 367.5,1076.17 364.5,1076.5C 364.307,1079.31 363.64,1081.98 362.5,1084.5C 359.5,1084.83 357.833,1086.5 357.5,1089.5C 356.5,1089.5 355.5,1089.5 354.5,1089.5C 354.989,1093.49 353.322,1095.82 349.5,1096.5C 349.167,1099.5 347.5,1101.17 344.5,1101.5C 344.307,1104.31 343.64,1106.98 342.5,1109.5C 339.5,1109.83 337.833,1111.5 337.5,1114.5C 335.5,1115.17 333.5,1115.83 331.5,1116.5C 331.307,1119.31 330.64,1121.98 329.5,1124.5C 326.5,1124.83 324.833,1126.5 324.5,1129.5C 321.5,1129.83 319.833,1131.5 319.5,1134.5C 315.47,1135.51 313.803,1138.17 314.5,1142.5C 311.5,1142.83 309.833,1144.5 309.5,1147.5C 306.5,1147.83 304.833,1149.5 304.5,1152.5C 301.5,1152.83 299.833,1154.5 299.5,1157.5C 296.5,1157.83 294.833,1159.5 294.5,1162.5C 291.5,1162.83 289.833,1164.5 289.5,1167.5C 286.5,1167.83 284.833,1169.5 284.5,1172.5C 281.5,1172.83 279.833,1174.5 279.5,1177.5C 276.5,1177.83 274.833,1179.5 274.5,1182.5C 271.222,1183.11 269.222,1185.11 268.5,1188.5C 267.311,1189.43 265.978,1189.76 264.5,1189.5C 264.5,1190.5 264.5,1191.5 264.5,1192.5C 261.5,1192.83 259.833,1194.5 259.5,1197.5C 256.5,1197.83 254.833,1199.5 254.5,1202.5C 252.5,1203.17 250.5,1203.83 248.5,1204.5C 248.167,1207.5 246.5,1209.17 243.5,1209.5C 243.167,1212.5 241.5,1214.17 238.5,1214.5C 237.833,1216.5 237.167,1218.5 236.5,1220.5C 234.8,1220.63 233.3,1221.29 232,1222.5C 229.331,1220.42 226.497,1218.75 223.5,1217.5C 223.5,1216.5 223.5,1215.5 223.5,1214.5C 221.5,1213.83 219.5,1213.17 217.5,1212.5C 217.167,1209.5 215.5,1207.83 212.5,1207.5C 212.167,1204.5 210.5,1202.83 207.5,1202.5C 207.167,1199.5 205.5,1197.83 202.5,1197.5C 202.167,1194.5 200.5,1192.83 197.5,1192.5C 197.167,1189.5 195.5,1187.83 192.5,1187.5C 192.167,1184.5 190.5,1182.83 187.5,1182.5C 187.167,1179.5 185.5,1177.83 182.5,1177.5C 182.167,1174.5 180.5,1172.83 177.5,1172.5C 177.167,1169.5 175.5,1167.83 172.5,1167.5C 172.167,1164.5 170.5,1162.83 167.5,1162.5C 167.167,1159.5 165.5,1157.83 162.5,1157.5C 162.167,1154.5 160.5,1152.83 157.5,1152.5C 154.648,1146.78 151.314,1141.45 147.5,1136.5C 144.5,1136.17 142.833,1134.5 142.5,1131.5C 139.5,1131.17 137.833,1129.5 137.5,1126.5C 136.5,1126.5 135.5,1126.5 134.5,1126.5C 134.989,1122.51 133.322,1120.18 129.5,1119.5C 129.167,1116.5 127.5,1114.83 124.5,1114.5C 121.685,1110.44 119.352,1106.11 117.5,1101.5C 114.5,1101.17 112.833,1099.5 112.5,1096.5C 111.5,1096.5 110.5,1096.5 109.5,1096.5C 109.989,1092.51 108.322,1090.18 104.5,1089.5C 104.167,1086.5 102.5,1084.83 99.5,1084.5C 99.3067,1081.69 98.64,1079.02 97.5,1076.5C 93.678,1075.82 92.0114,1073.49 92.5,1069.5C 91.5,1069.5 90.5,1069.5 89.5,1069.5C 89.1667,1066.5 87.5,1064.83 84.5,1064.5C 84.3067,1061.69 83.64,1059.02 82.5,1056.5C 81.5,1056.5 80.5,1056.5 79.5,1056.5C 79.3067,1053.69 78.64,1051.02 77.5,1048.5C 73.678,1047.82 72.0114,1045.49 72.5,1041.5C 71.5,1041.5 70.5,1041.5 69.5,1041.5C 69.5,1040.5 69.5,1039.5 69.5,1038.5C 68.5,1038.5 67.5,1038.5 66.5,1038.5C 66.7852,1036.71 66.4519,1035.05 65.5,1033.5C 61.8691,1028.72 58.5358,1023.72 55.5,1018.5C 54.5481,1016.95 54.2148,1015.29 54.5,1013.5C 50.678,1012.82 49.0114,1010.49 49.5,1006.5C 48.5,1006.5 47.5,1006.5 46.5,1006.5C 45.1448,999.949 42.8114,993.949 39.5,988.5C 38.5,988.5 37.5,988.5 36.5,988.5C 35.8333,985.167 35.1667,981.833 34.5,978.5C 33.5,978.5 32.5,978.5 31.5,978.5C 30.8333,975.167 30.1667,971.833 29.5,968.5C 28.5,968.5 27.5,968.5 26.5,968.5C 25.8333,965.167 25.1667,961.833 24.5,958.5C 23.5,958.5 22.5,958.5 21.5,958.5C 21.3096,954.077 20.6429,949.744 19.5,945.5C 18.5,945.5 17.5,945.5 16.5,945.5C 16.1921,941.427 15.5254,937.427 14.5,933.5C 13.5,933.5 12.5,933.5 11.5,933.5C 11.5139,927.633 10.0139,922.3 7,917.5C 5.70906,911.216 4.87572,904.882 4.5,898.5C 3.5,898.5 2.5,898.5 1.5,898.5C 2.1128,892.729 1.44613,887.396 -0.5,882.5 Z M 221.5,696.5 C 237.575,698.48 253.908,700.147 270.5,701.5C 270.5,702.5 270.5,703.5 270.5,704.5C 275.526,705.007 280.526,705.674 285.5,706.5C 285.5,707.5 285.5,708.5 285.5,709.5C 289.799,710.347 294.133,711.013 298.5,711.5C 298.5,712.5 298.5,713.5 298.5,714.5C 301.308,714.693 303.975,715.36 306.5,716.5C 306.5,717.5 306.5,718.5 306.5,719.5C 309.734,720.576 313.068,721.243 316.5,721.5C 316.281,722.675 316.614,723.675 317.5,724.5C 320.243,726.914 323.243,728.914 326.5,730.5C 327.853,731.524 328.52,732.857 328.5,734.5C 329.5,734.5 330.5,734.5 331.5,734.5C 331.48,736.143 332.147,737.476 333.5,738.5C 335.746,740.763 338.413,742.096 341.5,742.5C 341.884,744.929 342.551,747.263 343.5,749.5C 344.5,749.5 345.5,749.5 346.5,749.5C 346.833,752.5 348.5,754.167 351.5,754.5C 353.819,758.825 356.152,763.158 358.5,767.5C 359.5,767.5 360.5,767.5 361.5,767.5C 363.342,773.415 365.675,779.081 368.5,784.5C 369.5,784.5 370.5,784.5 371.5,784.5C 372.643,788.744 373.31,793.077 373.5,797.5C 374.5,797.5 375.5,797.5 376.5,797.5C 377.9,802.364 378.567,807.364 378.5,812.5C 379.5,812.5 380.5,812.5 381.5,812.5C 382.561,825.616 384.228,838.45 386.5,851C 384.151,863.584 382.484,876.417 381.5,889.5C 380.5,889.5 379.5,889.5 378.5,889.5C 377.993,894.526 377.326,899.526 376.5,904.5C 375.5,904.5 374.5,904.5 373.5,904.5C 372.653,908.799 371.987,913.133 371.5,917.5C 370.5,917.5 369.5,917.5 368.5,917.5C 366.412,924.987 364.079,932.32 361.5,939.5C 360.5,939.5 359.5,939.5 358.5,939.5C 356.416,945.663 354.083,951.663 351.5,957.5C 350.5,957.5 349.5,957.5 348.5,957.5C 347.833,960.833 347.167,964.167 346.5,967.5C 345.5,967.5 344.5,967.5 343.5,967.5C 342.36,970.025 341.693,972.692 341.5,975.5C 340.5,975.5 339.5,975.5 338.5,975.5C 337.551,977.737 336.884,980.071 336.5,982.5C 335.5,982.5 334.5,982.5 333.5,982.5C 333.307,985.308 332.64,987.975 331.5,990.5C 330.5,990.5 329.5,990.5 328.5,990.5C 328.989,994.487 327.322,996.82 323.5,997.5C 322.833,1000.17 322.167,1002.83 321.5,1005.5C 317.678,1006.18 316.011,1008.51 316.5,1012.5C 315.5,1012.5 314.5,1012.5 313.5,1012.5C 313.5,1013.5 313.5,1014.5 313.5,1015.5C 312.5,1015.5 311.5,1015.5 310.5,1015.5C 309.799,1017.91 308.799,1020.24 307.5,1022.5C 303.67,1026.32 300.67,1030.65 298.5,1035.5C 297.5,1035.5 296.5,1035.5 295.5,1035.5C 294.36,1038.02 293.693,1040.69 293.5,1043.5C 290.5,1043.83 288.833,1045.5 288.5,1048.5C 284.678,1049.18 283.011,1051.51 283.5,1055.5C 282.5,1055.5 281.5,1055.5 280.5,1055.5C 280.167,1058.5 278.5,1060.17 275.5,1060.5C 274.999,1063.18 273.499,1065.18 271,1066.5C 270.144,1068.87 269.31,1071.2 268.5,1073.5C 265.5,1073.83 263.833,1075.5 263.5,1078.5C 260.5,1078.83 258.833,1080.5 258.5,1083.5C 257.5,1083.5 256.5,1083.5 255.5,1083.5C 254.551,1085.74 253.884,1088.07 253.5,1090.5C 252.5,1090.5 251.5,1090.5 250.5,1090.5C 250.167,1093.5 248.5,1095.17 245.5,1095.5C 245.167,1098.5 243.5,1100.17 240.5,1100.5C 240.167,1103.5 238.5,1105.17 235.5,1105.5C 235.263,1108.24 233.763,1109.91 231,1110.5C 228.237,1109.91 226.737,1108.24 226.5,1105.5C 223.5,1105.17 221.833,1103.5 221.5,1100.5C 220.5,1100.5 219.5,1100.5 218.5,1100.5C 218.116,1098.07 217.449,1095.74 216.5,1093.5C 215.5,1093.5 214.5,1093.5 213.5,1093.5C 213.167,1090.5 211.5,1088.83 208.5,1088.5C 208.167,1085.5 206.5,1083.83 203.5,1083.5C 203.167,1080.5 201.5,1078.83 198.5,1078.5C 197.36,1075.98 196.693,1073.31 196.5,1070.5C 193.5,1070.17 191.833,1068.5 191.5,1065.5C 188.5,1065.17 186.833,1063.5 186.5,1060.5C 183.165,1059.54 181.499,1057.21 181.5,1053.5C 180.5,1053.5 179.5,1053.5 178.5,1053.5C 178.167,1050.5 176.5,1048.83 173.5,1048.5C 173.096,1045.41 171.763,1042.75 169.5,1040.5C 168.476,1039.15 167.143,1038.48 165.5,1038.5C 164.36,1035.98 163.693,1033.31 163.5,1030.5C 162.5,1030.5 161.5,1030.5 160.5,1030.5C 160.167,1027.5 158.5,1025.83 155.5,1025.5C 155.307,1022.69 154.64,1020.02 153.5,1017.5C 149.678,1016.82 148.011,1014.49 148.5,1010.5C 147.5,1010.5 146.5,1010.5 145.5,1010.5C 145.167,1007.5 143.5,1005.83 140.5,1005.5C 140.307,1002.69 139.64,1000.02 138.5,997.5C 137.5,997.5 136.5,997.5 135.5,997.5C 135.989,993.513 134.322,991.18 130.5,990.5C 130.307,987.692 129.64,985.025 128.5,982.5C 127.5,982.5 126.5,982.5 125.5,982.5C 123.183,976.842 120.849,971.175 118.5,965.5C 117.5,965.5 116.5,965.5 115.5,965.5C 115.307,962.692 114.64,960.025 113.5,957.5C 112.5,957.5 111.5,957.5 110.5,957.5C 109.833,954.167 109.167,950.833 108.5,947.5C 107.5,947.5 106.5,947.5 105.5,947.5C 104.833,944.167 104.167,940.833 103.5,937.5C 102.5,937.5 101.5,937.5 100.5,937.5C 99.8333,934.167 99.1667,930.833 98.5,927.5C 97.5,927.5 96.5,927.5 95.5,927.5C 94.0779,921.366 92.4113,915.366 90.5,909.5C 89.5,909.5 88.5,909.5 87.5,909.5C 86.6737,904.526 86.0071,899.526 85.5,894.5C 84.5,894.5 83.5,894.5 82.5,894.5C 81.2302,887.908 80.5635,881.241 80.5,874.5C 79.5,874.5 78.5,874.5 77.5,874.5C 77.5,858.167 77.5,841.833 77.5,825.5C 78.5,825.5 79.5,825.5 80.5,825.5C 81.0482,818.486 81.7149,811.486 82.5,804.5C 83.5,804.5 84.5,804.5 85.5,804.5C 85.8079,800.427 86.4746,796.427 87.5,792.5C 88.5,792.5 89.5,792.5 90.5,792.5C 90.5,790.833 90.5,789.167 90.5,787.5C 91.5,787.5 92.5,787.5 93.5,787.5C 94.1667,784.167 94.8333,780.833 95.5,777.5C 96.5,777.5 97.5,777.5 98.5,777.5C 98.2148,775.712 98.5481,774.045 99.5,772.5C 101.916,768.539 104.749,764.872 108,761.5C 108.856,759.132 109.69,756.798 110.5,754.5C 113.5,754.167 115.167,752.5 115.5,749.5C 118.5,749.167 120.167,747.5 120.5,744.5C 123.5,744.167 125.167,742.5 125.5,739.5C 128.5,739.167 130.167,737.5 130.5,734.5C 131.5,734.5 132.5,734.5 133.5,734.5C 134.18,730.678 136.513,729.011 140.5,729.5C 140.5,728.5 140.5,727.5 140.5,726.5C 144.567,725.659 147.901,723.659 150.5,720.5C 152.045,719.548 153.712,719.215 155.5,719.5C 155.5,718.5 155.5,717.5 155.5,716.5C 158.833,715.833 162.167,715.167 165.5,714.5C 165.5,713.5 165.5,712.5 165.5,711.5C 169.121,710.627 172.788,709.961 176.5,709.5C 176.5,708.5 176.5,707.5 176.5,706.5C 181.474,705.674 186.474,705.007 191.5,704.5C 191.5,703.5 191.5,702.5 191.5,701.5C 201.445,700.173 211.445,699.506 221.5,699.5C 221.5,698.5 221.5,697.5 221.5,696.5 Z"/></g>
<g><path style="opacity:1" fill="#fefffe" d="M 212.5,776.5 C 227.914,776.042 243.247,776.875 258.5,779C 263.712,782.105 269.045,784.939 274.5,787.5C 275.853,788.524 276.52,789.857 276.5,791.5C 281.837,791.817 285.171,794.484 286.5,799.5C 290.322,800.18 291.989,802.513 291.5,806.5C 292.5,806.5 293.5,806.5 294.5,806.5C 295.64,809.025 296.307,811.692 296.5,814.5C 297.5,814.5 298.5,814.5 299.5,814.5C 300.167,817.833 300.833,821.167 301.5,824.5C 302.5,824.5 303.5,824.5 304.5,824.5C 307.167,843.167 307.167,861.833 304.5,880.5C 303.5,880.5 302.5,880.5 301.5,880.5C 300.833,883.833 300.167,887.167 299.5,890.5C 298.5,890.5 297.5,890.5 296.5,890.5C 296.307,893.308 295.64,895.975 294.5,898.5C 290.678,899.18 289.011,901.513 289.5,905.5C 288.5,905.5 287.5,905.5 286.5,905.5C 286.5,906.5 286.5,907.5 286.5,908.5C 284.263,909.449 281.929,910.116 279.5,910.5C 279.5,911.5 279.5,912.5 279.5,913.5C 276.5,913.833 274.833,915.5 274.5,918.5C 270.295,918.815 266.628,920.315 263.5,923C 258.567,924.318 253.567,925.151 248.5,925.5C 248.5,926.5 248.5,927.5 248.5,928.5C 236.5,928.5 224.5,928.5 212.5,928.5C 212.5,927.5 212.5,926.5 212.5,925.5C 207.793,924.99 203.127,924.157 198.5,923C 196.911,921.255 194.911,920.088 192.5,919.5C 191.147,918.476 190.48,917.143 190.5,915.5C 187.692,915.307 185.025,914.64 182.5,913.5C 182.167,910.5 180.5,908.833 177.5,908.5C 177.167,905.5 175.5,903.833 172.5,903.5C 172.167,900.5 170.5,898.833 167.5,898.5C 168.197,894.173 166.53,891.506 162.5,890.5C 161.357,886.256 160.69,881.923 160.5,877.5C 159.5,877.5 158.5,877.5 157.5,877.5C 154.87,860.506 154.87,843.506 157.5,826.5C 158.5,826.5 159.5,826.5 160.5,826.5C 160.808,822.427 161.475,818.427 162.5,814.5C 163.5,814.5 164.5,814.5 165.5,814.5C 166.64,811.975 167.307,809.308 167.5,806.5C 170.5,806.167 172.167,804.5 172.5,801.5C 175.5,801.167 177.167,799.5 177.5,796.5C 178.5,796.5 179.5,796.5 180.5,796.5C 180.833,793.5 182.5,791.833 185.5,791.5C 185.5,790.5 185.5,789.5 185.5,788.5C 189.206,788.501 191.539,786.835 192.5,783.5C 199.754,782.086 206.421,779.753 212.5,776.5 Z"/></g>
</svg>
