<?xml version="1.0" encoding="UTF-8"?>
<!DOCTYPE svg PUBLIC "-//W3C//DTD SVG 1.1//EN" "http://www.w3.org/Graphics/SVG/1.1/DTD/svg11.dtd">
<svg xmlns="http://www.w3.org/2000/svg" version="1.1" width="512px" height="512px" style="shape-rendering:geometricPrecision; text-rendering:geometricPrecision; image-rendering:optimizeQuality; fill-rule:evenodd; clip-rule:evenodd" xmlns:xlink="http://www.w3.org/1999/xlink">
<g><path style="opacity:1" fill="#fefffe" d="M 168.5,-0.5 C 226.5,-0.5 284.5,-0.5 342.5,-0.5C 348.874,2.39059 352.374,7.39059 353,14.5C 353.333,102.833 353.667,191.167 354,279.5C 356.022,284.092 359.522,286.592 364.5,287C 394.167,287.333 423.833,287.667 453.5,288C 460.387,291.105 464.054,296.439 464.5,304C 463.832,307.32 462.665,310.487 461,313.5C 394.911,380.09 328.411,446.09 261.5,511.5C 257.5,511.5 253.5,511.5 249.5,511.5C 182.589,446.09 116.089,380.09 50,313.5C 44.4314,302.697 46.9314,294.197 57.5,288C 87.5,287.667 117.5,287.333 147.5,287C 151.965,286.687 155.132,284.521 157,280.5C 158.326,190.557 158.992,100.557 159,10.5C 160.627,5.38182 163.793,1.71515 168.5,-0.5 Z"/></g>
</svg>
