<?xml version="1.0" encoding="UTF-8"?>
<!DOCTYPE svg PUBLIC "-//W3C//DTD SVG 1.1//EN" "http://www.w3.org/Graphics/SVG/1.1/DTD/svg11.dtd">
<svg xmlns="http://www.w3.org/2000/svg" version="1.1" width="256px" height="256px" style="shape-rendering:geometricPrecision; text-rendering:geometricPrecision; image-rendering:optimizeQuality; fill-rule:evenodd; clip-rule:evenodd" xmlns:xlink="http://www.w3.org/1999/xlink">
<g><path style="opacity:0.986" fill="#003298" d="M 116.5,20.5 C 161.342,18.5021 195.842,36.1688 220,73.5C 241.561,115.174 238.895,155.174 212,193.5C 182.104,228.354 144.604,240.854 99.5,231C 44.9627,212.437 18.796,174.27 21,116.5C 30.3469,61.9867 62.1802,29.9867 116.5,20.5 Z M 80.5,85.5 C 112.254,85.0149 143.921,85.5149 175.5,87C 177.81,88.6374 179.31,90.804 180,93.5C 180.97,117.23 180.636,140.897 179,164.5C 177.457,166.378 175.624,167.878 173.5,169C 142.081,169.985 110.748,169.651 79.5,168C 77.1898,166.363 75.6898,164.196 75,161.5C 74.3333,138.833 74.3333,116.167 75,93.5C 76.104,90.2788 77.9374,87.6122 80.5,85.5 Z"/></g>
<g><path style="opacity:0.978" fill="#003298" d="M 84.5,96.5 C 112.997,95.3362 141.664,95.1696 170.5,96C 156.167,104.833 141.833,113.667 127.5,122.5C 113.132,113.779 98.7987,105.113 84.5,96.5 Z"/></g>
<g><path style="opacity:0.981" fill="#003298" d="M 84.5,105.5 C 98.8922,114.115 113.059,123.115 127,132.5C 141.186,123.163 155.686,114.497 170.5,106.5C 170.5,124.167 170.5,141.833 170.5,159.5C 141.833,159.5 113.167,159.5 84.5,159.5C 84.5,141.5 84.5,123.5 84.5,105.5 Z"/></g>
</svg>
