<?xml version="1.0" encoding="UTF-8"?>
<svg xmlns="http://www.w3.org/2000/svg" version="1.1" width="178px" height="178px" style="shape-rendering:geometricPrecision; text-rendering:geometricPrecision; image-rendering:optimizeQuality; fill-rule:evenodd; clip-rule:evenodd" xmlns:xlink="http://www.w3.org/1999/xlink">
<g><path style="opacity:0.996" fill="#fefefe" d="M 27.5,-0.5 C 36.8333,-0.5 46.1667,-0.5 55.5,-0.5C 60.7862,4.33539 60.7862,9.16873 55.5,14C 48.5,14.3333 41.5,14.6667 34.5,15C 23.3333,16.8333 16.8333,23.3333 15,34.5C 14.6667,41.5 14.3333,48.5 14,55.5C 9.16873,60.7862 4.33539,60.7862 -0.5,55.5C -0.5,46.1667 -0.5,36.8333 -0.5,27.5C 3.83333,13.1667 13.1667,3.83333 27.5,-0.5 Z"/></g>
<g><path style="opacity:0.996" fill="#fefffe" d="M 121.5,-0.5 C 130.833,-0.5 140.167,-0.5 149.5,-0.5C 163.833,3.83333 173.167,13.1667 177.5,27.5C 177.5,36.8333 177.5,46.1667 177.5,55.5C 172.665,60.7862 167.831,60.7862 163,55.5C 162.667,48.5 162.333,41.5 162,34.5C 160.149,25.9488 155.315,19.7821 147.5,16C 138.884,14.8275 130.217,14.1608 121.5,14C 116.214,9.16873 116.214,4.33539 121.5,-0.5 Z"/></g>
<g><path style="opacity:0.997" fill="#fefffe" d="M 80.5,28.5 C 117.263,27.4517 139.763,44.785 148,80.5C 149.848,116.984 133.015,139.484 97.5,148C 67.6052,150.474 46.1052,138.307 33,111.5C 22.2225,76.2377 33.0559,50.071 65.5,33C 70.5772,31.32 75.5772,29.82 80.5,28.5 Z M 83.5,44.5 C 104.349,44.1662 119.516,53.1662 129,71.5C 136.973,97.2698 129.139,116.436 105.5,129C 79.7302,136.973 60.5636,129.139 48,105.5C 40.0274,79.7302 47.8607,60.5636 71.5,48C 75.5431,46.5086 79.5431,45.3419 83.5,44.5 Z"/></g>
<g><path style="opacity:0.997" fill="#fefefe" d="M 66.5,65.5 C 77.8125,64.9786 82.6458,70.312 81,81.5C 77.4388,88.0785 71.9388,90.2451 64.5,88C 58.9539,84.268 57.1206,79.1013 59,72.5C 60.7424,69.2543 63.2424,66.921 66.5,65.5 Z"/></g>
<g><path style="opacity:0.994" fill="#fefefe" d="M 103.5,65.5 C 117.557,65.9437 121.724,72.6104 116,85.5C 111.632,88.4201 106.799,89.2534 101.5,88C 95.0104,82.9631 93.8438,76.7964 98,69.5C 99.8121,68.0229 101.645,66.6896 103.5,65.5 Z"/></g>
<g><path style="opacity:0.996" fill="#fefffe" d="M 63.5,95.5 C 68.5971,95.5427 73.2638,97.0427 77.5,100C 88.1553,104.066 98.1553,102.733 107.5,96C 116.8,94.406 120.3,98.2394 118,107.5C 103.68,119.099 87.8469,121.599 70.5,115C 66.1266,113.287 62.2933,110.787 59,107.5C 57.3087,102.131 58.8087,98.1311 63.5,95.5 Z"/></g>
<g><path style="opacity:0.997" fill="#fefefe" d="M 55.5,177.5 C 46.1667,177.5 36.8333,177.5 27.5,177.5C 13.1667,173.167 3.83333,163.833 -0.5,149.5C -0.5,140.167 -0.5,130.833 -0.5,121.5C 4.33539,116.214 9.16873,116.214 14,121.5C 14.1608,130.217 14.8275,138.884 16,147.5C 18.5,154 23,158.5 29.5,161C 38.1161,162.173 46.7827,162.839 55.5,163C 60.7862,167.831 60.7862,172.665 55.5,177.5 Z"/></g>
<g><path style="opacity:0.997" fill="#fefffe" d="M 177.5,121.5 C 177.5,130.833 177.5,140.167 177.5,149.5C 173.167,163.833 163.833,173.167 149.5,177.5C 140.167,177.5 130.833,177.5 121.5,177.5C 116.214,172.665 116.214,167.831 121.5,163C 130.217,162.839 138.884,162.173 147.5,161C 154,158.5 158.5,154 161,147.5C 162.173,138.884 162.839,130.217 163,121.5C 167.831,116.214 172.665,116.214 177.5,121.5 Z"/></g>
</svg>
