<?xml version="1.0" encoding="UTF-8"?>
<svg xmlns="http://www.w3.org/2000/svg" version="1.1" width="512px" height="512px" style="shape-rendering:geometricPrecision; text-rendering:geometricPrecision; image-rendering:optimizeQuality; fill-rule:evenodd; clip-rule:evenodd" xmlns:xlink="http://www.w3.org/1999/xlink">
<g><path style="opacity:1" fill="#fefffe" d="M 151.5,-0.5 C 220.833,-0.5 290.167,-0.5 359.5,-0.5C 368.919,2.74798 376.086,8.74798 381,17.5C 381.667,19.5 382.333,21.5 383,23.5C 383.5,36.8292 383.667,50.1625 383.5,63.5C 298.167,63.5 212.833,63.5 127.5,63.5C 127.333,50.1625 127.5,36.8292 128,23.5C 129.563,17.6122 132.396,12.4455 136.5,8C 140.978,4.09846 145.978,1.26512 151.5,-0.5 Z"/></g>
<g><path style="opacity:1" fill="#fefffe" d="M 295.5,511.5 C 268.833,511.5 242.167,511.5 215.5,511.5C 206.796,508.637 199.963,503.304 195,495.5C 193.803,492.911 192.803,490.244 192,487.5C 191.667,402.833 191.333,318.167 191,233.5C 190.545,220.802 186.878,209.135 180,198.5C 173,190.167 165.333,182.5 157,175.5C 138.523,152.179 128.69,125.512 127.5,95.5C 212.833,95.5 298.167,95.5 383.5,95.5C 382.599,120.127 375.099,142.46 361,162.5C 352.637,171.197 343.97,179.531 335,187.5C 325.541,199.098 320.541,212.431 320,227.5C 319.667,314.167 319.333,400.833 319,487.5C 317.608,493.214 314.941,498.214 311,502.5C 306.4,506.626 301.234,509.626 295.5,511.5 Z M 248.5,224.5 C 274.977,223.476 287.477,236.143 286,262.5C 280.207,280.822 267.707,288.655 248.5,286C 230.178,280.207 222.345,267.707 225,248.5C 228.349,235.985 236.182,227.985 248.5,224.5 Z"/></g>
</svg>
