<?xml version="1.0" encoding="UTF-8"?>
<svg xmlns="http://www.w3.org/2000/svg" version="1.1" width="512px" height="512px" style="shape-rendering:geometricPrecision; text-rendering:geometricPrecision; image-rendering:optimizeQuality; fill-rule:evenodd; clip-rule:evenodd" xmlns:xlink="http://www.w3.org/1999/xlink">
<g><path style="opacity:1" fill="#000000" d="M 236.5,15.5 C 312.05,11.0201 369.55,40.6868 409,104.5C 435.248,154.329 438.582,205.662 419,258.5C 409.025,282.787 394.358,303.787 375,321.5C 361.432,339.901 356.265,360.568 359.5,383.5C 379.716,381.648 386.883,390.315 381,409.5C 377.984,413.092 374.151,415.258 369.5,416C 358.172,416.5 346.838,416.667 335.5,416.5C 343.228,477.438 316.562,504.105 255.5,496.5C 194.328,504.327 167.328,477.661 174.5,416.5C 163.162,416.667 151.828,416.5 140.5,416C 127.417,410.997 123.917,402.163 130,389.5C 131.938,386.894 134.438,385.061 137.5,384C 141.821,383.501 146.154,383.334 150.5,383.5C 155.315,352.097 145.481,326.43 121,306.5C 83.5119,259.873 71.1786,207.207 84,148.5C 107.134,72.2128 157.967,27.8795 236.5,15.5 Z"/></g>
<g><path style="opacity:1" fill="#fefffe" d="M 250.5,47.5 C 313.75,48.5155 359.25,77.1822 387,133.5C 411.348,199.101 398.015,255.768 347,303.5C 330.17,327.491 323.67,354.158 327.5,383.5C 279.5,383.5 231.5,383.5 183.5,383.5C 188.711,345.288 177.211,313.288 149,287.5C 112.731,244.151 103.398,195.485 121,141.5C 140.408,93.5427 175.241,63.376 225.5,51C 233.931,49.4505 242.264,48.2839 250.5,47.5 Z"/></g>
<g><path style="opacity:1" fill="#000000" d="M 173.5,118.5 C 202.62,117.947 229.953,124.613 255.5,138.5C 283.708,122.356 313.708,116.856 345.5,122C 348.106,123.938 349.939,126.438 351,129.5C 351.667,171.167 351.667,212.833 351,254.5C 348.635,260.202 344.469,263.702 338.5,265C 324.915,264.703 311.581,266.369 298.5,270C 283.711,275.311 269.378,281.478 255.5,288.5C 241.445,281.809 227.111,275.642 212.5,270C 199.745,266.464 186.745,264.797 173.5,265C 166.951,264.116 162.451,260.616 160,254.5C 159.333,212.833 159.333,171.167 160,129.5C 162.616,123.372 167.116,119.706 173.5,118.5 Z"/></g>
<g><path style="opacity:1" fill="#fef52c" d="M 191.5,152.5 C 208.393,154.187 224.226,159.187 239,167.5C 239.667,193.167 239.667,218.833 239,244.5C 224.064,238.391 208.564,234.391 192.5,232.5C 191.5,205.842 191.167,179.175 191.5,152.5 Z"/></g>
<g><path style="opacity:1" fill="#fef52c" d="M 317.5,152.5 C 318.833,165.483 319.499,178.816 319.5,192.5C 319.333,205.833 319.167,219.167 319,232.5C 302.957,234.277 287.457,238.277 272.5,244.5C 271.334,218.84 271.167,193.173 272,167.5C 286.334,159.633 301.501,154.633 317.5,152.5 Z"/></g>
<g><path style="opacity:1" fill="#fefffe" d="M 207.5,415.5 C 239.5,415.5 271.5,415.5 303.5,415.5C 303.667,426.172 303.5,436.839 303,447.5C 301.833,456.667 296.667,461.833 287.5,463C 266.167,463.667 244.833,463.667 223.5,463C 214.333,461.833 209.167,456.667 208,447.5C 207.5,436.839 207.333,426.172 207.5,415.5 Z"/></g>
</svg>
