<?xml version="1.0" encoding="UTF-8"?>
<svg xmlns="http://www.w3.org/2000/svg" version="1.1" width="512px" height="512px" style="shape-rendering:geometricPrecision; text-rendering:geometricPrecision; image-rendering:optimizeQuality; fill-rule:evenodd; clip-rule:evenodd" xmlns:xlink="http://www.w3.org/1999/xlink">
<g><path style="opacity:1" fill="#fefffe" d="M 235.5,-0.5 C 248.833,-0.5 262.167,-0.5 275.5,-0.5C 356.235,12.061 410.735,56.7276 439,133.5C 448.781,168.488 450.114,203.822 443,239.5C 432.492,282.84 415.159,323.173 391,360.5C 354.868,416.694 311.701,467.027 261.5,511.5C 257.5,511.5 253.5,511.5 249.5,511.5C 199.299,467.027 156.132,416.694 120,360.5C 95.8409,323.173 78.5076,282.84 68,239.5C 52.6458,162.78 73.4791,97.9471 130.5,45C 161.073,19.6414 196.073,4.47473 235.5,-0.5 Z M 243.5,85.5 C 289.125,83.0596 323.958,101.06 348,139.5C 369.078,181.857 365.411,221.857 337,259.5C 302.397,296.442 261.23,306.275 213.5,289C 177.067,271.893 155.901,243.393 150,203.5C 147.512,150.621 170.346,113.454 218.5,92C 226.838,89.3333 235.172,87.1666 243.5,85.5 Z"/></g>
</svg>
