<?xml version="1.0" encoding="UTF-8"?>
<svg xmlns="http://www.w3.org/2000/svg" version="1.1" width="1352px" height="1352px" style="shape-rendering:geometricPrecision; text-rendering:geometricPrecision; image-rendering:optimizeQuality; fill-rule:evenodd; clip-rule:evenodd" xmlns:xlink="http://www.w3.org/1999/xlink">
<g><path style="opacity:1" fill="#fefffe" d="M -0.5,242.5 C -0.5,230.833 -0.5,219.167 -0.5,207.5C 1.36895,205.365 2.03562,202.698 1.5,199.5C 2.5,199.5 3.5,199.5 4.5,199.5C 5.92839,194.993 7.59506,190.66 9.5,186.5C 10.5,186.5 11.5,186.5 12.5,186.5C 12.8333,183.5 14.5,181.833 17.5,181.5C 17.5,180.5 17.5,179.5 17.5,178.5C 19.1667,178.5 20.8333,178.5 22.5,178.5C 22.5,177.5 22.5,176.5 22.5,175.5C 25.0248,174.36 27.6915,173.693 30.5,173.5C 30.5,172.5 30.5,171.5 30.5,170.5C 198.445,169.175 366.445,168.508 534.5,168.5C 702.232,168.507 869.899,169.173 1037.5,170.5C 1037.5,171.5 1037.5,172.5 1037.5,173.5C 1041.12,174.373 1044.79,175.039 1048.5,175.5C 1049.17,177.5 1049.83,179.5 1050.5,181.5C 1054.83,182.5 1057.5,185.167 1058.5,189.5C 1059.5,189.5 1060.5,189.5 1061.5,189.5C 1061.5,191.167 1061.5,192.833 1061.5,194.5C 1062.5,194.5 1063.5,194.5 1064.5,194.5C 1065.95,197.986 1066.62,201.653 1066.5,205.5C 1067.5,205.5 1068.5,205.5 1069.5,205.5C 1069.09,209.183 1069.92,212.517 1072,215.5C 1072.5,221.825 1072.67,228.158 1072.5,234.5C 1071.5,234.5 1070.5,234.5 1069.5,234.5C 1069.5,238.167 1069.5,241.833 1069.5,245.5C 1068.5,245.5 1067.5,245.5 1066.5,245.5C 1065.98,248.887 1065.15,252.221 1064,255.5C 1061.6,259.268 1059.1,262.935 1056.5,266.5C 1055.5,266.5 1054.5,266.5 1053.5,266.5C 1053.5,267.5 1053.5,268.5 1053.5,269.5C 1050.98,270.64 1048.31,271.307 1045.5,271.5C 1045.5,272.5 1045.5,273.5 1045.5,274.5C 1044.5,274.5 1043.5,274.5 1042.5,274.5C 1042.5,275.5 1042.5,276.5 1042.5,277.5C 1037.24,278.23 1032.24,279.73 1027.5,282C 698.834,282.5 370.167,282.667 41.5,282.5C 41.5,281.5 41.5,280.5 41.5,279.5C 37.0775,279.31 32.7441,278.643 28.5,277.5C 28.5,276.5 28.5,275.5 28.5,274.5C 26.5,274.5 24.5,274.5 22.5,274.5C 21.8893,271.222 19.8893,269.222 16.5,268.5C 14.5495,266.908 13.2162,264.908 12.5,262.5C 11.675,261.614 10.675,261.281 9.5,261.5C 9.5,260.5 9.5,259.5 9.5,258.5C 5.48639,257.457 3.81973,254.791 4.5,250.5C 3.5,250.5 2.5,250.5 1.5,250.5C 2.03562,247.302 1.36895,244.635 -0.5,242.5 Z"/></g>
<g><path style="opacity:1" fill="#fefefe" d="M 1351.5,656.5 C 1351.5,669.167 1351.5,681.833 1351.5,694.5C 1349.74,695.552 1349.08,697.219 1349.5,699.5C 1348.5,699.5 1347.5,699.5 1346.5,699.5C 1345.63,703.121 1344.96,706.788 1344.5,710.5C 1342.5,711.167 1340.5,711.833 1338.5,712.5C 1337.5,716.833 1334.83,719.5 1330.5,720.5C 1330.5,721.5 1330.5,722.5 1330.5,723.5C 1328.83,723.5 1327.17,723.5 1325.5,723.5C 1325.5,724.5 1325.5,725.5 1325.5,726.5C 1322.01,727.953 1318.35,728.619 1314.5,728.5C 1314.5,729.5 1314.5,730.5 1314.5,731.5C 1310.82,731.087 1307.48,731.921 1304.5,734C 978.5,734.5 652.5,734.667 326.5,734.5C 326.5,733.5 326.5,732.5 326.5,731.5C 323.15,731.665 319.817,731.498 316.5,731C 313.372,728.315 309.705,726.815 305.5,726.5C 305.5,725.5 305.5,724.5 305.5,723.5C 304.5,723.5 303.5,723.5 302.5,723.5C 301.82,719.678 299.487,718.011 295.5,718.5C 295.524,714.195 293.524,711.528 289.5,710.5C 289.5,709.5 289.5,708.5 289.5,707.5C 288.5,707.5 287.5,707.5 286.5,707.5C 285.833,704.167 285.167,700.833 284.5,697.5C 283.5,697.5 282.5,697.5 281.5,697.5C 281.5,693.833 281.5,690.167 281.5,686.5C 280.5,686.5 279.5,686.5 278.5,686.5C 278.5,679.167 278.5,671.833 278.5,664.5C 279.5,664.5 280.5,664.5 281.5,664.5C 281.335,661.15 281.502,657.817 282,654.5C 284.685,651.372 286.185,647.705 286.5,643.5C 287.5,643.5 288.5,643.5 289.5,643.5C 289.5,642.5 289.5,641.5 289.5,640.5C 292.778,639.889 294.778,637.889 295.5,634.5C 297.609,633.35 299.609,632.016 301.5,630.5C 302.386,629.675 302.719,628.675 302.5,627.5C 303.5,627.5 304.5,627.5 305.5,627.5C 305.5,626.5 305.5,625.5 305.5,624.5C 309.705,624.185 313.372,622.685 316.5,620C 319.817,619.502 323.15,619.335 326.5,619.5C 326.5,618.5 326.5,617.5 326.5,616.5C 652.5,616.333 978.5,616.5 1304.5,617C 1307.48,619.079 1310.82,619.913 1314.5,619.5C 1314.5,620.5 1314.5,621.5 1314.5,622.5C 1318.35,622.381 1322.01,623.047 1325.5,624.5C 1325.5,625.5 1325.5,626.5 1325.5,627.5C 1327.17,627.5 1328.83,627.5 1330.5,627.5C 1330.5,628.5 1330.5,629.5 1330.5,630.5C 1332.5,631.167 1334.5,631.833 1336.5,632.5C 1337.17,634.5 1337.83,636.5 1338.5,638.5C 1340.5,639.167 1342.5,639.833 1344.5,640.5C 1344.96,644.212 1345.63,647.879 1346.5,651.5C 1347.5,651.5 1348.5,651.5 1349.5,651.5C 1349.08,653.781 1349.74,655.448 1351.5,656.5 Z"/></g>
<g><path style="opacity:1" fill="#fefffe" d="M -0.5,1143.5 C -0.5,1131.83 -0.5,1120.17 -0.5,1108.5C 1.36895,1106.36 2.03562,1103.7 1.5,1100.5C 2.5,1100.5 3.5,1100.5 4.5,1100.5C 4.69332,1097.69 5.35998,1095.02 6.5,1092.5C 7.5,1092.5 8.5,1092.5 9.5,1092.5C 9.5,1091.5 9.5,1090.5 9.5,1089.5C 10.5,1089.5 11.5,1089.5 12.5,1089.5C 13.6881,1084.64 16.6881,1081.31 21.5,1079.5C 22.3857,1078.68 22.719,1077.68 22.5,1076.5C 24.5,1076.5 26.5,1076.5 28.5,1076.5C 28.5,1075.5 28.5,1074.5 28.5,1073.5C 32.7441,1072.36 37.0775,1071.69 41.5,1071.5C 41.5,1070.5 41.5,1069.5 41.5,1068.5C 370.167,1068.33 698.834,1068.5 1027.5,1069C 1032.24,1071.27 1037.24,1072.77 1042.5,1073.5C 1042.5,1074.5 1042.5,1075.5 1042.5,1076.5C 1043.5,1076.5 1044.5,1076.5 1045.5,1076.5C 1045.5,1077.5 1045.5,1078.5 1045.5,1079.5C 1048.31,1079.69 1050.98,1080.36 1053.5,1081.5C 1053.5,1082.5 1053.5,1083.5 1053.5,1084.5C 1056.96,1084.96 1058.62,1086.96 1058.5,1090.5C 1059.5,1090.5 1060.5,1090.5 1061.5,1090.5C 1063.78,1095.15 1065.45,1100.15 1066.5,1105.5C 1067.5,1105.5 1068.5,1105.5 1069.5,1105.5C 1069.5,1109.17 1069.5,1112.83 1069.5,1116.5C 1070.5,1116.5 1071.5,1116.5 1072.5,1116.5C 1072.67,1122.84 1072.5,1129.18 1072,1135.5C 1069.92,1138.48 1069.09,1141.82 1069.5,1145.5C 1068.5,1145.5 1067.5,1145.5 1066.5,1145.5C 1066.62,1149.35 1065.95,1153.01 1064.5,1156.5C 1063.5,1156.5 1062.5,1156.5 1061.5,1156.5C 1061.5,1158.17 1061.5,1159.83 1061.5,1161.5C 1060.5,1161.5 1059.5,1161.5 1058.5,1161.5C 1057.83,1163.5 1057.17,1165.5 1056.5,1167.5C 1054.5,1168.17 1052.5,1168.83 1050.5,1169.5C 1049.83,1171.5 1049.17,1173.5 1048.5,1175.5C 1044.79,1175.96 1041.12,1176.63 1037.5,1177.5C 1037.5,1178.5 1037.5,1179.5 1037.5,1180.5C 870.232,1181.83 702.899,1182.49 535.5,1182.5C 367.124,1182.49 198.791,1181.82 30.5,1180.5C 30.5,1179.5 30.5,1178.5 30.5,1177.5C 25.993,1176.07 21.6596,1174.4 17.5,1172.5C 17.5,1171.5 17.5,1170.5 17.5,1169.5C 14.5,1169.17 12.8333,1167.5 12.5,1164.5C 11.5,1164.5 10.5,1164.5 9.5,1164.5C 9.5,1162.83 9.5,1161.17 9.5,1159.5C 8.5,1159.5 7.5,1159.5 6.5,1159.5C 5.35998,1156.98 4.69332,1154.31 4.5,1151.5C 3.5,1151.5 2.5,1151.5 1.5,1151.5C 2.03562,1148.3 1.36895,1145.64 -0.5,1143.5 Z"/></g>
</svg>
