<?xml version="1.0" encoding="UTF-8"?>
<!DOCTYPE svg PUBLIC "-//W3C//DTD SVG 1.1//EN" "http://www.w3.org/Graphics/SVG/1.1/DTD/svg11.dtd">
<svg xmlns="http://www.w3.org/2000/svg" version="1.1" width="256px" height="256px" style="shape-rendering:geometricPrecision; text-rendering:geometricPrecision; image-rendering:optimizeQuality; fill-rule:evenodd; clip-rule:evenodd" xmlns:xlink="http://www.w3.org/1999/xlink">
<g><path style="opacity:0.969" fill="#003298" d="M 45.5,31.5 C 100.501,31.3333 155.501,31.5 210.5,32C 222.764,35.9304 230.597,44.0971 234,56.5C 234.667,68.8333 234.667,81.1667 234,93.5C 229.211,102.095 222.878,103.428 215,97.5C 214.333,96.1667 213.667,94.8333 213,93.5C 212.667,82.8333 212.333,72.1667 212,61.5C 211.021,58.3749 209.187,55.8749 206.5,54C 154.167,53.3333 101.833,53.3333 49.5,54C 46.3333,55.1667 44.1667,57.3333 43,60.5C 42.3333,79.8333 42.3333,99.1667 43,118.5C 44.2822,123.449 47.4489,126.283 52.5,127C 75.1667,127.333 97.8333,127.667 120.5,128C 126.935,132.687 128.102,138.521 124,145.5C 122.2,147.317 120.034,148.484 117.5,149C 94.8333,149.667 72.1667,149.667 49.5,149C 34.6748,146.511 25.1748,138.011 21,123.5C 20.3333,101.167 20.3333,78.8333 21,56.5C 24.6829,43.6514 32.8496,35.3181 45.5,31.5 Z"/></g>
<g><path style="opacity:0.959" fill="#003299" d="M 76.5,73.5 C 92.6924,74.546 98.5257,82.8793 94,98.5C 84.3333,109.167 74.6667,109.167 65,98.5C 60.7829,86.2751 64.6162,77.9418 76.5,73.5 Z"/></g>
<g><path style="opacity:0.959" fill="#003299" d="M 124.5,73.5 C 140.692,74.546 146.526,82.8793 142,98.5C 132.333,109.167 122.667,109.167 113,98.5C 108.783,86.2751 112.616,77.9418 124.5,73.5 Z"/></g>
<g><path style="opacity:0.975" fill="#003298" d="M 173.5,95.5 C 202.058,94.7285 215.391,108.728 213.5,137.5C 224.223,138.596 231.056,144.262 234,154.5C 234.667,171.833 234.667,189.167 234,206.5C 231.941,214.893 226.775,220.393 218.5,223C 193.167,223.667 167.833,223.667 142.5,223C 135,220.833 130.167,216 128,208.5C 127.333,190.167 127.333,171.833 128,153.5C 131.019,143.985 137.519,138.652 147.5,137.5C 145.595,116.593 154.262,102.593 173.5,95.5 Z M 177.5,117.5 C 184.78,116.387 189.28,119.387 191,126.5C 191.499,130.152 191.665,133.818 191.5,137.5C 184.5,137.5 177.5,137.5 170.5,137.5C 170.334,133.154 170.501,128.821 171,124.5C 172.356,121.314 174.522,118.981 177.5,117.5 Z M 149.5,159.5 C 170.5,159.5 191.5,159.5 212.5,159.5C 212.5,173.5 212.5,187.5 212.5,201.5C 191.5,201.5 170.5,201.5 149.5,201.5C 149.5,187.5 149.5,173.5 149.5,159.5 Z"/></g>
</svg>
