<?xml version="1.0" encoding="UTF-8"?>
<!DOCTYPE svg PUBLIC "-//W3C//DTD SVG 1.1//EN" "http://www.w3.org/Graphics/SVG/1.1/DTD/svg11.dtd">
<svg xmlns="http://www.w3.org/2000/svg" version="1.1" width="559px" height="693px" style="shape-rendering:geometricPrecision; text-rendering:geometricPrecision; image-rendering:optimizeQuality; fill-rule:evenodd; clip-rule:evenodd" xmlns:xlink="http://www.w3.org/1999/xlink">
<g><path style="opacity:0.998" fill="#003298" d="M 255.5,-0.5 C 271.167,-0.5 286.833,-0.5 302.5,-0.5C 402.51,11.0691 477.343,60.4025 527,147.5C 545.803,184.388 556.303,223.388 558.5,264.5C 558.5,271.167 558.5,277.833 558.5,284.5C 555.034,347.742 533.201,403.742 493,452.5C 424.295,529.536 355.962,606.87 288,684.5C 285.577,687.432 282.743,689.765 279.5,691.5C 278.558,691.392 277.725,691.059 277,690.5C 209.667,615.167 142.333,539.833 75,464.5C 31.4001,417.291 6.2334,361.624 -0.5,297.5C -0.5,282.167 -0.5,266.833 -0.5,251.5C 9.85184,162.259 52.1852,92.7587 126.5,43C 166.157,18.3922 209.157,3.89224 255.5,-0.5 Z"/></g>
</svg>
