<?xml version="1.0" encoding="UTF-8"?>
<!DOCTYPE svg PUBLIC "-//W3C//DTD SVG 1.1//EN" "http://www.w3.org/Graphics/SVG/1.1/DTD/svg11.dtd">
<svg xmlns="http://www.w3.org/2000/svg" version="1.1" width="512px" height="512px" style="shape-rendering:geometricPrecision; text-rendering:geometricPrecision; image-rendering:optimizeQuality; fill-rule:evenodd; clip-rule:evenodd" xmlns:xlink="http://www.w3.org/1999/xlink">
<g><path style="opacity:1" fill="#fefffe" d="M 56.5,-0.5 C 94.5,-0.5 132.5,-0.5 170.5,-0.5C 184.054,5.93189 188.888,16.5986 185,31.5C 181.977,39.1915 176.477,44.0248 168.5,46C 133.833,46.3333 99.1667,46.6667 64.5,47C 54.6667,48.8333 48.8333,54.6667 47,64.5C 46.6667,99.1667 46.3333,133.833 46,168.5C 42.7642,180.061 35.0976,186.061 23,186.5C 11.6806,185.976 3.84724,180.642 -0.5,170.5C -0.5,132.5 -0.5,94.5 -0.5,56.5C 6.83333,25.8333 25.8333,6.83333 56.5,-0.5 Z"/></g>
<g><path style="opacity:1" fill="#fefffe" d="M 340.5,-0.5 C 378.5,-0.5 416.5,-0.5 454.5,-0.5C 485.167,6.83333 504.167,25.8333 511.5,56.5C 511.5,94.5 511.5,132.5 511.5,170.5C 505.068,184.054 494.401,188.888 479.5,185C 471.808,181.977 466.975,176.477 465,168.5C 464.667,133.833 464.333,99.1667 464,64.5C 462.167,54.6667 456.333,48.8333 446.5,47C 411.833,46.6667 377.167,46.3333 342.5,46C 330.939,42.7642 324.939,35.0976 324.5,23C 325.024,11.6806 330.358,3.84724 340.5,-0.5 Z"/></g>
<g><path style="opacity:1" fill="#fefffe" d="M 108.5,92.5 C 144.502,92.3333 180.502,92.5 216.5,93C 224.775,95.6073 229.941,101.107 232,109.5C 232.667,144.833 232.667,180.167 232,215.5C 229.842,224.324 224.342,229.824 215.5,232C 180.167,232.667 144.833,232.667 109.5,232C 101.107,229.941 95.6073,224.775 93,216.5C 92.3333,180.5 92.3333,144.5 93,108.5C 95.685,100.65 100.852,95.3165 108.5,92.5 Z M 139.5,139.5 C 154.833,139.5 170.167,139.5 185.5,139.5C 185.5,154.833 185.5,170.167 185.5,185.5C 170.167,185.5 154.833,185.5 139.5,185.5C 139.5,170.167 139.5,154.833 139.5,139.5 Z"/></g>
<g><path style="opacity:1" fill="#fefffe" d="M 294.5,92.5 C 330.502,92.3333 366.502,92.5 402.5,93C 410.333,95.5 415.5,100.667 418,108.5C 418.667,144.5 418.667,180.5 418,216.5C 415.393,224.775 409.893,229.941 401.5,232C 366.167,232.667 330.833,232.667 295.5,232C 286.667,229.833 281.167,224.333 279,215.5C 278.333,180.167 278.333,144.833 279,109.5C 281.247,101.09 286.414,95.4231 294.5,92.5 Z M 325.5,139.5 C 340.833,139.5 356.167,139.5 371.5,139.5C 371.5,154.833 371.5,170.167 371.5,185.5C 356.167,185.5 340.833,185.5 325.5,185.5C 325.5,170.167 325.5,154.833 325.5,139.5 Z"/></g>
<g><path style="opacity:1" fill="#fefffe" d="M 109.5,278.5 C 144.835,278.333 180.168,278.5 215.5,279C 224.333,281.167 229.833,286.667 232,295.5C 232.667,330.833 232.667,366.167 232,401.5C 229.941,409.893 224.775,415.393 216.5,418C 180.5,418.667 144.5,418.667 108.5,418C 100.667,415.5 95.5,410.333 93,402.5C 92.3333,366.5 92.3333,330.5 93,294.5C 95.7863,286.211 101.286,280.878 109.5,278.5 Z M 139.5,325.5 C 154.833,325.5 170.167,325.5 185.5,325.5C 185.5,340.833 185.5,356.167 185.5,371.5C 170.167,371.5 154.833,371.5 139.5,371.5C 139.5,356.167 139.5,340.833 139.5,325.5 Z"/></g>
<g><path style="opacity:1" fill="#fefffe" d="M 295.5,278.5 C 309.843,275.916 319.677,281.249 325,294.5C 325.945,308.236 325.612,321.903 324,335.5C 317.113,347.523 306.947,351.69 293.5,348C 286.242,345.076 281.408,339.909 279,332.5C 278.333,320.167 278.333,307.833 279,295.5C 281.358,286.643 286.858,280.977 295.5,278.5 Z"/></g>
<g><path style="opacity:1" fill="#fefffe" d="M 365.5,278.5 C 377.505,278.333 389.505,278.5 401.5,279C 409.893,281.059 415.393,286.225 418,294.5C 421.391,309.221 416.224,319.388 402.5,325C 389.833,325.667 377.167,325.667 364.5,325C 350.776,319.388 345.609,309.221 349,294.5C 351.786,286.211 357.286,280.878 365.5,278.5 Z"/></g>
<g><path style="opacity:1" fill="#fefffe" d="M 170.5,511.5 C 132.5,511.5 94.5,511.5 56.5,511.5C 25.8333,504.167 6.83333,485.167 -0.5,454.5C -0.5,416.5 -0.5,378.5 -0.5,340.5C 5.93189,326.946 16.5986,322.112 31.5,326C 39.1915,329.023 44.0248,334.523 46,342.5C 46.3333,377.167 46.6667,411.833 47,446.5C 48.8333,456.333 54.6667,462.167 64.5,464C 99.1667,464.333 133.833,464.667 168.5,465C 180.061,468.236 186.061,475.902 186.5,488C 185.976,499.319 180.642,507.153 170.5,511.5 Z"/></g>
<g><path style="opacity:1" fill="#fefffe" d="M 511.5,340.5 C 511.5,378.5 511.5,416.5 511.5,454.5C 504.167,485.167 485.167,504.167 454.5,511.5C 416.5,511.5 378.5,511.5 340.5,511.5C 326.946,505.068 322.112,494.401 326,479.5C 329.023,471.808 334.523,466.975 342.5,465C 377.167,464.667 411.833,464.333 446.5,464C 456.333,462.167 462.167,456.333 464,446.5C 464.333,411.833 464.667,377.167 465,342.5C 468.236,330.939 475.902,324.939 488,324.5C 499.319,325.024 507.153,330.358 511.5,340.5 Z"/></g>
<g><path style="opacity:1" fill="#fefffe" d="M 319.5,371.5 C 346.835,371.333 374.169,371.5 401.5,372C 409.901,374.068 415.401,379.234 418,387.5C 421.391,402.221 416.224,412.388 402.5,418C 374.167,418.667 345.833,418.667 317.5,418C 306.757,414.204 301.424,406.537 301.5,395C 301.89,382.665 307.89,374.832 319.5,371.5 Z"/></g>
</svg>
