<?xml version="1.0" encoding="UTF-8"?>
<!DOCTYPE svg PUBLIC "-//W3C//DTD SVG 1.1//EN" "http://www.w3.org/Graphics/SVG/1.1/DTD/svg11.dtd">
<svg xmlns="http://www.w3.org/2000/svg" version="1.1" width="256px" height="256px" style="shape-rendering:geometricPrecision; text-rendering:geometricPrecision; image-rendering:optimizeQuality; fill-rule:evenodd; clip-rule:evenodd" xmlns:xlink="http://www.w3.org/1999/xlink">
<g><path style="opacity:0.934" fill="#003298" d="M 120.5,9.5 C 150.597,8.47799 177.431,17.1447 201,35.5C 201.333,29.5 201.667,23.5 202,17.5C 204.167,14.7132 207.001,13.8799 210.5,15C 211.126,15.7504 211.626,16.5838 212,17.5C 212.167,22.8333 212.333,28.1667 212.5,33.5C 212.624,39.6047 212.124,45.6047 211,51.5C 208.627,53.8501 206.127,54.0167 203.5,52C 169.724,20.9773 131.057,12.9773 87.5,28C 40.6556,49.8377 18.489,86.6711 21,138.5C 21.6972,145.29 23.0306,151.956 25,158.5C 27.5098,165.366 30.0098,172.199 32.5,179C 31.6381,184.598 28.6381,185.931 23.5,183C 1.23117,136.33 5.73117,92.497 37,51.5C 59.4512,26.6912 87.2846,12.6912 120.5,9.5 Z"/></g>
<g><path style="opacity:0.949" fill="#003298" d="M 118.5,41.5 C 145.983,39.1748 163.483,51.1748 171,77.5C 171.5,86.1603 171.666,94.8269 171.5,103.5C 167.833,103.5 164.167,103.5 160.5,103.5C 160.666,94.8269 160.5,86.1603 160,77.5C 154.745,61.6889 143.745,53.0222 127,51.5C 110.327,52.8447 99.6605,61.5114 95,77.5C 94.5002,86.1603 94.3336,94.8269 94.5,103.5C 90.8333,103.5 87.1667,103.5 83.5,103.5C 79.5524,82.414 85.219,64.5806 100.5,50C 106.208,46.3101 112.208,43.4768 118.5,41.5 Z"/></g>
<g><path style="opacity:0.937" fill="#003298" d="M 224.5,70.5 C 227.365,70.0548 229.865,70.7215 232,72.5C 252.687,116.975 249.021,159.308 221,199.5C 187.696,238.712 145.863,252.545 95.5,241C 80.2997,236.318 66.4664,229.151 54,219.5C 53.9173,225.942 53.2507,232.275 52,238.5C 49.2047,241.113 46.3714,241.113 43.5,238.5C 42.3554,227.213 42.1888,215.88 43,204.5C 44.47,202.848 46.3033,201.848 48.5,201.5C 55.284,206.443 61.9507,211.609 68.5,217C 106.475,239.523 144.808,240.19 183.5,219C 227.964,187.623 243.13,145.457 229,92.5C 227,87.8333 225,83.1667 223,78.5C 222.109,75.5024 222.609,72.8357 224.5,70.5 Z"/></g>
<g><path style="opacity:0.975" fill="#003298" d="M 74.5,112.5 C 109.835,112.333 145.168,112.5 180.5,113C 186.127,113.957 189.96,117.124 192,122.5C 192.967,144.564 192.634,166.564 191,188.5C 188.635,191.869 185.468,194.036 181.5,195C 144.107,195.981 106.773,195.648 69.5,194C 66.527,192.235 64.3604,189.735 63,186.5C 62.3333,165.167 62.3333,143.833 63,122.5C 65.2099,117.112 69.0432,113.779 74.5,112.5 Z M 87.5,144.5 C 97.4735,143.308 101.974,147.642 101,157.5C 94.6667,166.833 88.3333,166.833 82,157.5C 80.5708,151.7 82.4041,147.367 87.5,144.5 Z M 123.5,144.5 C 133.474,143.308 137.974,147.642 137,157.5C 130.667,166.833 124.333,166.833 118,157.5C 116.571,151.7 118.404,147.367 123.5,144.5 Z M 159.5,144.5 C 169.474,143.308 173.974,147.642 173,157.5C 166.667,166.833 160.333,166.833 154,157.5C 152.571,151.7 154.404,147.367 159.5,144.5 Z"/></g>
</svg>
