<?xml version="1.0" encoding="UTF-8"?>
<svg xmlns="http://www.w3.org/2000/svg" version="1.1" width="512px" height="512px" style="shape-rendering:geometricPrecision; text-rendering:geometricPrecision; image-rendering:optimizeQuality; fill-rule:evenodd; clip-rule:evenodd" xmlns:xlink="http://www.w3.org/1999/xlink">
<g><path style="opacity:1" fill="#fefffe" d="M 511.5,116.5 C 511.5,123.167 511.5,129.833 511.5,136.5C 510.046,139.408 508.546,142.408 507,145.5C 504.54,146.958 502.373,148.791 500.5,151C 479.249,162.643 458.083,174.476 437,186.5C 436.667,270.5 436.333,354.5 436,438.5C 433.842,453.573 425.175,460.907 410,460.5C 394.804,460.985 385.804,453.652 383,438.5C 382.667,364.5 382.333,290.5 382,216.5C 366.181,225.656 350.347,234.656 334.5,243.5C 333.667,309.831 333.167,376.164 333,442.5C 330.721,450.446 325.888,456.279 318.5,460C 310.395,460.934 302.395,460.601 294.5,459C 287.583,455.09 283.416,449.257 282,441.5C 281.667,385.167 281.333,328.833 281,272.5C 265.537,282.564 249.537,291.897 233,300.5C 232.833,347.504 232.333,394.504 231.5,441.5C 225.335,459.25 213.002,465.417 194.5,460C 188.333,457.167 183.833,452.667 181,446.5C 179.69,407.546 179.024,368.546 179,329.5C 174.31,333.342 169.31,336.675 164,339.5C 163.667,339.167 163.333,338.833 163,338.5C 152.91,345.131 142.41,351.131 131.5,356.5C 130.667,383.827 130.167,411.161 130,438.5C 124.727,458.98 111.727,465.98 91,459.5C 83.0913,454.688 78.4246,447.688 77,438.5C 76.6667,421.5 76.3333,404.5 76,387.5C 63.3192,395.503 50.1525,402.67 36.5,409C 29.4333,409.839 22.4333,409.506 15.5,408C 5.20736,403.433 0.207362,395.433 0.5,384C 0.463918,374.942 3.79725,367.442 10.5,361.5C 32.3768,349.262 54.2101,336.928 76,324.5C 76.3333,240.5 76.6667,156.5 77,72.5C 82.3154,52.017 95.3154,45.017 116,51.5C 121.958,55.075 126.291,60.075 129,66.5C 130.315,142.47 130.982,218.47 131,294.5C 136.187,290.758 141.854,287.758 148,285.5C 157.97,279.01 168.304,273.01 179,267.5C 179.333,201.167 179.667,134.833 180,68.5C 183.979,55.8364 192.646,49.8364 206,50.5C 219.412,50.2344 228.078,56.5677 232,69.5C 232.333,125.5 232.667,181.5 233,237.5C 248.861,228.237 264.861,219.237 281,210.5C 281.333,163.5 281.667,116.5 282,69.5C 282.532,66.7365 283.366,64.0698 284.5,61.5C 287.709,57.1265 291.709,53.6265 296.5,51C 304.911,50.0946 313.245,50.4279 321.5,52C 323.907,54.2848 326.407,56.4514 329,58.5C 330.608,61.3821 331.941,64.3821 333,67.5C 333.333,105.5 333.667,143.5 334,181.5C 350.512,171.66 366.512,162.66 382,154.5C 382.365,127.159 383.032,99.8256 384,72.5C 384.688,62.818 389.354,55.818 398,51.5C 405.463,50.3831 412.963,50.2165 420.5,51C 429.819,55.1018 434.986,62.2685 436,72.5C 436.333,89.5 436.667,106.5 437,123.5C 447.411,118.046 457.578,112.213 467.5,106C 478.196,100.841 489.196,100.175 500.5,104C 505.434,107.098 509.101,111.265 511.5,116.5 Z"/></g>
</svg>
