<?xml version="1.0" encoding="UTF-8"?>
<svg xmlns="http://www.w3.org/2000/svg" version="1.1" width="512px" height="512px" style="shape-rendering:geometricPrecision; text-rendering:geometricPrecision; image-rendering:optimizeQuality; fill-rule:evenodd; clip-rule:evenodd" xmlns:xlink="http://www.w3.org/1999/xlink">
<g><path style="opacity:0.991" fill="#febb84" d="M 235.5,-0.5 C 240.833,-0.5 246.167,-0.5 251.5,-0.5C 251.5,81.8333 251.5,164.167 251.5,246.5C 204.408,245.047 168.575,224.38 144,184.5C 127.581,153.322 123.915,120.655 133,86.5C 150.694,37.9273 184.861,8.92734 235.5,-0.5 Z"/></g>
<g><path style="opacity:1" fill="#f8ad73" d="M 251.5,-0.5 C 251.833,-0.5 252.167,-0.5 252.5,-0.5C 252.5,81.5 252.5,163.5 252.5,245.5C 256.833,245.5 261.167,245.5 265.5,245.5C 261.03,246.486 256.363,246.819 251.5,246.5C 251.5,164.167 251.5,81.8333 251.5,-0.5 Z"/></g>
<g><path style="opacity:1" fill="#f5a86c" d="M 252.5,-0.5 C 257.5,-0.5 262.5,-0.5 267.5,-0.5C 316.638,7.79772 350.472,35.1311 369,81.5C 386.423,145.926 367.257,196.092 311.5,232C 297.073,239.643 281.74,244.143 265.5,245.5C 261.167,245.5 256.833,245.5 252.5,245.5C 252.5,163.5 252.5,81.5 252.5,-0.5 Z"/></g>
<g><path style="opacity:0.995" fill="#6aa9ff" d="M 251.5,285.5 C 251.5,360.833 251.5,436.167 251.5,511.5C 206.5,511.5 161.5,511.5 116.5,511.5C 79.3361,506.178 55.1694,485.512 44,449.5C 38.5453,407.378 42.212,366.044 55,325.5C 63.1882,298.914 78.3549,277.414 100.5,261C 119.67,249.366 140.337,245.033 162.5,248C 173.503,254.166 184.17,260.833 194.5,268C 212.136,278.325 231.136,284.158 251.5,285.5 Z"/></g>
<g><path style="opacity:1" fill="#2682ff" d="M 420.5,270.5 C 422.5,273.167 424.833,275.5 427.5,277.5C 432.647,281.979 436.647,287.313 439.5,293.5C 439.427,295.027 440.094,296.027 441.5,296.5C 453.189,316.242 460.689,337.575 464,360.5C 468.996,388.729 469.996,417.062 467,445.5C 464.742,457.485 459.908,468.152 452.5,477.5C 451.094,477.973 450.427,478.973 450.5,480.5C 449.167,482.5 447.5,484.167 445.5,485.5C 444.167,486.167 443.167,487.167 442.5,488.5C 436.786,494.536 430.119,499.369 422.5,503C 413.034,506.945 403.367,509.778 393.5,511.5C 346.5,511.5 299.5,511.5 252.5,511.5C 252.5,436.5 252.5,361.5 252.5,286.5C 256.702,286.817 260.702,286.483 264.5,285.5C 278.928,283.221 292.928,279.054 306.5,273C 318.335,265.917 330.002,258.583 341.5,251C 349.992,246.689 358.992,245.356 368.5,247C 383.215,248.683 396.882,253.349 409.5,261C 413.612,263.712 417.278,266.878 420.5,270.5 Z"/></g>
<g><path style="opacity:0.047" fill="#4090ff" d="M 420.5,270.5 C 423.833,271.833 426.167,274.167 427.5,277.5C 424.833,275.5 422.5,273.167 420.5,270.5 Z"/></g>
<g><path style="opacity:1" fill="#398cff" d="M 251.5,285.5 C 255.833,285.5 260.167,285.5 264.5,285.5C 260.702,286.483 256.702,286.817 252.5,286.5C 252.5,361.5 252.5,436.5 252.5,511.5C 252.167,511.5 251.833,511.5 251.5,511.5C 251.5,436.167 251.5,360.833 251.5,285.5 Z"/></g>
<g><path style="opacity:0.671" fill="#3f8fff" d="M 439.5,293.5 C 440.906,293.973 441.573,294.973 441.5,296.5C 440.094,296.027 439.427,295.027 439.5,293.5 Z"/></g>
<g><path style="opacity:0.008" fill="#4291ff" d="M 452.5,477.5 C 452.573,479.027 451.906,480.027 450.5,480.5C 450.427,478.973 451.094,477.973 452.5,477.5 Z"/></g>
<g><path style="opacity:0.016" fill="#4291ff" d="M 445.5,485.5 C 445.5,487.5 444.5,488.5 442.5,488.5C 443.167,487.167 444.167,486.167 445.5,485.5 Z"/></g>
</svg>
