<?xml version="1.0" encoding="UTF-8"?>
<svg xmlns="http://www.w3.org/2000/svg" version="1.1" width="512px" height="512px" style="shape-rendering:geometricPrecision; text-rendering:geometricPrecision; image-rendering:optimizeQuality; fill-rule:evenodd; clip-rule:evenodd" xmlns:xlink="http://www.w3.org/1999/xlink">
<g><path style="opacity:1" fill="#fefffe" d="M 511.5,409.5 C 511.5,417.5 511.5,425.5 511.5,433.5C 505.056,463.447 487.389,483.614 458.5,494C 452.608,495.645 446.608,496.645 440.5,497C 317.167,497.667 193.833,497.667 70.5,497C 39.8495,494.325 18.0162,479.158 5,451.5C 2.83236,445.469 0.999023,439.469 -0.5,433.5C -0.5,425.5 -0.5,417.5 -0.5,409.5C 2.30218,397.956 6.80218,386.956 13,376.5C 72.5874,267.66 131.921,158.66 191,49.5C 211.367,20.2477 239.201,9.08101 274.5,16C 293.937,21.4589 309.104,32.6256 320,49.5C 382.254,163.674 444.254,278.007 506,392.5C 508.318,398.137 510.151,403.803 511.5,409.5 Z M 249.5,137.5 C 265.277,135.965 276.443,142.299 283,156.5C 284.036,159.753 284.703,163.086 285,166.5C 285.969,218.861 285.635,271.194 284,323.5C 279.738,337.591 270.238,345.257 255.5,346.5C 237.749,344.25 227.916,334.25 226,316.5C 225.333,266.5 225.333,216.5 226,166.5C 227.71,151.691 235.543,142.024 249.5,137.5 Z M 249.5,377.5 C 274.152,376.984 285.652,388.984 284,413.5C 277.1,432.367 263.933,439.2 244.5,434C 226.535,423.769 222.035,409.269 231,390.5C 235.682,383.974 241.849,379.641 249.5,377.5 Z"/></g>
</svg>
